<svg width="446" height="311" viewBox="0 0 446 311" fill="none" xmlns="http://www.w3.org/2000/svg">
<path opacity="0.1" d="M113.457 124.613H66.2192C64.5463 124.613 63.1902 125.974 63.1902 127.653V137.744C63.1902 139.424 64.5463 140.785 66.2192 140.785H113.457C115.13 140.785 116.486 139.424 116.486 137.744V127.653C116.486 125.974 115.13 124.613 113.457 124.613Z" fill="#6C63FF"/>
<path opacity="0.1" d="M169.231 140.789H121.994C120.321 140.789 118.965 142.15 118.965 143.829V153.92C118.965 155.6 120.321 156.961 121.994 156.961H169.231C170.904 156.961 172.26 155.6 172.26 153.92V143.829C172.26 142.15 170.904 140.789 169.231 140.789Z" fill="#6C63FF"/>
<path opacity="0.1" d="M225.01 156.961H177.772C176.099 156.961 174.743 158.322 174.743 160.001V170.092C174.743 171.772 176.099 173.133 177.772 173.133H225.01C226.683 173.133 228.039 171.772 228.039 170.092V160.001C228.039 158.322 226.683 156.961 225.01 156.961Z" fill="#6C63FF"/>
<path opacity="0.1" d="M113.457 100.355H66.2192C64.5463 100.355 63.1902 101.716 63.1902 103.395V113.486C63.1902 115.165 64.5463 116.527 66.2192 116.527H113.457C115.13 116.527 116.486 115.165 116.486 113.486V103.395C116.486 101.716 115.13 100.355 113.457 100.355Z" fill="#6C63FF"/>
<path opacity="0.1" d="M169.231 116.527H121.994C120.321 116.527 118.965 117.888 118.965 119.567V129.658C118.965 131.338 120.321 132.699 121.994 132.699H169.231C170.904 132.699 172.26 131.338 172.26 129.658V119.567C172.26 117.888 170.904 116.527 169.231 116.527Z" fill="#6C63FF"/>
<path opacity="0.1" d="M225.01 132.703H177.772C176.099 132.703 174.743 134.064 174.743 135.743V145.834C174.743 147.514 176.099 148.875 177.772 148.875H225.01C226.683 148.875 228.039 147.514 228.039 145.834V135.743C228.039 134.064 226.683 132.703 225.01 132.703Z" fill="#6C63FF"/>
<path opacity="0.1" d="M286.981 124.613H239.743C238.071 124.613 236.714 125.974 236.714 127.653V137.744C236.714 139.424 238.071 140.785 239.743 140.785H286.981C288.654 140.785 290.01 139.424 290.01 137.744V127.653C290.01 125.974 288.654 124.613 286.981 124.613Z" fill="#6C63FF"/>
<path opacity="0.1" d="M342.756 140.789H295.518C293.845 140.789 292.489 142.15 292.489 143.829V153.92C292.489 155.6 293.845 156.961 295.518 156.961H342.756C344.428 156.961 345.785 155.6 345.785 153.92V143.829C345.785 142.15 344.428 140.789 342.756 140.789Z" fill="#6C63FF"/>
<path opacity="0.1" d="M398.534 156.961H351.296C349.623 156.961 348.267 158.322 348.267 160.001V170.092C348.267 171.772 349.623 173.133 351.296 173.133H398.534C400.207 173.133 401.563 171.772 401.563 170.092V160.001C401.563 158.322 400.207 156.961 398.534 156.961Z" fill="#6C63FF"/>
<path opacity="0.1" d="M286.981 100.355H239.743C238.071 100.355 236.714 101.716 236.714 103.395V113.486C236.714 115.165 238.071 116.527 239.743 116.527H286.981C288.654 116.527 290.01 115.165 290.01 113.486V103.395C290.01 101.716 288.654 100.355 286.981 100.355Z" fill="#6C63FF"/>
<path opacity="0.1" d="M342.756 116.527H295.518C293.845 116.527 292.489 117.888 292.489 119.567V129.658C292.489 131.338 293.845 132.699 295.518 132.699H342.756C344.428 132.699 345.785 131.338 345.785 129.658V119.567C345.785 117.888 344.428 116.527 342.756 116.527Z" fill="#6C63FF"/>
<path opacity="0.1" d="M398.534 132.703H351.296C349.623 132.703 348.267 134.064 348.267 135.743V145.834C348.267 147.514 349.623 148.875 351.296 148.875H398.534C400.207 148.875 401.563 147.514 401.563 145.834V135.743C401.563 134.064 400.207 132.703 398.534 132.703Z" fill="#6C63FF"/>
<path opacity="0.1" d="M113.457 68.0067H66.2192C64.5463 68.0067 63.1902 69.368 63.1902 71.0471V81.1383C63.1902 82.8175 64.5463 84.1787 66.2192 84.1787H113.457C115.13 84.1787 116.486 82.8175 116.486 81.1383V71.0471C116.486 69.368 115.13 68.0067 113.457 68.0067Z" fill="#6C63FF"/>
<path opacity="0.1" d="M169.231 84.1787H121.994C120.321 84.1787 118.965 85.54 118.965 87.2191V97.3103C118.965 98.9895 120.321 100.351 121.994 100.351H169.231C170.904 100.351 172.26 98.9895 172.26 97.3103V87.2191C172.26 85.54 170.904 84.1787 169.231 84.1787Z" fill="#6C63FF"/>
<path opacity="0.1" d="M225.01 100.355H177.772C176.099 100.355 174.743 101.716 174.743 103.395V113.486C174.743 115.165 176.099 116.527 177.772 116.527H225.01C226.683 116.527 228.039 115.165 228.039 113.486V103.395C228.039 101.716 226.683 100.355 225.01 100.355Z" fill="#6C63FF"/>
<path opacity="0.1" d="M113.457 43.7446H66.2192C64.5463 43.7446 63.1902 45.1059 63.1902 46.7851V56.8762C63.1902 58.5554 64.5463 59.9166 66.2192 59.9166H113.457C115.13 59.9166 116.486 58.5554 116.486 56.8762V46.7851C116.486 45.1059 115.13 43.7446 113.457 43.7446Z" fill="#6C63FF"/>
<path opacity="0.1" d="M169.231 59.9208H121.994C120.321 59.9208 118.965 61.282 118.965 62.9612V73.0524C118.965 74.7315 120.321 76.0928 121.994 76.0928H169.231C170.904 76.0928 172.26 74.7315 172.26 73.0524V62.9612C172.26 61.282 170.904 59.9208 169.231 59.9208Z" fill="#6C63FF"/>
<path opacity="0.1" d="M225.01 76.0928H177.772C176.099 76.0928 174.743 77.454 174.743 79.1332V89.2243C174.743 90.9035 176.099 92.2648 177.772 92.2648H225.01C226.683 92.2648 228.039 90.9035 228.039 89.2243V79.1332C228.039 77.454 226.683 76.0928 225.01 76.0928Z" fill="#6C63FF"/>
<path opacity="0.1" d="M286.981 68.0067H239.743C238.071 68.0067 236.714 69.368 236.714 71.0471V81.1383C236.714 82.8175 238.071 84.1787 239.743 84.1787H286.981C288.654 84.1787 290.01 82.8175 290.01 81.1383V71.0471C290.01 69.368 288.654 68.0067 286.981 68.0067Z" fill="#6C63FF"/>
<path opacity="0.1" d="M342.756 84.1787H295.518C293.845 84.1787 292.489 85.54 292.489 87.2191V97.3103C292.489 98.9895 293.845 100.351 295.518 100.351H342.756C344.428 100.351 345.785 98.9895 345.785 97.3103V87.2191C345.785 85.54 344.428 84.1787 342.756 84.1787Z" fill="#6C63FF"/>
<path opacity="0.1" d="M398.534 100.355H351.296C349.623 100.355 348.267 101.716 348.267 103.395V113.486C348.267 115.165 349.623 116.527 351.296 116.527H398.534C400.207 116.527 401.563 115.165 401.563 113.486V103.395C401.563 101.716 400.207 100.355 398.534 100.355Z" fill="#6C63FF"/>
<path opacity="0.1" d="M286.981 43.7446H239.743C238.071 43.7446 236.714 45.1059 236.714 46.7851V56.8762C236.714 58.5554 238.071 59.9166 239.743 59.9166H286.981C288.654 59.9166 290.01 58.5554 290.01 56.8762V46.7851C290.01 45.1059 288.654 43.7446 286.981 43.7446Z" fill="#6C63FF"/>
<path opacity="0.1" d="M342.756 59.9208H295.518C293.845 59.9208 292.489 61.282 292.489 62.9612V73.0524C292.489 74.7315 293.845 76.0928 295.518 76.0928H342.756C344.428 76.0928 345.785 74.7315 345.785 73.0524V62.9612C345.785 61.282 344.428 59.9208 342.756 59.9208Z" fill="#6C63FF"/>
<path opacity="0.1" d="M398.534 76.0928H351.296C349.623 76.0928 348.267 77.454 348.267 79.1332V89.2243C348.267 90.9035 349.623 92.2648 351.296 92.2648H398.534C400.207 92.2648 401.563 90.9035 401.563 89.2243V79.1332C401.563 77.454 400.207 76.0928 398.534 76.0928Z" fill="#6C63FF"/>
<path opacity="0.1" d="M223 311C346.16 311 446 292.771 446 270.284C446 247.797 346.16 229.567 223 229.567C99.8405 229.567 0 247.797 0 270.284C0 292.771 99.8405 311 223 311Z" fill="#6C63FF"/>
<path d="M97.8428 131.357L79.0896 246.754L163.887 237.751L160.218 227.93L93.9699 233.455L109.462 131.152L97.8428 131.357Z" fill="#3F3D56"/>
<path d="M75.8281 0.40921L189.978 0L223 250.846L108.442 266.396L75.8281 0.40921Z" fill="#3F3D56"/>
<path d="M88.2623 10.0256H180.398L212.604 243.276L117.615 256.37L88.2623 10.0256Z" fill="white"/>
<path d="M175.155 232.783C175.734 233.897 176.166 235.1 176.92 236.102C179.122 239.057 183.3 239.519 186.435 241.446C186.592 241.526 186.721 241.652 186.806 241.807C186.949 242.146 186.631 242.502 186.325 242.715C183.949 244.389 180.83 244.425 177.923 244.405C176.946 244.44 175.969 244.346 175.016 244.127C173.479 243.718 172.163 242.641 170.646 242.203C169.86 242.006 169.055 241.892 168.245 241.864L165.061 241.647C164.213 241.635 163.374 241.478 162.578 241.185C162.182 241.032 161.83 240.782 161.556 240.456C161.283 240.13 161.095 239.741 161.013 239.323C160.923 238.643 161.212 237.985 161.384 237.322C161.791 235.75 161.665 233.851 162.884 232.779C163.386 232.393 163.962 232.115 164.576 231.961C166.791 231.211 169.053 230.607 171.347 230.152C173.235 229.78 174.319 231.171 175.155 232.783Z" fill="#3F3D56"/>
<path d="M139.141 241.635C139.222 242.506 139.247 243.505 138.619 244.115C138.228 244.44 137.756 244.653 137.253 244.728C134.24 245.432 130.881 245.481 128.26 243.836C127.987 243.68 127.746 243.473 127.55 243.227C127.332 242.891 127.208 242.502 127.192 242.101C127.098 240.943 127.452 239.801 127.775 238.684C128.537 236.034 129.116 233.333 129.507 230.602C129.54 230.377 137.2 231.83 137.71 232.591C138.35 233.532 138.354 235.791 138.525 236.912C138.783 238.478 138.988 240.052 139.141 241.635Z" fill="#3F3D56"/>
<path d="M167.654 135.15L169.692 154.174C170.1 158.062 170.528 161.97 170.246 165.869C169.92 170.371 168.665 174.872 169.195 179.332C169.403 181.068 169.875 182.77 169.945 184.517C169.958 185.679 169.899 186.841 169.769 187.995C168.848 199.539 171.763 210.993 173.394 222.455C173.656 223.869 173.714 225.313 173.565 226.744C173.353 228.196 172.929 230.103 174.217 230.791L162.117 235.194C160.572 233.25 161.596 230.226 161.302 227.758C161.033 225.536 159.818 223.556 159.17 221.416C158.583 219.492 158.46 217.467 158.269 215.47C157.213 204.597 153.972 194.007 153.214 183.109C153.189 182.057 153.053 181.01 152.806 179.987C152.398 178.633 151.583 177.45 150.988 176.177C150.075 174.266 149.626 172.171 149.186 170.101L146.597 157.927C143.98 161.839 144.086 166.929 143.568 171.619C142.842 178.166 141.22 184.603 139.899 191.069C139.592 192.46 139.362 193.867 139.21 195.283C138.867 199.077 139.548 202.907 139.185 206.696C138.778 211.087 136.939 215.372 137.384 219.762C137.628 222.193 138.558 224.493 139.185 226.85C139.813 229.207 140.123 231.793 139.165 234.04C135.817 232.806 132.22 232.407 128.684 232.878C124.798 228.888 124.11 223.323 123.845 217.737C123.58 212.151 124.22 206.557 123.527 201.025C123.323 199.388 123.005 197.792 122.952 196.159C122.78 190.925 125.288 186.027 126.535 180.941C127.658 176.362 127.765 171.591 126.849 166.966C126.238 163.909 125.186 160.943 124.811 157.845C124.301 153.503 125.165 149.129 126.034 144.84C126.617 141.947 127.196 139.054 127.856 136.177C128.565 133.088 129.409 129.933 131.305 127.404C134.338 123.357 139.724 121.56 144.758 121.953C149.793 122.346 154.494 124.646 158.652 127.51C161.929 129.709 164.949 132.271 167.654 135.15Z" fill="#192534"/>
<path d="M154.127 62.3022C153.898 62.6709 153.739 63.0788 153.658 63.5053C153.556 64.3442 154.066 65.1135 154.473 65.846C154.996 66.7871 155.397 67.7908 155.668 68.8332C155.862 69.4784 155.922 70.1568 155.843 70.8261C155.744 71.3288 155.565 71.8123 155.313 72.2583C154.526 73.7806 153.36 75.1883 151.775 75.8225C150.546 76.2765 149.207 76.3309 147.946 75.978C146.694 75.6222 145.51 75.0579 144.444 74.3085C143.546 73.7369 142.738 73.0335 142.047 72.2215C141.388 71.3336 140.832 70.3725 140.392 69.357C139.544 67.577 138.684 65.6741 138.839 63.7222C138.847 63.5452 138.88 63.3702 138.937 63.2025C139.069 62.8994 139.254 62.6223 139.483 62.3841C141.222 60.3152 142.114 57.6605 141.978 54.9569L147.918 56.3114C149.227 56.6101 150.535 56.9088 151.828 57.2812C152.887 57.5881 154.518 58.0137 155.207 58.9631C155.896 59.9124 154.596 61.4347 154.127 62.3022Z" fill="#FBBEBE"/>
<path d="M150.947 61.2874C156.909 61.2874 161.742 56.436 161.742 50.4515C161.742 44.467 156.909 39.6156 150.947 39.6156C144.985 39.6156 140.152 44.467 140.152 50.4515C140.152 56.436 144.985 61.2874 150.947 61.2874Z" fill="#FBBEBE"/>
<path d="M149.21 72.3116C149.667 71.309 150.653 70.6747 151.554 70.0446C152.455 69.4144 153.369 68.6082 153.544 67.5156C153.555 67.2685 153.616 67.0262 153.723 66.8036C154.07 66.2798 154.893 66.5417 155.387 66.9264C156.585 67.8635 157.4 69.1934 158.195 70.4906C159.224 72.0681 160.104 73.738 160.825 75.4789C161.971 78.5111 162.109 81.8216 162.236 85.0585C162.35 88.0048 162.46 90.9961 161.746 93.8524C161.298 95.6611 160.523 97.4167 160.478 99.2786C160.344 106.043 158.004 112.508 157.841 119.273C157.829 121.229 157.927 123.184 158.134 125.128L158.518 129.519C152.59 129.178 146.679 128.656 140.783 127.952C140.612 125.93 140.037 123.97 139.512 122.014C137.358 114.017 135.978 105.831 135.39 97.5681C135.076 93.1813 134.754 88.811 134.269 84.4406C133.833 80.4672 132.976 76.4692 133.49 72.5039C133.759 70.7016 134.324 68.9565 135.162 67.3397C135.426 66.6956 135.882 66.1485 136.466 65.7724C136.758 65.6308 137.068 65.5303 137.388 65.4737C138.312 65.2857 139.25 65.1749 140.192 65.1422C140.423 65.1227 140.655 65.1449 140.877 65.2077C141.274 65.4064 141.601 65.7238 141.811 66.1161C143.627 68.8572 146.198 71.0096 149.21 72.3116V72.3116Z" fill="#F2F2F2"/>
<path d="M144.204 71.444C144.962 72.5325 146.569 72.7903 147.27 73.8993C147.506 74.3628 147.685 74.8533 147.804 75.3602C148.232 76.731 149.096 77.9218 149.622 79.2599C150.38 81.1832 150.401 83.3111 150.409 85.3776C150.483 87.0237 150.357 88.6727 150.034 90.2882C149.789 91.2989 149.39 92.2605 149.096 93.259C148.598 94.957 148.412 96.7321 148.55 98.4969C148.55 98.8781 148.651 99.2525 148.843 99.5813C149.12 99.91 149.481 100.156 149.887 100.293C151.082 100.821 152.333 101.361 153.638 101.239C153.905 101.23 154.165 101.143 154.384 100.989C154.535 100.851 154.659 100.686 154.751 100.502L155.566 99.1189C156.304 97.8544 157.074 96.4386 156.789 94.9941C156.582 94.2485 156.27 93.5362 155.864 92.8785C155.343 91.811 154.898 90.7074 154.535 89.5761C153.234 85.8237 151.917 82.018 151.624 78.0569C151.451 76.5493 151.618 75.0222 152.113 73.5883C152.496 72.7058 152.977 71.8697 153.548 71.0962C153.419 70.9223 153.24 70.792 153.036 70.7226C152.831 70.6531 152.61 70.6479 152.402 70.7074C151.992 70.8346 151.595 71.0004 151.216 71.2026C150.017 71.71 148.688 71.5259 147.478 71.178C147.005 71.0389 146.255 70.5642 145.765 70.597C145.598 70.6174 144.233 71.4931 144.204 71.444Z" fill="#6C63FF"/>
<path d="M153.748 71.3991C153.503 71.2026 153.124 71.0226 152.908 71.2517C152.835 71.3511 152.783 71.4637 152.753 71.5832C152.541 72.1561 151.917 72.4384 151.351 72.6594C150.784 72.8804 150.172 73.0032 149.83 72.5817C149.722 72.4176 149.669 72.2232 149.678 72.0267C149.688 71.8302 149.759 71.6419 149.883 71.4891C150.134 71.1858 150.436 70.9295 150.776 70.732C152.651 69.4034 153.928 67.386 154.331 65.1177C154.857 65.5372 155.205 66.141 155.305 66.8077C155.44 67.4584 155.456 68.1295 155.59 68.7801C155.79 69.7131 156.235 70.5847 156.336 71.53C156.389 72.0333 156.336 72.5408 156.336 73.0441C156.355 73.5362 156.412 74.0261 156.508 74.5091C155.554 73.4942 154.881 72.3034 153.748 71.3991Z" fill="#F2F2F2"/>
<path d="M145.496 68.6205C145.089 68.2318 144.681 67.8635 144.273 67.4666C142.484 65.7139 141.134 63.5616 140.331 61.1852C139.809 61.5944 139.234 62.1345 139.222 62.822C139.269 63.3085 139.456 63.7707 139.76 64.152C141.302 66.5889 142.32 69.3221 142.749 72.1766C142.969 71.8312 143.274 71.5486 143.634 71.3558C143.995 71.163 144.399 71.0666 144.807 71.0758C145.451 71.0758 148.342 72.7945 148.55 72.3607C148.856 71.6814 145.986 69.0829 145.496 68.6205Z" fill="#F2F2F2"/>
<path d="M154.6 65.3633C158.435 69.1952 163.129 72.048 168.29 73.6825C168.803 73.7948 169.278 74.0371 169.672 74.3863C169.965 74.7546 170.163 75.1906 170.246 75.6549C171.241 79.5588 171.575 83.5977 171.906 87.612C171.992 88.276 171.978 88.9492 171.865 89.609C171.624 90.6811 170.866 91.5486 170.12 92.3548C167.78 94.8714 165.11 97.5027 164.714 100.924C164.684 101.583 164.606 102.24 164.482 102.888C164.278 103.649 163.825 104.32 163.548 105.061C162.187 108.707 165.265 113.122 163.389 116.519C164.404 118.476 165.101 120.585 165.452 122.763C165.515 123.589 165.703 124.401 166.011 125.169C166.569 126.34 167.719 127.084 168.624 128.034C171.384 130.874 171.722 135.22 171.885 139.185C171.987 141.419 171.955 143.985 170.255 145.45C169.272 146.305 167.931 146.583 166.647 146.796C164.938 147.083 163.079 147.287 161.567 146.44C160.483 145.834 159.745 144.775 159.039 143.752C157.702 141.8 156.361 139.852 155.093 137.851C153.087 134.696 151.196 131.091 151.775 127.391C151.611 131.177 150.816 134.99 148.966 138.289C147.115 141.587 144.135 144.341 140.519 145.429C136.902 146.518 132.675 145.749 129.98 143.097C129.1 142.188 128.345 141.165 127.734 140.056C126.2 137.42 125.08 134.561 124.415 131.582C124.24 130.808 124.109 129.945 124.497 129.253C124.68 128.926 124.962 128.668 125.153 128.345C125.797 127.244 125.178 125.857 124.554 124.736C123.604 124.826 122.923 123.704 123.009 122.747C123.094 121.789 123.665 120.959 124.069 120.087C125.251 117.517 124.99 114.526 124.419 111.755C123.849 108.985 122.997 106.231 123.062 103.403C123.131 100.412 120.987 97.7195 119.352 95.2193C118.439 93.8116 117.375 92.5021 116.58 91.0248C114.922 87.9161 114.539 84.2808 115.512 80.8928C116.082 79.1531 116.831 77.4773 117.746 75.8922L119.091 73.3592C119.341 72.754 119.73 72.2164 120.226 71.7899C120.722 71.3633 121.311 71.0599 121.945 70.904L131.252 67.2211C132.442 66.813 133.572 66.246 134.611 65.5351C135.749 64.6758 136.597 63.4891 137.681 62.5724C137.839 62.4058 138.029 62.2726 138.239 62.1805C138.449 62.0885 138.675 62.0395 138.904 62.0364C139.777 62.1141 140.086 63.219 140.176 64.0824C140.38 66.0139 141.807 67.6507 142.292 69.529C144.917 79.9025 150.474 89.4698 151.999 100.06C153.711 95.9313 155.423 91.7942 157.617 87.9067C157.963 87.3486 158.253 86.7579 158.485 86.143C158.748 85.256 158.846 84.328 158.774 83.4053C158.664 80.7414 157.959 78.1388 157.262 75.5649C156.357 72.062 155.541 68.8334 154.6 65.3633Z" fill="#3F3D56"/>
<path d="M172.338 97.0606C172.517 98.8039 172.693 100.551 173.015 102.274C173.39 104.267 173.96 106.215 174.527 108.163C174.804 109.257 175.2 110.318 175.709 111.326C175.894 111.618 176.04 111.933 176.146 112.263C176.345 113.081 175.889 113.9 175.693 114.718C175.106 117.173 176.867 119.903 175.758 122.166C175.424 122.853 174.841 123.422 174.621 124.159C174.364 125.006 174.621 125.91 174.755 126.786C175.102 129.241 174.266 131.737 173.443 134.098L172.04 138.084C170.76 135.694 169.468 133.28 167.698 131.23C167.067 130.493 166.378 129.81 165.795 129.032C164.925 127.81 164.239 126.468 163.756 125.047C162.512 121.67 161.8 118.119 161.649 114.522C161.547 113.499 161.665 112.466 161.995 111.493C162.265 110.931 162.567 110.384 162.9 109.857C163.993 107.88 164.217 105.539 164.196 103.281C164.176 101.022 163.936 98.7548 164.196 96.5082C164.409 94.6324 164.962 92.8115 165.827 91.1352C166.338 90.0498 167.096 89.1006 168.041 88.3649C168.746 87.835 169.606 87.5544 170.487 87.5669C171.82 87.6447 171.514 88.7946 171.628 89.9035L172.338 97.0606Z" fill="#3F3D56"/>
<path d="M112.372 91.4913C111.541 93.9465 110.791 96.4236 110.122 98.9225C109.47 101.378 108.887 103.847 108.373 106.329C108.109 107.421 107.962 108.537 107.933 109.66C107.985 110.968 108.208 112.262 108.597 113.511C111.223 123.009 116.009 131.77 121.398 140.007C122.939 138.079 124.768 136.403 126.821 135.039C126.989 134.94 127.129 134.799 127.228 134.63C127.28 134.471 127.295 134.302 127.272 134.136C127.25 133.971 127.19 133.812 127.098 133.673C125.61 130.612 123.253 127.915 122.511 124.588C122.202 123.205 122.189 121.765 121.839 120.39C121.386 118.61 120.375 116.981 120.143 115.156C119.894 113.167 120.551 110.998 119.621 109.235C121.517 108.494 122.613 106.534 123.416 104.656C124.275 102.734 124.888 100.712 125.243 98.6361C125.801 94.6571 125.025 90.6047 123.037 87.1168C122.066 85.377 120.82 83.807 119.348 82.4682C118.863 82.0303 117.717 80.7741 117.012 80.7863C116.07 80.8068 115.768 82.3373 115.499 83.0247C114.411 85.8319 113.335 88.6432 112.372 91.4913Z" fill="#3F3D56"/>
<path d="M129.258 137.294C129.381 137.384 129.519 137.507 129.487 137.654C129.454 137.802 129.336 137.838 129.23 137.9C128.679 138.292 128.267 138.852 128.056 139.496C127.378 141.028 126.788 142.598 126.286 144.198C125.374 142.826 124.301 141.568 123.09 140.453C122.161 139.594 121.121 138.78 120.624 137.617C120.624 137.585 122.76 136.001 122.956 135.829C123.555 135.293 124.309 133.808 124.929 133.48C125.63 133.112 126.299 134.557 126.833 135.138C127.567 135.936 128.38 136.659 129.258 137.294V137.294Z" fill="#FBBEBE"/>
<path d="M162.411 48.7574C162.382 48.2214 162.313 47.628 161.905 47.2802C161.547 47.0317 161.116 46.912 160.682 46.9405C158.305 46.8628 155.847 47.2638 153.605 46.4618C152.129 45.9339 150.869 44.919 149.43 44.2889C147.991 43.6587 146.149 43.4909 144.987 44.5508C144.106 45.3692 143.866 46.6255 143.56 47.7835C142.887 50.3395 141.688 52.7258 140.041 54.7892C138.937 54.4455 138.146 53.4552 137.636 52.4158C135.904 48.872 136.756 44.6408 137.987 40.8842C138.394 39.6239 138.847 38.3758 139.3 37.1318L140.294 34.3819C141.6 34.2532 142.813 33.6473 143.702 32.6796L144.131 33.723C145.236 33.6831 146.303 33.3047 147.188 32.6386C147.531 33.2852 148.411 33.4571 149.125 33.2484C149.838 33.0397 150.454 32.6386 151.163 32.4299C153.059 31.8161 155.081 32.7614 157.07 32.8678C157.912 32.8472 158.754 32.8718 159.594 32.9415C161.942 33.322 163.601 35.5399 164.319 37.8152C164.796 39.3292 165.191 41.1911 166.679 41.7272C166.712 42.3001 165.701 42.4106 165.615 42.9548C165.605 43.1363 165.648 43.3168 165.737 43.4745L167.103 46.4168C166.45 46.5813 165.763 46.5471 165.13 46.3185C164.514 47.7712 162.472 49.8664 162.411 48.7574Z" fill="#192534"/>
<path d="M231.618 55.1615C232.31 57.4053 232.855 59.6922 233.249 62.0076C233.543 63.7426 233.714 65.67 232.723 67.1186C236.498 61.4183 240.44 55.5462 246.176 51.8673C245.008 50.5961 244.12 49.0924 243.569 47.454C243.017 45.8156 242.815 44.0791 242.976 42.3573C243.009 42.0136 238.268 43.81 237.905 44.0146C236.241 44.9435 234.717 46.0975 233.094 47.0919C232.254 47.6034 228.756 48.8146 228.724 49.5471C228.724 50.0177 230.114 51.4581 230.375 51.9533C230.887 52.982 231.303 54.056 231.618 55.1615Z" fill="#FBBEBE"/>
<path d="M249.161 270.153C248.229 269.494 247.136 269.1 245.999 269.014C244.862 268.927 243.723 269.151 242.703 269.662C240.856 270.619 239.613 272.432 237.933 273.66C235.047 275.763 231.235 275.931 227.855 277.068C226.958 277.371 226.005 277.821 225.625 278.705C225.498 279.077 225.448 279.47 225.476 279.862C225.505 280.254 225.613 280.636 225.793 280.984C226.357 282.248 227.348 283.273 228.589 283.878C230.106 284.606 231.851 284.639 233.53 284.659L248.125 284.831C252.61 284.884 257.123 284.937 261.578 285.498C262.618 285.629 263.743 285.772 264.661 285.261C266.153 284.442 266.324 282.372 266.21 280.665C265.909 276.342 264.947 272.091 263.356 268.062C263.181 267.616 262.948 267.108 262.455 267.026C262.105 267.01 261.761 267.121 261.485 267.337C257.367 269.793 252.153 271.18 247.775 269.216" fill="white"/>
<path d="M256.466 176.689C254.836 186.195 255.9 195.963 257.734 205.428C258.072 207.312 258.517 209.176 259.067 211.009C259.724 213.096 260.608 215.102 261.224 217.201C262.789 222.521 262.569 228.209 262.337 233.762L261.269 259.03C261.179 261.15 261.098 263.319 261.734 265.34C261.99 266.159 262.304 267.182 261.656 267.734C261.402 267.917 261.106 268.031 260.796 268.066C257.879 268.605 254.866 268.152 252.235 266.777L251.945 241.25C251.855 233.381 251.762 225.479 250.555 217.708C249.597 211.529 247.934 205.432 247.824 199.179C247.709 192.632 249.307 186.17 250.938 179.823C251.289 178.465 252.569 177.471 253.621 176.55C253.988 176.186 254.435 175.915 254.925 175.756C255.415 175.621 256.165 176.276 256.466 176.689Z" fill="#3F3D56"/>
<path opacity="0.1" d="M256.466 176.689C254.836 186.195 255.9 195.963 257.734 205.428C258.072 207.312 258.517 209.176 259.067 211.009C259.724 213.096 260.608 215.102 261.224 217.201C262.789 222.521 262.569 228.209 262.337 233.762L261.269 259.03C261.179 261.15 261.098 263.319 261.734 265.34C261.99 266.159 262.304 267.182 261.656 267.734C261.402 267.917 261.106 268.031 260.796 268.066C257.879 268.605 254.866 268.152 252.235 266.777L251.945 241.25C251.855 233.381 251.762 225.479 250.555 217.708C249.597 211.529 247.934 205.432 247.824 199.179C247.709 192.632 249.307 186.17 250.938 179.823C251.289 178.465 252.569 177.471 253.621 176.55C253.988 176.186 254.435 175.915 254.925 175.756C255.415 175.621 256.165 176.276 256.466 176.689Z" fill="black"/>
<path d="M225.854 146.98C225.25 149.472 226.531 152.054 226.388 154.616C226.306 156.167 225.699 157.714 225.98 159.236C226.261 160.758 227.346 161.904 227.925 163.299C228.347 164.465 228.57 165.693 228.585 166.933C228.752 169.994 228.618 173.071 228.504 176.12C228.312 181.235 228.169 186.379 228.842 191.449C229.428 195.842 230.617 200.131 232.377 204.196C232.91 205.302 233.35 206.45 233.693 207.629C233.919 208.728 234.069 209.841 234.142 210.96C234.529 214.601 235.503 218.154 237.024 221.481C238.064 223.76 239.878 225.573 240.453 227.992C240.999 230.308 240.632 232.751 241.028 235.095C241.317 236.835 242.022 238.48 242.414 240.198C242.923 242.42 242.911 244.724 243.168 246.991C243.902 253.539 246.866 260.086 245.096 266.437C244.742 267.714 244.191 269.011 244.44 270.312C244.562 270.95 244.872 271.581 244.733 272.215C244.619 272.755 244.203 273.172 243.991 273.684C243.584 274.642 244.016 275.779 244.742 276.52C245.516 277.21 246.415 277.744 247.391 278.091C250.396 279.38 253.507 280.69 256.768 280.661C257.164 280.682 257.559 280.609 257.922 280.448C258.509 280.141 258.798 279.474 259.047 278.86L260.719 274.711C260.922 274.208 261.126 273.619 260.845 273.152C260.649 272.896 260.412 272.675 260.144 272.497C258.794 271.356 259.1 269.224 259.459 267.509C260.375 263.105 260.883 258.626 260.975 254.128C261.155 245.158 259.683 236.241 258.215 227.39C257.706 224.317 257.192 221.223 256.177 218.277C255.162 215.331 253.666 212.495 253.91 209.434C254.171 206.127 253.315 202.661 253.91 199.4C254.505 196.139 255.447 192.947 256.055 189.689C256.841 185.462 257.037 181.153 257.278 176.865C257.38 175.113 257.51 173.305 258.325 171.75C258.802 170.841 259.495 170.064 260.03 169.184C261.407 166.896 261.628 164.061 262.944 161.736C263.568 160.636 264.428 159.666 264.885 158.487C265.206 157.558 265.374 156.582 265.382 155.598C265.512 153.128 265.375 150.652 264.975 148.212C258.035 144.667 250.338 142.875 242.552 142.99C239.572 143.039 236.559 143.342 233.763 144.378C231.097 145.372 228.667 146.767 225.854 146.98Z" fill="#3F3D56"/>
<path d="M242.569 276.626C241.37 278.124 241.451 280.264 240.685 282.028C239.756 284.168 237.685 285.539 235.72 286.787L223.489 294.562C222.821 294.971 222.103 295.474 221.858 296.236C221.742 296.721 221.763 297.23 221.92 297.705C222.212 298.732 222.756 299.668 223.502 300.429C224.249 301.19 225.174 301.75 226.192 302.059C227.274 302.317 228.386 302.432 229.498 302.398L234.998 302.472C236.673 302.538 238.351 302.472 240.016 302.276C241.541 302.055 243.025 301.617 244.542 301.338C247.302 300.835 250.139 300.88 252.903 300.393C254.596 300.059 256.267 299.626 257.909 299.096C259.907 298.494 261.941 297.868 263.654 296.678C264.125 296.39 264.507 295.976 264.758 295.483C265.048 294.807 264.889 294.034 264.726 293.318L262.1 281.737C261.952 280.773 261.602 279.851 261.073 279.032C260.49 278.255 259.442 277.739 258.533 278.071C258.158 278.242 257.804 278.457 257.477 278.709C256.132 279.597 254.408 279.744 252.818 279.466C251.79 279.282 250.433 279 249.605 278.316C248.977 277.797 248.79 276.991 248.256 276.401C247.881 276.015 247.43 275.713 246.932 275.513C246.433 275.313 245.898 275.221 245.362 275.242C244.826 275.264 244.3 275.398 243.819 275.636C243.337 275.875 242.912 276.212 242.569 276.626V276.626Z" fill="white"/>
<path d="M234.639 53.5656C242.774 53.5656 249.369 46.9463 249.369 38.7809C249.369 30.6155 242.774 23.9961 234.639 23.9961C226.504 23.9961 219.91 30.6155 219.91 38.7809C219.91 46.9463 226.504 53.5656 234.639 53.5656Z" fill="#FBBEBE"/>
<path d="M223.277 39.6484C224.688 38.8546 224.688 36.5671 226.131 35.8059C227.574 35.0448 229.213 36.3666 230.138 37.7006C231.487 39.6543 232.424 41.8643 232.89 44.1948C233.021 44.8577 233.143 45.582 233.64 46.0444C234.138 46.5068 234.79 46.5641 235.426 46.6296C237.288 46.8151 239.152 46.9842 241.019 47.137C243.098 47.3048 245.292 47.4398 247.179 46.5436C247.924 46.2093 248.564 45.6773 249.03 45.005C249.404 44.3594 249.671 43.6574 249.821 42.9262C250.795 39.2065 251.778 35.4418 251.859 31.5952C251.892 30.0074 251.753 28.3624 250.991 26.9711C250.547 26.1527 249.894 25.4406 249.711 24.5404C249.528 23.6401 250.119 22.4943 251.048 22.5925C250.208 22.6272 249.371 22.4676 248.602 22.126C247.864 21.7168 247.318 20.837 247.579 20.035C245.508 20.301 243.999 18.2467 242.385 16.9168C242.123 16.6555 241.768 16.5085 241.398 16.5076C241.115 16.5786 240.841 16.6844 240.583 16.8227C239.768 17.1091 238.916 16.5649 238.08 16.3275C235.838 15.6973 232.988 17.2196 231.325 15.5828C231.484 16.6263 230.208 17.326 229.156 17.3055C228.104 17.2851 227.02 16.8963 226.025 17.2483C226.169 17.5127 226.253 17.8059 226.271 18.1068C226.289 18.4077 226.241 18.7089 226.129 18.9889C226.018 19.2688 225.846 19.5206 225.627 19.7262C225.407 19.9318 225.145 20.0861 224.859 20.1782L225.352 21.2585C224.844 21.3605 224.374 21.6031 223.996 21.9588C223.618 22.3146 223.346 22.7694 223.212 23.2718C222.67 25.4202 222.804 28.4729 222.935 30.6826C223 31.6525 223.942 39.2842 223.277 39.6484Z" fill="#192534"/>
<path d="M235.846 57.8378C228.447 66.1898 226.563 77.9464 224.985 89.0156L222.662 105.359C222.058 109.599 221.439 113.838 220.913 118.09C220.546 120.999 220.203 123.954 220.603 126.859C220.917 129.151 221.679 131.361 222.315 133.566C223.97 139.351 224.794 145.344 224.761 151.363C225.254 149.906 226.963 149.317 228.463 148.989C241.051 146.248 254.185 147.656 265.912 153.004C267.971 147.213 267.584 140.879 268.159 134.757C268.974 126.029 271.783 117.57 272.614 108.858C272.92 105.613 272.957 102.352 272.989 99.0903C273.014 96.6965 273.038 94.278 272.541 91.9332C271.987 89.3389 270.817 86.9204 269.606 84.5675C266.259 78.0267 262.54 71.6844 258.468 65.5719C256.419 62.4946 254.281 59.4788 252.055 56.5243C250.927 55.0265 249.776 53.5452 248.602 52.0802C247.465 50.6603 246.971 49.4285 245.165 50.2797C241.753 51.8838 238.329 55.0347 235.846 57.8378Z" fill="#6C63FF"/>
<path d="M240.086 127.354C238.281 127.42 236.473 127.363 234.676 127.183C233.343 127.052 231.981 126.855 230.681 127.183C230.115 127.326 229.586 127.586 229.127 127.948C228.958 128.1 228.835 128.298 228.776 128.518C228.717 128.739 228.723 128.972 228.793 129.189C228.864 129.406 228.996 129.598 229.173 129.741C229.35 129.884 229.566 129.972 229.792 129.994L231.186 130.117C232.071 130.194 232.992 130.284 233.681 130.935C233.964 131.191 234.144 131.542 234.187 131.921C234.272 132.875 233.449 133.394 232.711 133.791C231.662 134.286 230.692 134.934 229.833 135.715C229.16 136.367 228.737 137.236 228.638 138.17C228.635 138.253 228.654 138.336 228.693 138.409C228.731 138.483 228.789 138.545 228.859 138.59C228.929 138.634 229.01 138.659 229.093 138.662C229.176 138.665 229.258 138.647 229.331 138.608C230.962 137.789 232.026 135.363 233.816 135.768C232.188 136.285 230.794 137.362 229.878 138.808C229.652 139.154 229.549 139.566 229.585 139.977C229.622 140.389 229.796 140.776 230.079 141.076C230.362 141.376 230.738 141.571 231.145 141.629C231.553 141.688 231.968 141.607 232.324 141.399C232.589 141.243 232.845 141.072 233.09 140.887C234.303 139.902 235.389 138.769 236.323 137.515C235.018 140.277 233.698 143.51 235.198 146.256C235.273 146.407 235.389 146.533 235.534 146.619C235.679 146.704 235.845 146.746 236.013 146.739C236.486 146.69 236.625 146.244 236.702 145.851C236.947 144.586 237.008 143.252 237.628 142.127C239.063 139.516 242.601 139.262 245.296 137.99C248.529 136.484 250.743 133.243 251.635 129.781C251.948 128.771 252.002 127.699 251.794 126.663C251.195 124.334 248.333 123.798 246.495 124.924C244.24 126.36 242.931 127.264 240.086 127.354Z" fill="#FBBEBE"/>
<path opacity="0.1" d="M237.224 81.5516C240.078 85.9752 245.031 88.4673 249.279 91.5732C250.315 92.2507 251.219 93.1135 251.945 94.1185C253.017 95.7799 253.168 97.8914 252.948 99.8475C252.671 102.43 251.843 104.913 251.024 107.377L249.242 112.717C248.113 116.105 246.947 119.563 244.798 122.411C244.248 123.136 243.608 123.909 243.633 124.817C243.68 125.342 243.86 125.846 244.154 126.282C244.842 127.409 245.748 128.385 246.819 129.152C247.89 129.92 249.103 130.464 250.388 130.751C251.157 130.947 251.963 130.947 252.732 130.751C253.833 130.424 254.66 129.523 255.427 128.672C259.096 124.609 262.765 120.488 265.415 115.721C268.004 111.068 269.553 105.9 270.98 100.78C271.567 98.8959 271.977 96.96 272.203 94.9983C272.504 91.3154 271.542 87.6325 269.969 84.3056C268.395 80.9787 266.23 77.967 264 75.0411C261.896 72.1672 259.557 69.4735 257.008 66.9878C252.573 62.8262 247.147 60.3791 241.211 62.7402C237.02 64.4098 235.45 67.8922 235.075 72.3526C234.758 75.5731 235.513 78.8083 237.224 81.5516V81.5516Z" fill="black"/>
<path d="M238.708 80.4303C241.562 84.8539 246.519 87.346 250.763 90.4519C251.796 91.1361 252.695 92.0043 253.417 93.0136C254.489 94.675 254.64 96.7824 254.42 98.7425C254.138 101.325 253.315 103.809 252.491 106.272L250.71 111.592C249.581 114.98 248.415 118.434 246.266 121.286C245.72 122.01 245.08 122.78 245.104 123.692C245.149 124.216 245.329 124.72 245.626 125.153C246.313 126.28 247.218 127.256 248.288 128.025C249.358 128.793 250.571 129.337 251.855 129.626C252.626 129.822 253.433 129.822 254.204 129.626C255.304 129.302 256.128 128.398 256.898 127.551C260.568 123.483 264.237 119.367 266.887 114.599C269.475 109.947 271.025 104.778 272.451 99.6551C273.041 97.7723 273.45 95.8376 273.674 93.877C273.976 90.1941 273.014 86.5112 271.444 83.1802C269.875 79.8493 267.706 76.8416 265.476 73.9157C263.364 71.0568 261.02 68.3783 258.468 65.9075C254.037 61.7499 248.61 59.2987 242.675 61.664C238.48 63.3335 236.914 66.8118 236.535 71.2763C236.236 74.4846 237 77.7022 238.708 80.4303V80.4303Z" fill="#6C63FF"/>
<path d="M328.854 227.21C328.857 228.277 328.747 229.342 328.527 230.386C328.487 230.582 328.442 230.795 328.397 230.962C327.239 235.623 323.974 239.032 320.076 239.249C319.946 239.249 319.815 239.249 319.669 239.249C315.547 239.249 312.061 235.681 310.912 230.766C310.879 230.635 310.85 230.504 310.822 230.357C310.602 229.313 310.493 228.248 310.496 227.181C310.496 220.524 314.601 215.13 319.669 215.13C324.736 215.13 328.854 220.564 328.854 227.21Z" fill="#3F3D56"/>
<path opacity="0.1" d="M328.854 227.21C328.857 228.277 328.747 229.342 328.528 230.386C328.487 230.582 328.442 230.795 328.397 230.962C328.259 230.962 328.124 230.962 327.989 230.962C326.98 230.908 325.976 230.771 324.989 230.553C324.114 230.825 323.22 231.03 322.315 231.167C321.62 231.272 320.921 231.338 320.219 231.364H319.51C318.67 231.364 317.831 231.308 316.998 231.196C315.652 231.015 314.33 230.686 313.056 230.214C312.359 230.447 311.648 230.638 310.928 230.787C310.895 230.656 310.867 230.525 310.838 230.377C310.619 229.333 310.509 228.269 310.512 227.202C310.512 220.544 314.618 215.151 319.685 215.151C324.752 215.151 328.854 220.564 328.854 227.21Z" fill="black"/>
<path d="M348.422 204.761C348.426 201.831 347.742 198.942 346.425 196.327L335.637 199.695L345.108 194.105C343.519 191.802 341.436 189.887 339.011 188.5C336.587 187.114 333.883 186.291 331.1 186.093C330.657 185.418 330.171 184.773 329.645 184.161L314.153 189.002L326.86 181.501C324.429 179.629 321.576 178.386 318.553 177.884C315.53 177.382 312.43 177.636 309.528 178.622C306.626 179.609 304.011 181.299 301.914 183.542C299.817 185.785 298.304 188.512 297.507 191.482L310.777 206.815L296.382 196.364C292.736 198.96 290.14 202.784 289.067 207.141C287.995 211.497 288.517 216.095 290.539 220.097C292.562 224.099 295.949 227.239 300.084 228.944C304.219 230.649 308.827 230.806 313.068 229.387C316.905 230.803 321.097 230.919 325.005 229.719C327.73 230.32 330.554 230.302 333.271 229.663C335.987 229.025 338.527 227.784 340.702 226.03C342.877 224.277 344.633 222.056 345.841 219.532C347.049 217.008 347.677 214.244 347.68 211.443C347.68 211.034 347.68 210.625 347.64 210.216C348.168 208.446 348.432 206.608 348.422 204.761V204.761Z" fill="#6C63FF"/>
<path opacity="0.1" d="M348.1 208.231C342.403 207.147 336.561 207.072 330.839 208.01C324.361 209.086 317.74 211.451 311.405 209.724C307.687 208.71 304.474 206.361 300.842 205.055C297.337 203.828 293.562 203.601 289.937 204.401C288.555 207.718 288.154 211.365 288.782 214.905C289.41 218.444 291.04 221.728 293.477 224.363C295.915 226.998 299.056 228.873 302.527 229.764C305.997 230.655 309.65 230.524 313.048 229.387C316.884 230.802 321.076 230.919 324.985 229.718C327.709 230.32 330.534 230.301 333.25 229.663C335.967 229.025 338.506 227.783 340.681 226.03C342.857 224.277 344.613 222.056 345.821 219.532C347.028 217.008 347.657 214.243 347.66 211.443C347.66 211.034 347.66 210.625 347.619 210.216C347.816 209.563 347.976 208.901 348.1 208.231Z" fill="black"/>
</svg>
