<svg width="150" height="123" viewBox="0 0 150 123" fill="none" xmlns="http://www.w3.org/2000/svg">
<circle cx="74.895" cy="55.1968" r="45.1013" stroke="#6C63FF" stroke-width="20"/>
<circle cx="74.8951" cy="55.1968" r="46.0069" fill="#BAC6F2"/>
<g clip-path="url(#clip0)">
<path d="M126.123 40.4321L122.675 40.5661L122.847 45.0089L126.294 44.8749L126.123 40.4321Z" fill="#6C63FF"/>
<path d="M110.57 55.9918C110.57 55.9918 105.796 53.7054 105.872 55.68C105.949 57.6546 110.685 58.9537 110.685 58.9537L110.57 55.9918Z" fill="#FFB9B9"/>
<path d="M113.19 72.6992C113.19 72.6992 110.937 78.225 110.105 82.2124C109.273 86.1999 108.005 91.6874 109.636 95.5792C111.266 99.4709 115.901 110.909 115.949 112.143C115.997 113.377 115.552 114.63 116.537 114.592C117.522 114.554 122.882 112.862 123.1 112.112C123.318 111.362 121.271 109.464 121.271 109.464L116.218 93.593L121.49 83.2531L125.293 98.6785L126.038 117.931C126.038 117.931 129.694 116.8 130.224 117.768C130.224 117.768 131.862 115.48 132.07 114.483C132.278 113.486 131.297 94.4901 131.297 94.4901C131.297 94.4901 134.653 72.8537 131.944 72.959C129.235 73.0643 118.625 66.5553 113.19 72.6992Z" fill="#2F2E41"/>
<path d="M116.499 113.605C116.499 113.605 114 119.14 113.763 119.397C113.527 119.653 111.898 122.188 113.13 122.14C114.361 122.093 117.268 120.744 119.408 118.683C121.548 116.622 124.37 113.052 124.114 112.814C123.858 112.577 122.105 111.904 122.105 111.904L116.499 113.605Z" fill="#2F2E41"/>
<path d="M126.483 116.677C126.483 116.677 126.332 119.155 125.878 120.162C125.423 121.168 125.481 122.649 126.712 122.601C127.943 122.553 131.126 121.935 131.126 121.935C131.126 121.935 131.315 120.445 131.059 120.208C130.803 119.97 129.713 117.294 130.177 116.534C130.641 115.774 126.483 116.677 126.483 116.677Z" fill="#2F2E41"/>
<path d="M128.304 36.2685C128.304 36.2685 130.929 40.3688 131.953 41.3178C132.976 42.2668 130.097 44.3563 130.097 44.3563L124.945 45.0509C124.945 45.0509 125.01 40.3517 124.744 39.8676C124.479 39.3836 128.304 36.2685 128.304 36.2685Z" fill="#FFB9B9"/>
<path d="M123.826 41.6337C123.826 41.6337 124.887 43.57 125.873 43.5317C126.858 43.4934 131.953 41.3179 132.17 40.5678C132.388 39.8178 133.858 45.9405 133.858 45.9405L121.391 67.931L118.35 65.8244L119.823 52.913L121.033 45.9446L123.826 41.6337Z" fill="#6C63FF"/>
<path d="M132.63 61.3142C132.133 62.357 131.822 63.4443 131.865 64.5575C131.867 64.6069 131.869 64.6562 131.873 64.7055C131.991 66.9899 132.831 69.6319 133.132 71.5533C133.351 72.9315 133.289 73.9376 132.484 74.174C130.533 74.7442 132.768 75.1517 125.22 77.6699C117.672 80.188 116.355 78.0144 116.336 77.5208C116.317 77.0271 117.405 73.2769 117.149 73.0397C116.893 72.8024 113.57 76.1451 112.566 75.6898C111.561 75.2344 112.451 72.7279 112.451 72.7279C112.451 72.7279 114.713 67.4489 114.665 66.2148C114.618 64.9807 118.092 59.1602 118.092 59.1602L120.455 43.7423C120.455 43.7423 121.363 41.7294 122.585 41.4347C123.807 41.1401 124.821 41.8422 124.821 41.8422L122.776 46.3712L120.619 54.3652L120.98 57.3175C120.98 57.3175 123.488 52.029 125.136 49.9874C126.783 47.9458 130.296 43.1126 130.296 43.1126C130.296 43.1126 131.116 40.3393 130.497 39.5106C129.878 38.6794 133.079 38.5549 134.444 41.9626C135.167 43.7687 136.342 46.4619 137.078 48.9695C137.733 51.191 138.043 53.2678 137.393 54.4549C136.401 56.2683 133.903 58.6519 132.63 61.3142Z" fill="#575A89"/>
<path opacity="0.1" d="M137.393 54.4549C136.401 56.2683 133.903 58.6519 132.63 61.3143C132.298 60.1134 131.892 58.871 131.892 58.871C131.892 58.871 130.336 50.5269 134.938 48.3704C135.701 48.2965 136.464 48.5101 137.078 48.9695C137.733 51.191 138.043 53.2678 137.393 54.4549Z" fill="black"/>
<path d="M119.123 53.929L115.221 55.0695L109.803 55.28L109.246 59.9984L118.149 60.6411C118.149 60.6411 120.373 54.3748 119.123 53.929Z" fill="#575A89"/>
<path d="M125.485 69.7936C125.485 69.7936 120.265 70.6616 121.457 72.2361C122.648 73.8105 127.272 72.1553 127.272 72.1553L125.485 69.7936Z" fill="#FFB9B9"/>
<path opacity="0.1" d="M131.873 64.7055C131.991 66.9899 132.831 69.6319 133.132 71.5533C131.469 73.1307 129.888 74.5221 129.292 74.5453C128.061 74.5931 126.081 74.4229 125.352 74.6984C124.623 74.974 124.195 70.2939 124.195 70.2939C124.195 70.2939 124.63 68.7938 126.572 67.9768C127.882 67.424 130.394 65.9248 131.873 64.7055Z" fill="black"/>
<path d="M134.881 46.8895C134.881 46.8895 139.048 46.2331 138.823 53.1633C138.598 60.0935 139.263 64.5172 137.586 65.8183C135.91 67.1194 130.466 73.0165 129.235 73.0643C128.003 73.1122 126.024 72.9419 125.295 73.2175C124.565 73.493 124.138 68.813 124.138 68.813C124.138 68.813 124.573 67.3129 126.514 66.4958C128.456 65.6788 133.03 62.7819 132.991 61.7946C132.953 60.8073 131.835 57.39 131.835 57.39C131.835 57.39 130.279 49.0459 134.881 46.8895Z" fill="#575A89"/>
<path d="M124.63 42.34C127.624 42.34 130.051 39.907 130.051 36.9058C130.051 33.9046 127.624 31.4716 124.63 31.4716C121.635 31.4716 119.208 33.9046 119.208 36.9058C119.208 39.907 121.635 42.34 124.63 42.34Z" fill="#FFB9B9"/>
<path d="M120.979 29.117C120.848 29.2299 120.692 29.3087 120.523 29.3463C120.439 29.3614 120.351 29.3424 120.281 29.2933C120.21 29.2443 120.162 29.1692 120.146 29.0846C120.022 29.3424 119.882 29.6172 119.629 29.7495C119.376 29.8818 118.984 29.7709 118.948 29.487C118.911 29.7025 118.815 29.9038 118.672 30.0691C118.515 30.2192 118.23 30.2571 118.093 30.0885C118.204 30.696 118.136 31.3207 118.17 31.9374C118.205 32.554 118.369 33.2077 118.834 33.6131C119.512 34.2044 120.531 34.0585 121.423 33.9465C121.558 33.9181 121.698 33.9258 121.829 33.9687C122.162 34.1113 122.147 34.5771 122.152 34.9408C122.179 35.579 122.431 36.1868 122.863 36.6564C123.295 37.126 123.879 37.4269 124.512 37.5058C124.865 37.5605 125.227 37.4722 125.516 37.2602C125.769 37.0451 125.898 36.6945 126.188 36.533C126.66 36.2702 127.232 36.6534 127.577 37.0696C127.922 37.4858 128.262 37.9977 128.797 38.0739C129.504 38.1746 130.042 37.4526 130.306 36.7878C130.671 35.8559 130.845 34.8604 130.82 33.8599C130.794 32.8594 130.569 31.8741 130.158 30.9621C128.682 27.7374 123.64 27.2274 120.979 29.117Z" fill="#2F2E41"/>
<path d="M92.2876 33.5933C98.4559 33.5933 103.456 28.5815 103.456 22.3991C103.456 16.2167 98.4559 11.2049 92.2876 11.2049C86.1194 11.2049 81.119 16.2167 81.119 22.3991C81.119 28.5815 86.1194 33.5933 92.2876 33.5933Z" fill="#6C63FF"/>
<path d="M80.137 10.5887C82.7103 13.2342 86.6632 13.5547 86.6632 13.5547C86.6632 13.5547 86.4441 9.5858 83.8708 6.94025C81.2975 4.29469 77.3445 3.97427 77.3445 3.97427C77.3445 3.97427 77.5637 7.94313 80.137 10.5887Z" fill="#3F3D56"/>
<path d="M81.0001 9.22894C84.5593 10.1911 86.7655 13.4942 86.7655 13.4942C86.7655 13.4942 83.2013 15.2373 79.6422 14.2751C76.0831 13.3129 73.8768 10.0099 73.8768 10.0099C73.8768 10.0099 77.441 8.26676 81.0001 9.22894Z" fill="#6C63FF"/>
<path d="M84.4939 6.70651C84.5175 10.4012 87.1438 13.3796 87.1438 13.3796C87.1438 13.3796 89.7319 10.3677 89.7083 6.67305C89.6847 2.97839 87.0584 0 87.0584 0C87.0584 0 84.4703 3.01185 84.4939 6.70651Z" fill="#3F3D56"/>
<path d="M86.0566 6.3268C87.9552 9.49381 87.2594 13.4071 87.2594 13.4071C87.2594 13.4071 83.4854 12.1857 81.5869 9.01865C79.6883 5.85164 80.384 1.93835 80.384 1.93835C80.384 1.93835 84.158 3.15979 86.0566 6.3268Z" fill="#6C63FF"/>
<path d="M91.277 27.2923C94.4468 27.2923 97.0164 24.7168 97.0164 21.5397C97.0164 18.3627 94.4468 15.7872 91.277 15.7872C88.1072 15.7872 85.5375 18.3627 85.5375 21.5397C85.5375 24.7168 88.1072 27.2923 91.277 27.2923Z" fill="#F2F2F2"/>
<path d="M88.591 25.1853C89.6191 25.1853 90.4525 24.35 90.4525 23.3196C90.4525 22.2892 89.6191 21.4539 88.591 21.4539C87.563 21.4539 86.7296 22.2892 86.7296 23.3196C86.7296 24.35 87.563 25.1853 88.591 25.1853Z" fill="#3F3D56"/>
<path d="M32.2649 121.723C38.4331 121.723 43.4335 116.711 43.4335 110.529C43.4335 104.346 38.4331 99.3347 32.2649 99.3347C26.0966 99.3347 21.0963 104.346 21.0963 110.529C21.0963 116.711 26.0966 121.723 32.2649 121.723Z" fill="#6C63FF"/>
<path d="M27.3885 94.2835C28.3511 97.85 31.6482 100.059 31.6482 100.059C31.6482 100.059 33.3847 96.4852 32.4221 92.9187C31.4595 89.3521 28.1623 87.1433 28.1623 87.1433C28.1623 87.1433 26.4259 90.7169 27.3885 94.2835Z" fill="#3F3D56"/>
<path d="M28.803 93.517C31.4444 96.0942 31.767 100.056 31.767 100.056C31.767 100.056 27.8071 99.8392 25.1657 97.262C22.5242 94.6848 22.2016 90.7231 22.2016 90.7231C22.2016 90.7231 26.1616 90.9398 28.803 93.517Z" fill="#6C63FF"/>
<path d="M33.0799 93.0185C31.3059 96.2572 32.1532 100.14 32.1532 100.14C32.1532 100.14 35.8768 98.7726 37.6509 95.5338C39.425 92.2951 38.5777 88.412 38.5777 88.412C38.5777 88.412 34.854 89.7798 33.0799 93.0185Z" fill="#3F3D56"/>
<path d="M34.6294 93.4495C34.7493 97.1422 32.2407 100.221 32.2407 100.221C32.2407 100.221 29.5375 97.3124 29.4176 93.6196C29.2976 89.9268 31.8062 86.8481 31.8062 86.8481C31.8062 86.8481 34.5094 89.7567 34.6294 93.4495Z" fill="#6C63FF"/>
<path d="M31.7995 115.038C34.9693 115.038 37.5389 112.462 37.5389 109.285C37.5389 106.108 34.9693 103.533 31.7995 103.533C28.6297 103.533 26.0601 106.108 26.0601 109.285C26.0601 112.462 28.6297 115.038 31.7995 115.038Z" fill="#F2F2F2"/>
<path d="M33.6609 108.352C34.689 108.352 35.5224 107.517 35.5224 106.487C35.5224 105.456 34.689 104.621 33.6609 104.621C32.6329 104.621 31.7995 105.456 31.7995 106.487C31.7995 107.517 32.6329 108.352 33.6609 108.352Z" fill="#3F3D56"/>
<path d="M59.7211 121.568H1.55121V121.879H59.7211V121.568Z" fill="#2F2E41"/>
<path d="M145.502 122.189H87.3323V122.5H145.502V122.189Z" fill="#2F2E41"/>
<path d="M14.8742 121.794L14.5985 121.652C18.179 114.714 16.2644 105.704 14.0279 99.3672C12.5092 95.108 10.5722 91.0106 8.24536 87.1352L8.50758 86.9691C10.8465 90.8642 12.7936 94.9825 14.3203 99.2633C16.5774 105.658 18.5055 114.758 14.8742 121.794Z" fill="#2F2E41"/>
<path d="M17.5289 87.0244L15.5164 98.0639L15.8214 98.1197L17.834 87.0803L17.5289 87.0244Z" fill="#2F2E41"/>
<path d="M4.14675 96.4302L3.91956 96.6421L14.3125 107.836L14.5397 107.624L4.14675 96.4302Z" fill="#2F2E41"/>
<path d="M22.8308 108.727L17.5591 116.036L17.8106 116.218L23.0822 108.909L22.8308 108.727Z" fill="#2F2E41"/>
<path d="M18.4592 84.0982C19.3159 84.0982 20.0104 83.4021 20.0104 82.5434C20.0104 81.6848 19.3159 80.9887 18.4592 80.9887C17.6025 80.9887 16.908 81.6848 16.908 82.5434C16.908 83.4021 17.6025 84.0982 18.4592 84.0982Z" fill="#6C63FF"/>
<path d="M1.5512 96.0697C2.4079 96.0697 3.10239 95.3736 3.10239 94.515C3.10239 93.6563 2.4079 92.9602 1.5512 92.9602C0.694494 92.9602 0 93.6563 0 94.515C0 95.3736 0.694494 96.0697 1.5512 96.0697Z" fill="#3F3D56"/>
<path d="M8.37645 97.6245C9.23316 97.6245 9.92765 96.9284 9.92765 96.0697C9.92765 95.2111 9.23316 94.515 8.37645 94.515C7.51975 94.515 6.82526 95.2111 6.82526 96.0697C6.82526 96.9284 7.51975 97.6245 8.37645 97.6245Z" fill="#3F3D56"/>
<path d="M5.2741 103.688C6.1308 103.688 6.82529 102.992 6.82529 102.133C6.82529 101.275 6.1308 100.579 5.2741 100.579C4.41739 100.579 3.7229 101.275 3.7229 102.133C3.7229 102.992 4.41739 103.688 5.2741 103.688Z" fill="#6C63FF"/>
<path d="M24.664 107.575C25.5207 107.575 26.2152 106.879 26.2152 106.02C26.2152 105.161 25.5207 104.465 24.664 104.465C23.8073 104.465 23.1128 105.161 23.1128 106.02C23.1128 106.879 23.8073 107.575 24.664 107.575Z" fill="#3F3D56"/>
<path d="M19.5451 109.285C20.4018 109.285 21.0963 108.589 21.0963 107.73C21.0963 106.872 20.4018 106.176 19.5451 106.176C18.6884 106.176 17.9939 106.872 17.9939 107.73C17.9939 108.589 18.6884 109.285 19.5451 109.285Z" fill="#3F3D56"/>
<path d="M23.1128 114.26C23.9695 114.26 24.664 113.564 24.664 112.706C24.664 111.847 23.9695 111.151 23.1128 111.151C22.2561 111.151 21.5616 111.847 21.5616 112.706C21.5616 113.564 22.2561 114.26 23.1128 114.26Z" fill="#3F3D56"/>
<path d="M6.82524 85.9639C7.68195 85.9639 8.37644 85.2678 8.37644 84.4091C8.37644 83.5505 7.68195 82.8544 6.82524 82.8544C5.96854 82.8544 5.27405 83.5505 5.27405 84.4091C5.27405 85.2678 5.96854 85.9639 6.82524 85.9639Z" fill="#3F3D56"/>
<path d="M106.505 27.8673H31.7369V72.7995H106.505V27.8673Z" fill="#3F3D56"/>
<path d="M34.6842 30.3549C35.1126 30.3549 35.4598 30.0068 35.4598 29.5775C35.4598 29.1482 35.1126 28.8001 34.6842 28.8001C34.2559 28.8001 33.9086 29.1482 33.9086 29.5775C33.9086 30.0068 34.2559 30.3549 34.6842 30.3549Z" fill="#6C63FF"/>
<path d="M37.4763 30.3549C37.9047 30.3549 38.2519 30.0068 38.2519 29.5775C38.2519 29.1482 37.9047 28.8001 37.4763 28.8001C37.048 28.8001 36.7007 29.1482 36.7007 29.5775C36.7007 30.0068 37.048 30.3549 37.4763 30.3549Z" fill="#6C63FF"/>
<path d="M40.2685 30.3549C40.6969 30.3549 41.0441 30.0068 41.0441 29.5775C41.0441 29.1482 40.6969 28.8001 40.2685 28.8001C39.8402 28.8001 39.4929 29.1482 39.4929 29.5775C39.4929 30.0068 39.8402 30.3549 40.2685 30.3549Z" fill="#6C63FF"/>
<path d="M106.505 31.316H31.7995V31.627H106.505V31.316Z" fill="#2F2E41"/>
<path d="M75.3256 40.4608V54.4535H55.0313L51.2821 58.9623L51.7102 54.4535H49.886V40.4608H75.3256Z" fill="#6C63FF"/>
<path opacity="0.1" d="M75.3255 45.2804H66.1735V54.4534H75.3255V45.2804Z" fill="black"/>
<path d="M68.1901 47.3016H93.6297V61.2944H91.8052L92.2337 65.8031L88.4849 61.2944H68.1901V47.3016Z" fill="#6C63FF"/>
<path opacity="0.1" d="M51.4372 61.2185C54.5213 61.2185 57.0215 60.974 57.0215 60.6724C57.0215 60.3708 54.5213 60.1264 51.4372 60.1264C48.353 60.1264 45.8528 60.3708 45.8528 60.6724C45.8528 60.974 48.353 61.2185 51.4372 61.2185Z" fill="black"/>
<path opacity="0.1" d="M92.2336 68.6017C95.7461 68.6017 98.5935 68.3232 98.5935 67.9798C98.5935 67.6363 95.7461 67.3578 92.2336 67.3578C88.7211 67.3578 85.8737 67.6363 85.8737 67.9798C85.8737 68.3232 88.7211 68.6017 92.2336 68.6017Z" fill="black"/>
</g>
<defs>
<clipPath id="clip0">
<rect width="149.255" height="122.602" fill="white"/>
</clipPath>
</defs>
</svg>
