<svg width="126" height="111" viewBox="0 0 126 111" fill="none" xmlns="http://www.w3.org/2000/svg">
<circle cx="62.3027" cy="55.1968" r="45.1013" stroke="#6C63FF" stroke-width="20"/>
<circle cx="62.3027" cy="55.1968" r="46.0069" fill="#BAC6F2"/>
<path opacity="0.1" d="M125 29.3639C125.003 25.4705 124.276 21.6127 122.857 18L3.63447 30.7988C2.4084 33.0722 1.47018 35.496 0.842426 38.0117L37.7613 43.6386L0 47.7415C1.13584 63.9949 14.7602 76.83 31.4047 76.83C39.782 76.83 47.3936 73.577 53.035 68.2725C58.6924 73.6766 66.3774 77 74.8452 77C87.4094 77 98.2521 69.6839 103.302 59.1054C113.433 55.8231 121.297 47.5598 123.996 37.2298L77.3049 29.8293H124.993C124.993 29.6746 125 29.5198 125 29.3639Z" fill="#6C63FF"/>
<path d="M55.9168 78.2739C81.8515 78.2739 102.876 76.2375 102.876 73.7255C102.876 71.2134 81.8515 69.177 55.9168 69.177C29.9822 69.177 8.95801 71.2134 8.95801 73.7255C8.95801 76.2375 29.9822 78.2739 55.9168 78.2739Z" fill="#6C63FF"/>
<path d="M91.4279 65.2458C92.1321 64.9406 92.6547 64.6861 92.7958 64.5549C93.3612 64.0309 98.3125 59.4572 97.0247 63.8214C95.737 68.1856 92.8488 69.8702 92.8488 69.8702C92.8488 69.8702 89.7033 72.8158 89.0329 74.3415C88.3625 75.8673 86.3535 75.447 85.5274 74.3415C84.7012 73.2361 82.1246 73.6575 82.1246 73.6575L78.2048 73.973C78.2048 73.973 71.1001 74.9322 68.7165 73.2499C66.3328 71.5675 64.7448 71.5537 64.7448 71.5537C64.7448 71.5537 62.8894 72.3955 60.7766 72.5003C59.7747 72.5701 58.7792 72.7148 57.7981 72.9332C57.7744 73.0394 57.7365 73.1417 57.6853 73.2372H57.6435C57.6206 73.3473 57.5826 73.4535 57.5306 73.5527C57.5306 73.5527 54.6425 73.6541 52.6064 73.289C50.5704 72.924 46.0389 73.4998 46.0389 73.4998C46.0389 73.4998 44.1733 73.5009 40.0482 73.8947C35.923 74.2885 28.2664 73.8947 28.2664 73.8947C28.2664 73.8947 24.3941 73.4975 23.6515 72.6281C22.9088 71.7587 22.0793 71.7057 20.7644 70.5554C19.4496 69.405 19.269 66.0518 19.269 66.0518C19.269 66.0518 18.9643 63.3262 23.5273 62.3025C28.0904 61.2788 31.2099 63.4667 31.2099 63.4667C31.211 63.4644 31.2325 63.4322 31.2641 63.378H31.2223L31.2742 63.3585C31.4006 63.142 31.6681 62.6249 31.6546 62.1413C31.6309 61.5045 32.3317 59.8924 32.3317 59.8924L32.3464 59.8855C32.3272 59.8237 32.3272 59.7573 32.3464 59.6955C32.5981 58.886 33.4288 57.3672 33.4288 57.3672C33.4288 57.3672 34.0281 57.0125 34.0089 56.6763C33.9897 56.34 35.1116 55.3543 35.1116 55.3543C35.1116 55.3543 35.8068 54.7659 35.7109 54.2696C35.6149 53.7733 36.388 52.9673 36.388 52.9673L37.8553 50.0275C37.8553 50.0275 39.0934 47.2892 39.9443 47.1671C40.7953 47.0451 42.3619 44.5152 42.3619 44.5152C42.3619 44.5152 45.1462 42.2249 45.1654 41.7516C45.1846 41.2783 46.5581 40.4297 46.5581 40.4297C46.5581 40.4297 46.5638 40.4827 46.5818 40.5702L46.7421 40.44C47.7183 39.649 49.1652 38.6172 50.2578 38.4572C50.2578 38.4572 51.7396 37.5014 52.7328 36.5111C53.1008 36.1472 56.9584 34.352 60.2755 33.0566C63.0394 31.9763 65.9285 31.2646 68.8711 30.939H68.8903H68.9264L80.1134 33.3491C81.3415 33.6141 82.5124 34.1041 83.5692 34.7954C83.8852 35.0015 84.2295 35.2318 84.5906 35.4794C84.3976 35.3504 84.2024 35.2214 84.0331 35.1109C83.8638 35.0003 83.6911 34.8967 83.5162 34.7965C86.5556 36.784 92.3003 40.9824 89.0803 42.4529C84.8006 44.4093 82.2216 37.202 82.2216 37.202C82.2216 37.202 80.8797 35.9354 76.9634 36.2543C73.047 36.5733 66.7132 35.522 66.7132 35.522C66.7132 35.522 64.343 37.7824 61.2957 37.9401C61.2957 37.9401 59.0791 38.7289 58.7699 39.3599C58.5217 39.8641 58.0778 40.9053 57.9078 41.3039L57.8986 41.3256L57.9968 41.306L57.8647 41.4085C57.8489 41.4453 57.8421 41.4637 57.8421 41.4637L58.5667 41.6756C58.9808 41.7819 59.4061 41.8357 59.833 41.8357C59.938 41.8338 60.0428 41.8253 60.1468 41.8103C60.2984 40.6217 60.868 39.5297 61.7497 38.7375C62.6315 37.9453 63.7652 37.5068 64.9401 37.5037C65.1256 37.5036 65.311 37.514 65.4954 37.5348C65.5462 37.5406 65.5969 37.5486 65.6466 37.5567C65.6545 37.5429 65.6545 37.5198 65.6545 37.5152V37.5026C65.6996 37.3033 65.843 37.2354 66.0145 37.2009C66.1026 37.1836 66.1974 37.1732 66.291 37.1606C66.3689 37.1514 66.4423 37.1387 66.5168 37.1387H66.5743C66.6658 37.1387 66.756 37.1329 66.8486 37.1387C67.3228 37.1557 67.7866 37.2854 68.2029 37.5175C68.3576 37.6027 68.5054 37.7018 68.6645 37.7755C69.0404 37.9482 69.4636 37.9701 69.8553 38.0967C70.6397 38.3478 71.2502 39.0041 71.6362 39.7422C72.0222 40.4804 72.2163 41.3083 72.4048 42.1224C72.4605 42.3068 72.4751 42.5015 72.4477 42.6924C72.4291 42.7732 72.399 42.8507 72.3586 42.9227C72.3461 42.9446 72.3315 42.9664 72.319 42.9895C72.4723 43.0388 72.6202 43.104 72.7603 43.1841C73.186 43.4318 73.5484 43.7786 73.8179 44.1963C74.2885 44.9194 74.4894 45.7945 74.5481 46.6616C74.5844 47.0304 74.5661 47.4027 74.4939 47.7659V47.7821L74.4871 47.8143C74.4781 47.8488 74.4702 47.8834 74.4589 47.9179L74.4386 47.9813C74.4149 48.0515 74.3901 48.1217 74.363 48.1908C74.3167 48.3129 74.2659 48.428 74.2174 48.5432C74.1437 48.7121 74.0877 48.8885 74.0504 49.0694C73.942 49.6705 74.1768 50.2762 74.3675 50.852C74.551 51.4011 74.6973 51.9624 74.8054 52.532C74.916 53.1262 74.9781 53.7584 74.8438 54.3341C74.844 54.331 74.844 54.328 74.8438 54.3249C74.8393 54.3479 74.8325 54.371 74.8269 54.394L74.8201 54.4216L74.8133 54.4481C74.8032 54.4907 74.7919 54.5264 74.7806 54.5633C74.7761 54.5771 74.7772 54.5759 74.7682 54.6059C74.7591 54.6358 74.7467 54.6657 74.7354 54.6968C74.7093 54.7632 74.68 54.8281 74.6474 54.8914L74.6327 54.9214C74.6203 54.9467 74.6057 54.9732 74.5932 54.9974C74.5892 55.0042 74.5847 55.0108 74.5797 55.017L74.5515 55.0676C74.5323 55.101 74.5165 55.1252 74.4917 55.1678C74.4668 55.2104 74.4409 55.253 74.4138 55.2945L74.4036 55.3094C74.3235 55.435 74.2388 55.5593 74.1565 55.6825C74.126 55.7274 74.0966 55.7735 74.0673 55.8184C74.0233 55.8875 73.9815 55.9577 73.9409 56.028C73.9251 56.0545 73.9093 56.0821 73.8957 56.1086C73.8664 56.1569 73.8382 56.2168 73.8122 56.2721C73.7524 56.4001 73.7055 56.534 73.6723 56.6717C73.4973 57.4144 73.8077 58.1767 74.0616 58.8964C74.574 60.3553 74.8551 61.987 74.3709 63.4437C74.3607 63.4782 74.3483 63.5128 74.3359 63.5473L74.2953 63.6532C74.2908 63.6648 74.2829 63.6763 74.2829 63.6866C74.2569 63.7534 74.2264 63.8202 74.1937 63.8858V63.8939C74.7611 64.1436 75.3096 64.4357 75.8347 64.7679C77.0515 64.9458 78.2475 65.2487 79.4046 65.6718C80.0648 65.9114 80.8741 66.1324 81.6065 66.1324C83.2047 66.1324 91.4538 63.9227 91.4538 65.0281C91.4386 65.136 91.3832 65.2337 91.2992 65.301L91.4279 65.2458Z" fill="url(#paint0_linear)"/>
<path d="M88.577 42.6279C84.3673 44.5521 81.8312 37.4634 81.8312 37.4634C81.8312 37.4634 80.5141 36.2209 76.6587 36.5318C72.8033 36.8427 66.5666 35.8064 66.5666 35.8064C66.5666 35.8064 64.2337 38.0334 61.2417 38.1854C61.2417 38.1854 59.0612 38.9615 58.7587 39.5833C58.5115 40.0877 58.0623 41.1413 57.9021 41.5155C57.8928 41.5435 57.8819 41.5708 57.8694 41.5973C57.8536 41.633 57.8468 41.6526 57.8468 41.6526L57.7215 41.7125L55.2092 42.9434L51.7612 43.928L49.5796 44.1859L45.8777 41.5685C45.8777 41.5685 46.3054 41.1609 46.9341 40.6473C47.8945 39.87 49.3177 38.8544 50.3922 38.6978C50.3922 38.6978 51.8504 37.757 52.8266 36.784C53.1889 36.4213 56.9834 34.656 60.2451 33.3813C62.9638 32.319 65.8054 31.6189 68.6997 31.2982L79.7027 33.6692C80.9116 33.9292 82.0644 34.4102 83.1055 35.089C86.0907 37.05 91.7485 41.1793 88.577 42.6279Z" fill="#FFC1C7"/>
<g opacity="0.1">
<path opacity="0.1" d="M46.3855 41.8829C46.3855 41.8829 46.8133 41.4741 47.4419 40.9617C48.4024 40.1844 49.8256 39.1688 50.9 39.0122C50.9 39.0122 52.3582 38.0714 53.3345 37.0984C53.6968 36.7345 57.4912 34.9704 60.753 33.6957C63.4719 32.636 66.3136 31.9389 69.2075 31.6218L80.2105 33.9916C81.4192 34.2518 82.5717 34.7332 83.6122 35.4126C83.7875 35.5269 83.9704 35.6479 84.1607 35.7753C83.8052 35.5312 83.4666 35.3043 83.1563 35.1017C82.1156 34.4229 80.9631 33.9419 79.7546 33.6818L68.7516 31.3109C65.8573 31.6314 63.0157 32.3315 60.297 33.394C57.0341 34.6687 53.2397 36.4339 52.8785 36.7967C51.9011 37.7697 50.4441 38.7105 50.4441 38.7105C49.3696 38.8671 47.9453 39.8827 46.986 40.66C46.3573 41.1701 45.9296 41.5812 45.9296 41.5812L49.6315 44.1985H49.6461L46.3855 41.8829Z" fill="black"/>
<path opacity="0.1" d="M82.3424 37.7731C82.2038 37.6581 82.0523 37.5603 81.891 37.4818C81.9926 37.7559 83.277 41.1505 85.4676 42.454C83.4699 40.9236 82.3424 37.7731 82.3424 37.7731Z" fill="black"/>
</g>
<path d="M74.547 54.4066C74.533 54.4662 74.5161 54.525 74.4962 54.5828C74.4872 54.6128 74.4748 54.6427 74.4646 54.6715C74.4359 54.7434 74.4035 54.8138 74.3676 54.8822C74.3529 54.9133 74.336 54.9444 74.3213 54.9743C74.3177 54.9812 74.3135 54.9877 74.3089 54.9939C74.2931 55.0239 74.2773 55.0515 74.2604 55.0791C74.1475 55.2749 74.0166 55.4614 73.8913 55.6549C73.8495 55.7171 73.8078 55.7804 73.7683 55.8449C73.7612 55.8581 73.7533 55.8708 73.7446 55.8829C73.7231 55.9186 73.7006 55.9566 73.6802 55.998C73.6599 56.0395 73.6441 56.0602 73.6283 56.0913C73.6125 56.1224 73.6103 56.1235 73.6024 56.1397L73.5538 56.2352C73.4972 56.3552 73.4522 56.4806 73.4195 56.6095C73.2457 57.3407 73.5527 58.0903 73.8021 58.7973C74.3055 60.2321 74.5831 61.8373 74.1069 63.2698C74.0956 63.3032 74.0843 63.3377 74.0719 63.3723C74.0595 63.4068 74.038 63.4632 74.02 63.5082C73.9929 63.5772 73.9624 63.6452 73.9285 63.7131C73.6712 64.2244 73.2299 64.6838 72.6871 64.6343C71.941 64.5675 71.5787 63.6348 70.8993 63.317C70.309 63.0406 69.563 63.2663 69.0066 62.9255C69.053 62.7703 69.1162 62.6208 69.1951 62.4799C69.2955 62.291 69.4208 62.1102 69.5337 61.9306C69.723 61.6653 69.875 61.3742 69.9851 61.0658C70.0068 60.9971 70.0245 60.9271 70.0382 60.8562C70.0388 60.8509 70.0388 60.8455 70.0382 60.8401C70.0438 60.8044 70.0506 60.771 70.0551 60.7353C70.0596 60.6996 70.0641 60.6674 70.0675 60.6305C70.0681 60.6244 70.0681 60.6182 70.0675 60.6121C70.0675 60.5718 70.0675 60.5315 70.0754 60.4901C70.0765 60.101 70.0387 59.7129 69.9625 59.3316C69.8218 58.4657 69.6804 57.5998 69.5382 56.7338C69.4343 56.1005 69.3328 55.4372 69.5246 54.8258C69.5393 54.782 69.5551 54.7383 69.5709 54.6957C69.5867 54.6531 69.6059 54.6093 69.6251 54.5679C69.7359 54.3322 69.8666 54.1068 70.0156 53.8942C70.3737 53.3569 70.7579 52.8368 71.1679 52.3339C71.4456 51.9885 71.7435 51.643 71.8451 51.2124C71.8561 51.1707 71.8644 51.1284 71.8699 51.0857C71.9354 50.67 71.8203 50.2555 71.6848 49.8398C71.6675 49.7914 71.6517 49.743 71.6374 49.6947C71.59 49.5519 71.5426 49.408 71.502 49.2617C71.4884 49.2145 71.476 49.1661 71.4636 49.1178C71.4396 49.021 71.4203 48.923 71.4061 48.8241C71.391 48.7266 71.3827 48.6281 71.3812 48.5294C71.3812 48.4833 71.3812 48.4361 71.3812 48.39C71.3812 48.344 71.3812 48.3209 71.3903 48.2852C71.3993 48.2495 71.4004 48.2115 71.4061 48.1701C71.4117 48.1286 71.4151 48.1148 71.4207 48.0872C71.4264 48.0595 71.4377 48.0031 71.4489 47.9628C71.4553 47.9296 71.464 47.8969 71.4749 47.8649C71.4805 47.8385 71.4884 47.812 71.4952 47.7866L71.5246 47.6945L71.5708 47.5609C71.5855 47.5172 71.6024 47.4723 71.6194 47.4285C71.704 47.1982 71.8011 46.9679 71.8857 46.7468C71.9333 46.619 71.9744 46.4887 72.0087 46.3565C72.0087 46.3565 72.0087 46.3565 72.0087 46.3565C72.0087 46.3323 72.0212 46.3058 72.0268 46.2805C72.0338 46.2551 72.0394 46.2293 72.0437 46.2033C72.0516 46.1715 72.0576 46.1392 72.0618 46.1066C72.0697 46.064 72.0776 46.0191 72.0821 45.9753C72.0866 45.9316 72.0911 45.8866 72.0945 45.8417C72.0979 45.7968 72.0945 45.7531 72.0945 45.7093C72.0965 45.5533 72.0748 45.398 72.0302 45.2487C72.0134 45.1878 71.9915 45.1285 71.9647 45.0714V45.0714C71.9451 45.032 71.9237 44.9935 71.9004 44.9562C71.7559 44.7167 71.5313 44.5336 71.4004 44.2838C71.3232 44.1304 71.2844 43.9599 71.2876 43.7875C71.2871 43.7405 71.2902 43.6935 71.2966 43.647C71.3034 43.5993 71.314 43.5524 71.3282 43.5065C71.3328 43.488 71.3389 43.4699 71.3462 43.4524C71.3545 43.4332 71.3624 43.4148 71.3699 43.3971C71.381 43.3741 71.3934 43.3518 71.4072 43.3303C71.4185 43.3153 71.4286 43.2992 71.4399 43.2854C71.5596 43.1311 71.7514 43.0551 72.0144 43.1334L72.0787 43.1553C72.2291 43.2045 72.3743 43.2689 72.5121 43.3476C72.9308 43.5911 73.2873 43.932 73.5527 44.3425C74.0155 45.0541 74.213 45.9154 74.2705 46.7676C74.3055 47.1306 74.2876 47.4969 74.2175 47.8546C74.2175 47.8695 74.2096 47.8868 74.2073 47.9018C74.1983 47.9363 74.1904 47.9709 74.1791 48.0043C74.1106 48.2133 74.0315 48.4185 73.9421 48.6192C73.9421 48.6192 73.9421 48.6192 73.9421 48.6192C73.8696 48.7856 73.8144 48.9592 73.7773 49.1374C73.6712 49.7292 73.9026 50.32 74.0899 50.8899C74.2674 51.4311 74.4085 51.9839 74.512 52.5447C74.643 53.163 74.7062 53.8113 74.547 54.4066Z" fill="#965D7B"/>
<g opacity="0.1">
<path opacity="0.1" d="M73.9579 48.6215C74.0478 48.4202 74.1273 48.2141 74.196 48.0043C74.2107 47.9548 74.2243 47.9052 74.2355 47.8546C74.1203 48.1011 74.0274 48.3578 73.9579 48.6215Z" fill="black"/>
<path opacity="0.1" d="M71.9242 44.9562C72.1748 45.3708 72.15 45.8774 72.0258 46.3645C72.0349 46.3392 72.045 46.315 72.054 46.2897C72.2696 45.7139 72.3926 45.023 72.0766 44.491C71.931 44.2515 71.7053 44.0673 71.5755 43.8185C71.4928 43.654 71.4539 43.4701 71.4626 43.2854C71.2719 43.5272 71.2584 43.9602 71.4288 44.2849C71.5529 44.5336 71.7787 44.7167 71.9242 44.9562Z" fill="black"/>
<path opacity="0.1" d="M73.5777 56.1489C73.572 56.1742 73.5675 56.1995 73.563 56.226C73.8113 55.6883 74.2492 55.2323 74.4659 54.6749C74.5115 54.5581 74.5474 54.4375 74.5731 54.3145C74.283 54.949 73.7334 55.4637 73.5777 56.1489Z" fill="black"/>
<path opacity="0.1" d="M74.1724 63.0475C73.9399 63.6325 73.4557 64.2278 72.8383 64.1726C72.0923 64.1069 71.7311 63.1742 71.0506 62.8552C70.4727 62.5846 69.7459 62.7942 69.194 62.4844C69.1155 62.6256 69.0524 62.775 69.0055 62.9301C69.5619 63.2755 70.3079 63.0452 70.8982 63.3204C71.5754 63.6394 71.9399 64.5733 72.6859 64.6389C73.3033 64.693 73.7875 64.0977 74.02 63.5127C74.0823 63.3549 74.1354 63.1934 74.1791 63.0291L74.1724 63.0475Z" fill="black"/>
<path opacity="0.1" d="M69.9715 59.3362C70.0539 59.8406 70.1352 60.3645 70.0381 60.8608C70.076 60.7778 70.1088 60.6924 70.1363 60.6052C70.3101 60.049 70.2176 59.4468 70.1239 58.871C69.9832 58.0051 69.8418 57.1388 69.6996 56.2721C69.6081 55.709 69.5178 55.1206 69.6341 54.5713C69.5955 54.6555 69.5619 54.742 69.5336 54.8304C69.3418 55.4418 69.4445 56.104 69.5472 56.7373C69.6894 57.6047 69.8308 58.4711 69.9715 59.3362Z" fill="black"/>
<path opacity="0.1" d="M72.01 50.7518C72.2278 49.8605 71.5585 48.9865 71.5461 48.0688C71.548 47.8553 71.578 47.6431 71.6353 47.4377C71.4878 47.7847 71.4062 48.1571 71.3949 48.5351C71.4028 49.4103 72.0134 50.2451 71.8813 51.0949C71.9366 50.9858 71.9798 50.8707 72.01 50.7518V50.7518Z" fill="black"/>
</g>
<path d="M96.3873 63.6452C95.1198 67.9391 92.2791 69.595 92.2791 69.595C92.2791 69.595 89.1855 72.4933 88.5253 73.9972C87.865 75.5011 85.8888 75.0842 85.0784 73.9972C84.2681 72.9102 81.7309 73.3259 81.7309 73.3259L77.8755 73.6356C77.8755 73.6356 70.8893 74.581 68.544 72.9252C66.1987 71.2693 64.639 71.2566 64.639 71.2566C64.639 71.2566 62.8129 72.0834 60.735 72.1882C59.748 72.2553 58.7672 72.3969 57.8006 72.6119C57.2623 72.7271 56.7916 72.8422 56.4542 72.924C56.1167 73.0058 55.9158 73.0668 55.9158 73.0668L50.7512 72.5359L45.8733 72.0327L43.2368 71.6689L42.5449 70.1328L41.879 68.6565L41.6533 68.1522L41.9693 62.8771H50.2873C50.2873 62.8771 58.962 63.3377 60.0759 63.3377H60.3287C60.3287 63.3377 61.7158 62.7712 63.9799 64.1645C64.2685 64.3297 64.5706 64.4691 64.8828 64.5813C68.4808 65.9528 78.59 67.7353 78.59 67.7353L85.136 67.3208C85.136 67.3208 88.8165 65.9528 90.892 65.0512C91.5839 64.7495 92.0985 64.4996 92.2362 64.3718C92.7858 63.8524 97.6547 59.35 96.3873 63.6452Z" fill="#FFC1C7"/>
<path opacity="0.1" d="M44.8281 68.0624L45.2288 69.5179L43.8586 70.2755L42.546 70.1282L41.8801 68.6519L41.6544 68.1476L41.9704 62.8725H50.2828C48.5481 63.0314 44.8281 68.0624 44.8281 68.0624Z" fill="black"/>
<path d="M44.6756 68.0623L45.0762 69.5178L43.7072 70.2755L40.2457 69.8875L38.3812 68.3548C35.3339 63.3101 31.6489 63.2882 31.6489 63.2882C31.6489 63.2882 32.106 62.6077 32.0868 61.987C32.0676 61.3663 32.7572 59.775 32.7572 59.775L32.8227 59.7427C33.0552 59.6276 33.8441 59.2291 33.8938 59.2119C33.8938 59.2119 49.5445 61.7924 49.8492 61.8903C49.9278 61.9236 49.9923 61.9844 50.0309 62.0618C50.2081 62.3451 50.2871 62.8679 50.2871 62.8679C48.6348 62.7124 44.6756 68.0623 44.6756 68.0623Z" fill="#565988"/>
<path d="M63.1693 46.5177C62.7095 46.5078 62.2496 46.5375 61.7947 46.6064C61.0374 46.7319 60.3117 47.0255 60.6333 47.7083C61.2416 49.0015 57.3874 51.278 57.3874 51.278L52.0106 54.797L48.6631 49.6221L50.3888 45.4307L55.2057 42.9469L57.8445 41.6549C57.8445 41.6549 58.8896 42.0429 59.8083 42.0211C60.2327 42.0118 60.6311 41.9151 60.8873 41.6549C61.6976 40.8269 63.1693 46.5177 63.1693 46.5177Z" fill="#FFC1C7"/>
<path opacity="0.1" d="M63.1694 46.5177C62.7096 46.5079 62.2497 46.5375 61.7948 46.6064C61.169 46.158 60.6584 45.5622 60.3063 44.8696C59.9543 44.1771 59.771 43.4081 59.7722 42.6279C59.7717 42.425 59.7837 42.2224 59.8084 42.0211C60.2327 42.0118 60.6311 41.9151 60.8873 41.6549C61.6977 40.8269 63.1694 46.5177 63.1694 46.5177Z" fill="black"/>
<path d="M69.6094 42.6279C69.6095 43.2666 69.4863 43.8992 69.2469 44.4893C69.0075 45.0795 68.6564 45.6158 68.2138 46.0676C67.7713 46.5193 67.2458 46.8777 66.6674 47.1223C66.0891 47.3669 65.4692 47.4928 64.8432 47.493C64.6223 47.4931 64.4016 47.4773 64.1829 47.4458C62.9863 47.2766 61.8972 46.6501 61.1359 45.6931C60.3745 44.7361 59.9977 43.5199 60.0816 42.2903C60.1654 41.0607 60.7037 39.9094 61.5876 39.0692C62.4715 38.229 63.6351 37.7625 64.8432 37.764C65.0256 37.7645 65.208 37.7748 65.3894 37.795C66.5513 37.9326 67.6231 38.5008 68.4011 39.3919C69.1791 40.2829 69.6091 41.4346 69.6094 42.6279V42.6279Z" fill="#FFC1C7"/>
<path opacity="0.1" d="M90.9099 65.1456C90.9099 65.7628 87.6945 67.0168 84.9214 67.984C82.9764 68.6457 80.9313 68.9487 78.8821 68.8787C78.7165 68.87 78.5504 68.8852 78.3889 68.9237C77.6282 69.1298 67.7392 66.7496 67.7392 66.7496C67.7392 66.7496 65.7201 65.7939 64.8849 64.579C68.483 65.9505 78.5921 67.733 78.5921 67.733L85.1381 67.3185C85.1381 67.3185 88.8186 65.9505 90.8941 65.0488C90.908 65.079 90.9134 65.1125 90.9099 65.1456V65.1456Z" fill="black"/>
<path d="M61.0892 48.1851C61.0892 48.1851 61.7991 50.0885 62.7122 50.5537C63.6252 51.0189 65.4502 52.8821 65.299 55.314C65.299 55.314 64.9942 55.9877 65.9581 57.3868C66.9219 58.7858 69.2548 61.8362 69.2548 61.8362C69.2548 61.8362 74.021 63.5439 75.5424 64.5791H75.548C76.7443 64.7544 77.92 65.0534 79.0569 65.4715C79.707 65.7018 80.5027 65.924 81.2228 65.924C82.795 65.924 90.9098 63.7511 90.9098 64.837C90.9098 65.4554 87.6943 66.7094 84.9202 67.6766C82.9752 68.3367 80.9306 68.6385 78.882 68.5679C78.7164 68.5598 78.5504 68.5749 78.3888 68.6128C77.6281 68.8189 67.7379 66.4388 67.7379 66.4388C67.7379 66.4388 65.6534 65.4565 64.8419 64.2094C64.0304 62.9624 61.9526 61.3687 61.9526 61.3687C61.9526 61.3687 59.6705 57.4363 59.4696 56.5047C59.4696 56.5047 58.3037 55.8322 55.2598 56.8663C52.2159 57.9003 54.5973 54.5368 54.5973 54.5368L57.9956 50.5065L61.0892 48.1851Z" fill="#FFC1C7"/>
<path opacity="0.1" d="M62.0532 49.6233L60.9934 46.9933C60.006 47.6328 59.0865 48.3752 58.2497 49.2088C56.9811 50.5019 56.1188 51.2815 55.5105 51.4335C54.9022 51.5855 52.8232 52.6656 51.9609 50.4455C51.0987 48.2254 51.4531 46.725 52.2646 46.0007C53.076 45.2764 58.5668 41.8702 58.5668 41.8702L57.8456 41.8138C57.8456 41.8138 52.8255 43.6067 51.2533 42.788C51.2533 42.788 48.4633 43.2635 47.855 42.2283C47.2467 41.1931 46.6722 41.0296 46.6722 41.0296L42.9861 46.1089L44.3055 57.3372H47.7026L51.3537 55.8886L56.2227 55.4741C56.2227 55.4741 58.0488 53.7146 58.3027 52.8867C58.5567 52.0587 60.4855 49.3642 62.0532 49.6233Z" fill="black"/>
<path d="M62.0532 49.4701L60.9934 46.8401C60.006 47.4796 59.0865 48.2221 58.2497 49.0556C56.9811 50.3499 56.1188 51.1283 55.5105 51.2803C54.9022 51.4323 52.8232 52.5124 51.9609 50.2923C51.0987 48.0722 51.4531 46.5718 52.2646 45.8475C53.076 45.1232 58.5668 41.8702 58.5668 41.8702L57.8456 41.6595C57.8456 41.6595 52.8255 43.4512 51.2533 42.6325C51.2533 42.6325 48.4633 43.1081 47.855 42.0729C47.2467 41.0377 46.6722 40.8742 46.6722 40.8742L42.9861 45.9535L44.3055 57.1818H47.7026L51.3537 55.7332L56.2227 55.3186C56.2227 55.3186 58.0488 53.5603 58.3027 52.7324C58.5567 51.9044 60.4855 49.2088 62.0532 49.4701Z" fill="#565988"/>
<path opacity="0.1" d="M50.031 62.0642C49.9723 62.3497 49.9249 62.5328 49.9249 62.5328C49.9249 62.5328 49.7161 62.4545 47.1496 62.96C44.5831 63.4655 42.0335 62.96 42.0335 62.96C40.5429 62.7837 39.0676 62.4915 37.6206 62.086C35.4153 61.4458 32.5237 60.6881 32.7675 59.8982C32.7833 59.8521 32.7991 59.8003 32.8183 59.7496C33.0508 59.6345 33.8397 59.2361 33.8894 59.2188C33.8894 59.2188 49.54 61.7993 49.8448 61.8972C49.9244 61.9284 49.9904 61.9876 50.031 62.0642V62.0642Z" fill="black"/>
<path opacity="0.1" d="M60.9933 46.9933L61.8736 49.0234C61.8736 49.0234 60.5193 48.2898 58.788 51.2976C57.0567 54.3053 56.8287 54.7325 56.8287 54.7325C56.8287 54.7325 55.612 55.58 55.9167 56.6601C55.9167 56.6601 52.3119 57.9268 49.935 57.0896C49.935 57.0896 49.4023 58.7294 49.4599 59.836C49.4954 60.4268 49.4984 61.0193 49.4689 61.6105C49.4689 61.6105 50.1461 61.0865 47.5773 61.592C45.0086 62.0975 42.4612 61.9501 42.4612 61.9501C41.0597 61.7169 39.6723 61.4028 38.3056 61.0094C36.0992 60.3691 32.676 60.5338 32.9232 59.7427C33.1704 58.9516 33.9886 57.4535 33.9886 57.4535C33.9886 57.4535 34.5778 57.1081 34.5529 56.7741C34.5281 56.4402 35.6375 55.4741 35.6375 55.4741C35.6375 55.4741 36.3215 54.8926 36.2267 54.4066C36.1319 53.9207 36.8926 53.1262 36.8926 53.1262L38.3384 50.2359C38.3384 50.2359 39.555 47.5379 40.3925 47.4216C41.2299 47.3053 42.7694 44.8215 42.7694 44.8215C42.7694 44.8215 45.5074 42.5715 45.5266 42.1051C45.5458 41.6388 46.8956 40.8051 46.8956 40.8051C46.8956 40.8051 47.1134 42.7097 48.9271 42.788C50.7409 42.8663 53.1369 42.788 53.1369 42.788L57.8422 41.6595C57.8422 41.6595 55.7813 43.5606 55.305 43.6965C54.8287 43.8324 53.3976 44.8802 52.6685 45.0783C51.9395 45.2764 50.4576 46.292 50.5151 47.7429C50.5727 49.1938 51.067 49.9307 51.067 49.9307C51.067 49.9307 52.55 52.8095 54.0331 52.4641C54.0331 52.4641 55.6899 52.555 56.3535 51.5521C57.0172 50.5491 60.9933 46.9933 60.9933 46.9933Z" fill="black"/>
<path opacity="0.1" d="M57.9957 41.4994L57.867 41.5996L57.7192 41.7148L55.2068 42.9457L51.7589 43.9303L49.5773 44.1882L45.8754 41.5708C45.8754 41.5708 46.3031 41.1632 46.9318 40.6496C47.0333 41.1102 47.4475 42.4045 48.9306 42.4679C50.742 42.5473 53.1403 42.4679 53.1403 42.4679L57.9009 41.5133L57.9957 41.4994Z" fill="black"/>
<path d="M60.9934 46.8378L61.8737 49.0257C61.8737 49.0257 60.367 48.1379 58.6357 51.1456C56.9043 54.1533 56.6775 54.5794 56.6775 54.5794C56.6775 54.5794 55.6121 55.5823 55.9168 56.6625C55.9168 56.6625 52.6257 58.3632 50.2488 57.5284C50.2488 57.5284 50.1924 58.5382 50.2488 59.6437C50.3053 60.7491 49.926 62.2242 49.926 62.2242C49.926 62.2242 49.7161 62.1471 47.1485 62.6514C44.5808 63.1558 42.0335 62.6514 42.0335 62.6514C40.5429 62.4758 39.0676 62.184 37.6206 61.7786C35.4153 61.1384 32.5237 60.3807 32.7675 59.5907C33.0113 58.8008 33.8329 57.3004 33.8329 57.3004C33.8329 57.3004 34.4221 56.9549 34.404 56.621C34.386 56.2871 35.4875 55.3209 35.4875 55.3209C35.4875 55.3209 36.1726 54.7452 36.0766 54.2546C35.9807 53.7641 36.7425 52.973 36.7425 52.973L38.1883 50.0827C38.1883 50.0827 39.405 47.3848 40.2424 47.2685C41.0798 47.1522 42.6193 44.6684 42.6193 44.6684C42.6193 44.6684 45.3619 42.4114 45.3799 41.9451C45.398 41.4787 46.7501 40.645 46.7501 40.645C46.7501 40.645 46.9668 42.5496 48.7816 42.6279C50.5964 42.7062 52.9925 42.6279 52.9925 42.6279L57.8456 41.6549C57.8456 41.6549 55.6335 43.4006 55.1584 43.5364C54.6832 43.6723 53.2498 44.7202 52.5207 44.9182C51.7917 45.1163 50.3086 46.1411 50.3651 47.5966C50.4215 49.0521 50.917 49.7845 50.917 49.7845C50.917 49.7845 52.4 52.6564 53.8841 52.3075C53.8841 52.3075 55.5398 52.3973 56.2035 51.3955C56.8671 50.3936 60.9934 46.8378 60.9934 46.8378Z" fill="#E8F4FF"/>
<path opacity="0.1" d="M46.2365 53.8781C46.2365 53.8781 48.0998 57.4098 48.9553 57.7932C49.8108 58.1767 49.6404 57.5215 49.6404 57.5215C49.6404 57.5215 46.5028 54.6519 46.2365 53.8781Z" fill="black"/>
<path opacity="0.1" d="M42.6418 56.5565C42.6418 56.5565 44.468 59.5251 45.8178 59.5251L42.6418 56.5565Z" fill="black"/>
<path opacity="0.1" d="M38.6284 52.889C38.6284 52.889 40.7593 59.7577 44.6767 60.3012C44.6767 60.3012 39.5607 56.4598 38.6284 52.889Z" fill="black"/>
<path opacity="0.1" d="M39.0088 58.8261C39.0088 58.8261 42.5279 61.6784 44.6768 61.2523C44.6768 61.2523 41.0065 60.6121 39.0088 58.8261Z" fill="black"/>
<path opacity="0.1" d="M36.3972 63.72C36.3972 63.72 39.9151 66.5723 42.0652 66.1451C42.0652 66.1451 38.3938 65.5048 36.3972 63.72Z" fill="black"/>
<path opacity="0.1" d="M37.317 65.339C37.317 65.339 40.8349 68.1913 42.9838 67.7652C42.9838 67.7652 39.3136 67.125 37.317 65.339Z" fill="black"/>
<path opacity="0.1" d="M37.8486 62.7124C37.8486 62.7124 41.3666 65.5613 43.5155 65.1306C43.5155 65.1306 39.8452 64.4938 37.8486 62.7124Z" fill="black"/>
<path opacity="0.1" d="M54.0523 45.8256L51.8469 48.717L52.1505 49.2986L54.0523 45.8256Z" fill="black"/>
<path opacity="0.1" d="M69.6093 42.6279C69.6095 43.2666 69.4863 43.8992 69.2469 44.4893C69.0074 45.0795 68.6564 45.6158 68.2138 46.0676C67.7712 46.5193 67.2458 46.8777 66.6674 47.1223C66.0891 47.3669 65.4692 47.4928 64.8431 47.493C64.6222 47.4931 64.4016 47.4773 64.1829 47.4458C64.2532 47.3639 64.3121 47.2724 64.3578 47.174C64.4989 46.7722 63.9064 46.353 64.0926 45.9684C64.1885 45.7634 64.447 45.7116 64.6693 45.7059C64.8917 45.7001 65.1388 45.7059 65.3002 45.5493C65.4865 45.3662 65.4605 45.0645 65.5079 44.8054C65.5824 44.4116 65.8533 44.0834 66.1478 43.8151C66.4424 43.5468 66.772 43.3153 67.0259 43.009C67.4153 42.5369 67.5981 41.9197 67.6467 41.3048C67.6783 40.9075 67.6467 40.4849 67.4412 40.1533C67.2155 39.7975 66.8284 39.5971 66.474 39.3783C66.1444 39.1923 65.8573 38.9368 65.6321 38.6287C65.4876 38.4122 65.3431 38.0748 65.3894 37.8008C66.5503 37.9382 67.6213 38.5057 68.3992 39.3955C69.1771 40.2853 69.6077 41.4355 69.6093 42.6279V42.6279Z" fill="black"/>
<path d="M72.2232 42.8663C72.2045 42.947 72.1745 43.0246 72.134 43.0966C72.1227 43.1173 72.1092 43.1392 72.0968 43.1611L72.0279 43.2681C71.9194 43.4066 71.8475 43.5711 71.8191 43.746C71.8056 43.959 71.9196 44.1537 71.9941 44.3563L72.0065 44.392C72.0167 44.4207 72.0254 44.4499 72.0325 44.4795C72.0785 44.6798 72.0631 44.8896 71.9884 45.0806V45.0806C71.9068 45.2938 71.7861 45.4892 71.6329 45.6564C71.3451 45.973 70.9828 46.2125 70.6928 46.5258C70.4761 46.7561 70.3011 47.029 70.0867 47.2616C69.5788 47.8097 68.8678 48.1241 68.1443 48.2737C67.578 48.3779 67.0031 48.4253 66.4277 48.4154H65.9367C65.8599 48.4201 65.7829 48.4079 65.711 48.3797C65.6281 48.3229 65.5565 48.2506 65.5 48.1667C65.2043 47.8212 64.7099 47.7556 64.2585 47.7164C64.2538 47.6725 64.258 47.6281 64.2708 47.5859C64.2836 47.5437 64.3048 47.5046 64.333 47.4712C64.406 47.3829 64.4681 47.2858 64.5181 47.1821C64.6603 46.7791 64.0666 46.3611 64.254 45.9742C64.2713 45.9378 64.295 45.905 64.3239 45.8775C64.3428 45.8581 64.3636 45.8407 64.386 45.8256C64.5217 45.7479 64.6751 45.7082 64.8307 45.7105C64.9142 45.7105 65.0011 45.7105 65.0858 45.7001C65.2201 45.6947 65.3488 45.6437 65.4514 45.555V45.555C65.6377 45.3743 65.6117 45.0714 65.6591 44.8135C65.7336 44.4173 66.0045 44.0903 66.299 43.8232C66.5936 43.556 66.9232 43.3234 67.1771 43.0171C67.5665 42.5461 67.7493 41.9266 67.7979 41.314C67.8295 40.9168 67.7979 40.493 67.5924 40.1625C67.3961 39.8516 67.0733 39.6593 66.7584 39.4716L66.6252 39.391C66.3806 39.2471 66.1562 39.0701 65.9582 38.8648C65.8966 38.7883 65.8404 38.7075 65.79 38.623C65.649 38.4111 65.509 38.0852 65.544 37.8169C65.5453 37.799 65.5484 37.7813 65.553 37.7639C65.6196 37.468 65.9063 37.4645 66.1783 37.4277C66.2516 37.4185 66.3239 37.4104 66.3972 37.4058C66.5055 37.3995 66.614 37.3995 66.7223 37.4058C67.1861 37.4235 67.6395 37.5504 68.0473 37.7766C68.1985 37.8607 68.343 37.9585 68.4987 38.0311C68.8689 38.2004 69.2888 38.2222 69.6702 38.3466C70.4422 38.593 71.0415 39.2379 71.4219 39.9656C71.8022 40.6934 71.9918 41.5052 72.178 42.3066C72.2333 42.4875 72.2487 42.6786 72.2232 42.8663V42.8663Z" fill="#965D7B"/>
<path opacity="0.1" d="M57.8017 72.6073C57.7781 72.712 57.7401 72.8128 57.6888 72.9067C57.6888 72.9067 57.1854 72.9251 56.4473 72.9194C55.4395 72.9113 53.9993 72.8583 52.8357 72.6488C52.1419 72.5468 51.4404 72.5082 50.7399 72.5336L45.8619 72.0304L43.2254 71.6665L41.8711 68.6542C42.6544 68.698 43.3293 68.6669 43.3293 68.6669C44.827 67.2183 46.2208 67.4509 46.9815 68.0796C47.7422 68.7083 49.1632 69.2092 49.2636 69.2092C49.3313 69.2092 51.5739 69.2576 53.0163 69.2875C54.1336 69.3045 55.2294 69.6036 56.2058 70.1581C57.8897 71.1184 57.9145 72.1225 57.8017 72.6073Z" fill="black"/>
<path d="M32.7562 62.8737L31.649 63.2882C31.649 63.2882 28.5814 61.1349 24.0928 62.1436C19.6043 63.1523 19.909 65.8434 19.909 65.8434C19.909 65.8434 20.0862 69.1413 21.3762 70.2732C22.6663 71.4052 23.4811 71.457 24.2159 72.3114C24.9506 73.1658 28.7552 73.5527 28.7552 73.5527C28.7552 73.5527 36.2865 73.9408 40.344 73.5527C44.4014 73.1647 46.2331 73.1647 46.2331 73.1647C46.2331 73.1647 50.689 72.5958 52.6923 72.9574C54.6956 73.319 57.5364 73.2165 57.5364 73.2165C57.5364 73.2165 58.3738 71.8025 56.059 70.4656C55.0829 69.9104 53.9869 69.6113 52.8695 69.595C51.4282 69.5639 49.1856 69.5167 49.1168 69.5167C49.0152 69.5167 47.5954 69.0158 46.8347 68.3871C46.074 67.7584 44.6802 67.5246 43.1836 68.9732C43.1836 68.9732 39.862 69.1287 39.4049 68.2754C38.9478 67.4221 36.5901 64.7437 36.5901 64.7437L32.7562 62.8737Z" fill="#FFC1C7"/>
<path opacity="0.1" d="M38.2674 67.9564C38.2674 67.9564 38.2425 68.4251 39.2696 68.3479C40.2199 68.2754 36.4548 64.8163 36.4548 64.8163L32.6174 62.9451L31.5103 63.3608C31.5103 63.3608 35.2246 62.9117 38.2674 67.9564Z" fill="black"/>
<path d="M38.4197 67.8009C38.4197 67.8009 38.3949 68.2696 39.422 68.1925C40.3723 68.1211 36.6072 64.6608 36.6072 64.6608L32.7698 62.7896L31.6615 63.2053C31.6615 63.2053 35.3769 62.7562 38.4197 67.8009Z" fill="#565988"/>
<path opacity="0.1" d="M27.516 64.6021C27.516 64.6021 28.6062 64.0332 30.2044 64.7449C30.775 64.9956 31.3627 65.2038 31.9628 65.3678C32.9251 65.6329 33.8488 66.0266 34.7099 66.5389C35.8227 67.1987 37.3328 67.991 38.1725 67.991" stroke="black" stroke-miterlimit="10"/>
<path opacity="0.1" d="M66.2416 48.4061C66.1646 48.4115 66.0875 48.3993 66.0158 48.3704C65.9324 48.3143 65.8607 48.2419 65.8048 48.1574C65.5091 47.8119 65.0091 47.7463 64.5633 47.7083C64.5272 47.508 64.754 47.3629 64.8217 47.174C64.9651 46.771 64.3703 46.353 64.5577 45.9672C64.6547 45.7634 64.9132 45.7116 65.1355 45.7058C65.3578 45.7001 65.605 45.7059 65.7653 45.5481C65.9515 45.3662 65.9255 45.0633 65.9741 44.8054C66.0474 44.4104 66.3183 44.0822 66.6129 43.8151C66.9074 43.5479 67.2381 43.3153 67.4921 43.009C67.8803 42.5381 68.0632 41.9197 68.1128 41.306C68.1444 40.9075 68.1128 40.4849 67.9063 40.1487C67.6806 39.794 67.2934 39.5937 66.939 39.3737C66.6094 39.1877 66.3224 38.9322 66.0971 38.6241C65.9481 38.4007 65.7969 38.0484 65.8601 37.7662C65.9233 37.4841 66.2145 37.4669 66.4865 37.43C66.5666 37.4185 66.6456 37.4116 66.7269 37.407C66.5448 37.3985 66.3624 37.4062 66.1817 37.43C65.9097 37.4669 65.6174 37.4703 65.5554 37.7662C65.4933 38.0622 65.6434 38.4007 65.7935 38.6241C66.0188 38.9322 66.3058 39.1877 66.6354 39.3737C66.9797 39.5914 67.3702 39.7975 67.5959 40.1429C67.807 40.4792 67.834 40.9018 67.8024 41.3002C67.7528 41.914 67.5767 42.5323 67.1817 43.0033C66.9278 43.3119 66.5982 43.5433 66.3036 43.8093C66.0091 44.0753 65.7393 44.4047 65.6637 44.7996C65.6152 45.0576 65.6411 45.3604 65.456 45.5423C65.2958 45.6989 65.0475 45.6943 64.8251 45.7001C64.6028 45.7059 64.3443 45.7577 64.2473 45.9615C64.0644 46.3472 64.6547 46.7675 64.5125 47.1683C64.4437 47.3594 64.2179 47.5022 64.2529 47.7026C64.7044 47.7406 65.2032 47.8027 65.4944 48.1516C65.5497 48.2367 65.6215 48.3092 65.7055 48.3647C65.7771 48.3938 65.8543 48.406 65.9312 48.4004C66.0948 48.4004 66.2596 48.4004 66.4244 48.4004L66.2416 48.4061Z" fill="black"/>
<path d="M72.0528 45.2545C72.0979 45.1071 72.1487 44.9424 72.1984 44.7674C72.3443 44.3043 72.4548 43.8304 72.5291 43.3499C72.3912 43.2713 72.246 43.2068 72.0956 43.1576C72.1081 43.1357 72.1216 43.1138 72.1329 43.0931L72.0313 43.1357C72.0313 43.1357 72.0313 43.1841 72.0313 43.2647C72.0234 43.4835 72.0076 43.9464 71.9975 44.3529C71.9975 44.3598 71.9975 44.3655 71.9975 44.3713C71.9896 44.6926 71.985 44.977 71.9975 45.0783L72.0528 45.2545Z" fill="#565988"/>
<path opacity="0.1" d="M104.563 70.8306C107.276 70.8306 109.475 70.5223 109.475 70.142C109.475 69.7617 107.276 69.4534 104.563 69.4534C101.85 69.4534 99.6512 69.7617 99.6512 70.142C99.6512 70.5223 101.85 70.8306 104.563 70.8306Z" fill="#6C63FF"/>
<path d="M106.555 69.2841C106.762 69.0883 106.955 68.858 107.014 68.5771C107.074 68.2961 106.956 67.9587 106.693 67.8562C106.398 67.7411 106.083 67.9506 105.845 68.1602C105.607 68.3698 105.333 68.6116 105.02 68.5667C105.18 68.4178 105.3 68.2291 105.367 68.019C105.435 67.809 105.448 67.5847 105.405 67.368C105.39 67.2775 105.351 67.193 105.292 67.1239C105.128 66.9454 104.832 67.0225 104.636 67.163C104.013 67.6098 103.839 68.4734 103.836 69.2507C103.773 68.9697 103.826 68.6749 103.825 68.3905C103.824 68.1061 103.746 67.7837 103.508 67.6294C103.359 67.5483 103.193 67.5086 103.025 67.5142C102.745 67.5039 102.433 67.5315 102.241 67.7445C102.004 68.0036 102.065 68.4354 102.273 68.7256C102.481 69.0158 102.793 69.1862 103.083 69.3877C103.315 69.5292 103.513 69.722 103.662 69.952C103.68 69.984 103.694 70.0175 103.705 70.0521H105.461C105.859 69.8484 106.227 69.5899 106.555 69.2841Z" fill="#6C63FF"/>
<path opacity="0.1" d="M120.268 73.7865C122.981 73.7865 125.18 73.4782 125.18 73.0979C125.18 72.7176 122.981 72.4093 120.268 72.4093C117.555 72.4093 115.356 72.7176 115.356 73.0979C115.356 73.4782 117.555 73.7865 120.268 73.7865Z" fill="#6C63FF"/>
<path d="M122.26 72.24C122.466 72.0443 122.659 71.814 122.719 71.533C122.779 71.252 122.66 70.9146 122.398 70.8122C122.103 70.697 121.788 70.9054 121.55 71.1162C121.312 71.3269 121.038 71.5675 120.725 71.5226C120.886 71.3739 121.006 71.1852 121.074 70.9749C121.142 70.7646 121.156 70.5399 121.113 70.3228C121.098 70.2327 121.059 70.1486 121 70.0798C120.837 69.9013 120.54 69.9773 120.345 70.1189C119.722 70.5657 119.548 71.4294 119.544 72.2055C119.481 71.9257 119.534 71.6297 119.533 71.3465C119.532 71.0632 119.454 70.7396 119.216 70.5853C119.068 70.5042 118.901 70.4645 118.733 70.4702C118.453 70.4598 118.141 70.4886 117.95 70.7005C117.713 70.9595 117.774 71.3914 117.981 71.6815C118.189 71.9717 118.502 72.1421 118.792 72.3437C119.024 72.4849 119.222 72.6778 119.371 72.9079C119.388 72.9397 119.403 72.9733 119.413 73.0081H121.17C121.565 72.8036 121.932 72.5452 122.26 72.24V72.24Z" fill="#6C63FF"/>
<path opacity="0.1" d="M110.443 80.0012C113.156 80.0012 115.355 79.6929 115.355 79.3126C115.355 78.9323 113.156 78.624 110.443 78.624C107.73 78.624 105.531 78.9323 105.531 79.3126C105.531 79.6929 107.73 80.0012 110.443 80.0012Z" fill="#6C63FF"/>
<path d="M112.435 78.4547C112.642 78.2589 112.835 78.0286 112.894 77.7476C112.954 77.4667 112.837 77.1304 112.574 77.028C112.278 76.9128 111.963 77.1212 111.725 77.3308C111.487 77.5404 111.213 77.7822 110.9 77.7373C111.061 77.5887 111.181 77.4002 111.249 77.1901C111.317 76.98 111.331 76.7556 111.288 76.5386C111.274 76.4481 111.235 76.3636 111.176 76.2944C111.012 76.116 110.716 76.1931 110.52 76.3336C109.897 76.7804 109.723 77.644 109.72 78.4213C109.656 78.1403 109.709 77.8455 109.708 77.5611C109.707 77.2767 109.629 76.9543 109.391 76.8C109.243 76.7189 109.077 76.6792 108.909 76.6848C108.628 76.6744 108.317 76.7032 108.126 76.9151C107.888 77.1753 107.95 77.606 108.156 77.8962C108.363 78.1864 108.678 78.3568 108.967 78.5583C109.199 78.6995 109.397 78.8924 109.546 79.1225C109.564 79.1541 109.578 79.1877 109.589 79.2227H111.345C111.741 79.0187 112.108 78.7603 112.435 78.4547V78.4547Z" fill="#6C63FF"/>
<path opacity="0.1" d="M10.8246 69.7067C13.5373 69.7067 15.7364 69.3984 15.7364 69.0181C15.7364 68.6378 13.5373 68.3295 10.8246 68.3295C8.11193 68.3295 5.91284 68.6378 5.91284 69.0181C5.91284 69.3984 8.11193 69.7067 10.8246 69.7067Z" fill="#6C63FF"/>
<path d="M10.8156 68.1602C11.0221 67.9645 11.2162 67.7342 11.2749 67.4532C11.3336 67.1722 11.2174 66.8348 10.9544 66.7324C10.6598 66.6172 10.3449 66.8256 10.1057 67.0363C9.86641 67.2471 9.59328 67.4877 9.28065 67.4428C9.44163 67.2942 9.56204 67.1055 9.6301 66.8952C9.69815 66.6849 9.71152 66.4601 9.6689 66.243C9.65357 66.153 9.61456 66.069 9.55604 66C9.39238 65.8215 9.09556 65.8975 8.89917 66.0392C8.27617 66.4859 8.10236 67.3496 8.09898 68.1257C8.0369 67.8459 8.08995 67.5499 8.08769 67.2666C8.08543 66.9834 8.00869 66.6598 7.77167 66.5055C7.62337 66.4245 7.45676 66.3848 7.28862 66.3904C7.00872 66.38 6.69609 66.4088 6.50535 66.6207C6.26721 66.8797 6.32929 67.3116 6.53583 67.6017C6.74237 67.8919 7.05725 68.0623 7.34731 68.2638C7.57947 68.4051 7.77738 68.5979 7.9263 68.8281C7.9435 68.8601 7.95785 68.8936 7.96918 68.9283H9.72872C10.1234 68.7235 10.489 68.4652 10.8156 68.1602V68.1602Z" fill="#6C63FF"/>
<path opacity="0.1" d="M5.91179 79.4726C8.6245 79.4726 10.8236 79.1643 10.8236 78.784C10.8236 78.4037 8.6245 78.0954 5.91179 78.0954C3.19908 78.0954 1 78.4037 1 78.784C1 79.1643 3.19908 79.4726 5.91179 79.4726Z" fill="#6C63FF"/>
<path d="M5.90379 77.9261C6.11033 77.7304 6.30332 77.5001 6.36314 77.2191C6.42296 76.9381 6.30558 76.6007 6.04261 76.4983C5.74691 76.3831 5.43202 76.5915 5.19388 76.8022C4.95574 77.013 4.68148 77.2536 4.36885 77.2087C4.53066 77.0606 4.65201 76.8722 4.72106 76.6619C4.7901 76.4515 4.80446 76.2265 4.76274 76.0089C4.74781 75.9188 4.70875 75.8347 4.64988 75.7659C4.48623 75.5874 4.19053 75.6634 3.99415 75.8051C3.37114 76.2518 3.19733 77.1155 3.19395 77.8927C3.13075 77.6118 3.18379 77.317 3.18266 77.0325C3.18153 76.7481 3.10366 76.4257 2.86552 76.2714C2.71782 76.1899 2.55143 76.1501 2.38359 76.1563C2.10256 76.1447 1.79106 76.1735 1.60032 76.3866C1.36218 76.6456 1.42426 77.0775 1.6308 77.3676C1.83734 77.6578 2.15222 77.8282 2.44115 78.0297C2.67355 78.1706 2.87153 78.3636 3.02014 78.594C3.03828 78.6255 3.05268 78.6591 3.06303 78.6942H4.81805C5.2123 78.4893 5.57753 78.231 5.90379 77.9261Z" fill="#6C63FF"/>
<defs>
<linearGradient id="paint0_linear" x1="58.2507" y1="75.3341" x2="58.2507" y2="30.9413" gradientUnits="userSpaceOnUse">
<stop stop-color="#808080" stop-opacity="0.25"/>
<stop offset="0.54" stop-color="#808080" stop-opacity="0.12"/>
<stop offset="1" stop-color="#808080" stop-opacity="0.1"/>
</linearGradient>
</defs>
</svg>
