<svg width="827" height="823" viewBox="0 0 827 823" fill="none" xmlns="http://www.w3.org/2000/svg">
<path d="M245.751 728.419C-35.528 566.629 -18.8504 175.394 24.6484 0H827V747.19C750.45 808.346 527.03 890.21 245.751 728.419Z" fill="#6C63FF"/>
<path opacity="0.5" d="M696.93 629.301C696.224 629.269 695.555 628.98 695.049 628.488C694.542 627.996 694.234 627.336 694.182 626.632C694.175 626.522 694.155 626.414 694.122 626.309C694.026 626.012 693.837 625.754 693.583 625.573C693.328 625.393 693.022 625.299 692.71 625.307C692.398 625.314 692.096 625.422 691.851 625.614C691.605 625.807 691.427 626.073 691.345 626.374C691.319 626.479 691.305 626.587 691.303 626.695C691.27 627.401 690.981 628.07 690.488 628.576C689.995 629.082 689.334 629.391 688.63 629.443C688.52 629.45 688.412 629.471 688.307 629.503C688.009 629.599 687.751 629.788 687.57 630.043C687.389 630.297 687.295 630.603 687.303 630.915C687.31 631.227 687.417 631.528 687.61 631.774C687.802 632.019 688.069 632.196 688.37 632.278C688.475 632.304 688.583 632.318 688.692 632.32C689.397 632.352 690.066 632.641 690.573 633.133C691.079 633.625 691.387 634.285 691.44 634.989C691.447 635.099 691.467 635.208 691.499 635.312C691.585 635.619 691.77 635.889 692.025 636.08C692.28 636.271 692.591 636.373 692.91 636.37C693.229 636.366 693.538 636.257 693.789 636.06C694.039 635.864 694.218 635.59 694.298 635.281C694.324 635.176 694.339 635.068 694.34 634.96C694.373 634.255 694.663 633.586 695.155 633.079C695.648 632.573 696.309 632.264 697.013 632.212C697.123 632.205 697.231 632.184 697.337 632.152C697.634 632.056 697.892 631.867 698.073 631.612C698.254 631.358 698.348 631.052 698.341 630.74C698.333 630.428 698.226 630.127 698.033 629.882C697.841 629.636 697.574 629.459 697.273 629.377C697.162 629.338 697.047 629.312 696.93 629.301Z" fill="#47E6B1"/>
<path opacity="0.5" d="M557.93 679.299C557.224 679.266 556.555 678.977 556.049 678.485C555.542 677.993 555.234 677.333 555.182 676.629C555.175 676.519 555.155 676.411 555.122 676.306C555.026 676.009 554.837 675.751 554.583 675.571C554.328 675.39 554.022 675.296 553.71 675.304C553.398 675.311 553.096 675.419 552.85 675.611C552.605 675.804 552.427 676.07 552.345 676.371C552.319 676.476 552.305 676.584 552.303 676.693C552.27 677.398 551.98 678.067 551.488 678.573C550.995 679.079 550.334 679.388 549.63 679.44C549.52 679.448 549.412 679.468 549.307 679.5C549.009 679.596 548.751 679.786 548.57 680.04C548.389 680.294 548.295 680.6 548.303 680.912C548.31 681.224 548.417 681.525 548.61 681.771C548.802 682.016 549.069 682.193 549.37 682.275C549.475 682.301 549.583 682.316 549.692 682.317C550.397 682.349 551.066 682.639 551.573 683.13C552.079 683.622 552.387 684.283 552.439 684.986C552.447 685.096 552.467 685.205 552.499 685.31C552.595 685.606 552.784 685.864 553.039 686.045C553.293 686.226 553.599 686.319 553.911 686.312C554.223 686.305 554.525 686.197 554.771 686.004C555.017 685.812 555.194 685.545 555.276 685.244C555.302 685.139 555.317 685.031 555.318 684.923C555.351 684.218 555.641 683.549 556.133 683.043C556.626 682.536 557.287 682.228 557.991 682.175C558.101 682.168 558.21 682.148 558.315 682.115C558.612 682.019 558.87 681.83 559.051 681.576C559.232 681.321 559.326 681.015 559.319 680.704C559.312 680.392 559.204 680.091 559.011 679.845C558.819 679.599 558.552 679.422 558.251 679.341C558.146 679.314 558.038 679.3 557.93 679.299Z" fill="#47E6B1"/>
<path opacity="0.5" d="M405.93 632.299C405.224 632.266 404.555 631.977 404.049 631.485C403.542 630.993 403.234 630.333 403.182 629.629C403.175 629.519 403.155 629.411 403.122 629.306C403.026 629.009 402.837 628.751 402.583 628.571C402.328 628.39 402.022 628.296 401.71 628.304C401.398 628.311 401.096 628.419 400.85 628.611C400.605 628.804 400.427 629.07 400.345 629.371C400.319 629.476 400.305 629.584 400.303 629.693C400.27 630.398 399.98 631.067 399.488 631.573C398.995 632.079 398.334 632.388 397.63 632.44C397.52 632.448 397.412 632.468 397.307 632.5C397.009 632.596 396.751 632.786 396.57 633.04C396.389 633.294 396.295 633.6 396.303 633.912C396.31 634.224 396.417 634.525 396.61 634.771C396.802 635.016 397.069 635.193 397.37 635.275C397.475 635.301 397.583 635.316 397.692 635.317C398.397 635.349 399.066 635.639 399.573 636.13C400.079 636.622 400.387 637.283 400.439 637.986C400.447 638.096 400.467 638.205 400.499 638.31C400.595 638.606 400.784 638.864 401.039 639.045C401.293 639.226 401.599 639.319 401.911 639.312C402.223 639.305 402.525 639.197 402.771 639.004C403.017 638.812 403.194 638.545 403.276 638.244C403.302 638.139 403.317 638.031 403.318 637.923C403.351 637.218 403.641 636.549 404.133 636.043C404.626 635.536 405.287 635.228 405.991 635.175C406.101 635.168 406.21 635.148 406.315 635.115C406.612 635.019 406.87 634.83 407.051 634.576C407.232 634.321 407.326 634.015 407.319 633.704C407.312 633.392 407.204 633.091 407.011 632.845C406.819 632.599 406.552 632.422 406.251 632.341C406.146 632.314 406.038 632.3 405.93 632.299Z" fill="#47E6B1"/>
<path opacity="0.5" d="M254.862 651.515C257.289 650.556 258.479 647.814 257.522 645.389C256.564 642.965 253.82 641.777 251.394 642.736C248.967 643.695 247.777 646.437 248.734 648.862C249.692 651.286 252.436 652.474 254.862 651.515Z" fill="#47E6B1"/>
<path opacity="0.5" d="M683.485 387.259C686.094 387.259 688.209 385.146 688.209 382.539C688.209 379.932 686.094 377.819 683.485 377.819C680.876 377.819 678.761 379.932 678.761 382.539C678.761 385.146 680.876 387.259 683.485 387.259Z" fill="#F55F44"/>
<path opacity="0.5" d="M613.724 131.439C616.333 131.439 618.448 129.326 618.448 126.72C618.448 124.113 616.333 122 613.724 122C611.115 122 609 124.113 609 126.72C609 129.326 611.115 131.439 613.724 131.439Z" fill="#47E6B1"/>
<path opacity="0.5" d="M135.091 348.866C135.15 348.162 135.465 347.505 135.976 347.018C136.487 346.531 137.159 346.248 137.864 346.223C137.974 346.22 138.084 346.204 138.19 346.176C138.49 346.092 138.755 345.913 138.945 345.665C139.136 345.418 139.241 345.116 139.246 344.804C139.251 344.491 139.154 344.186 138.972 343.933C138.789 343.68 138.529 343.493 138.232 343.399C138.128 343.368 138.021 343.35 137.912 343.344C137.209 343.284 136.552 342.969 136.065 342.457C135.578 341.945 135.295 341.273 135.27 340.567C135.267 340.457 135.251 340.348 135.222 340.241C135.138 339.941 134.959 339.675 134.712 339.485C134.464 339.294 134.162 339.189 133.85 339.184C133.539 339.179 133.233 339.275 132.981 339.458C132.728 339.64 132.541 339.9 132.447 340.198C132.417 340.302 132.399 340.409 132.393 340.517C132.334 341.221 132.019 341.879 131.507 342.366C130.996 342.853 130.325 343.135 129.619 343.16C129.509 343.163 129.4 343.179 129.294 343.208C128.984 343.281 128.707 343.456 128.507 343.703C128.306 343.951 128.192 344.257 128.183 344.576C128.175 344.895 128.271 345.208 128.458 345.466C128.645 345.724 128.912 345.914 129.218 346.005C129.322 346.036 129.429 346.054 129.537 346.06C130.24 346.12 130.898 346.435 131.385 346.947C131.871 347.459 132.154 348.131 132.18 348.837C132.182 348.947 132.198 349.056 132.227 349.162C132.311 349.463 132.49 349.728 132.738 349.919C132.985 350.11 133.287 350.215 133.599 350.22C133.911 350.225 134.216 350.129 134.469 349.946C134.722 349.764 134.909 349.504 135.002 349.206C135.046 349.097 135.076 348.983 135.091 348.866Z" fill="#47E6B1"/>
<path opacity="0.5" d="M166.091 162.866C166.15 162.162 166.465 161.505 166.976 161.018C167.487 160.531 168.159 160.248 168.864 160.223C168.974 160.22 169.084 160.204 169.19 160.176C169.49 160.092 169.755 159.913 169.945 159.665C170.136 159.418 170.241 159.116 170.246 158.804C170.251 158.491 170.154 158.186 169.972 157.933C169.789 157.68 169.529 157.493 169.232 157.399C169.128 157.368 169.021 157.35 168.912 157.344C168.209 157.284 167.552 156.969 167.065 156.457C166.578 155.945 166.295 155.273 166.27 154.567C166.267 154.457 166.251 154.348 166.222 154.241C166.138 153.941 165.959 153.675 165.712 153.485C165.464 153.294 165.162 153.189 164.85 153.184C164.539 153.179 164.233 153.275 163.981 153.458C163.728 153.64 163.541 153.9 163.447 154.198C163.417 154.302 163.399 154.409 163.393 154.517C163.334 155.221 163.019 155.879 162.508 156.366C161.996 156.853 161.325 157.135 160.619 157.16C160.509 157.163 160.4 157.179 160.294 157.208C159.984 157.281 159.707 157.456 159.507 157.703C159.306 157.951 159.192 158.257 159.183 158.576C159.175 158.895 159.271 159.208 159.458 159.466C159.645 159.724 159.912 159.914 160.218 160.005C160.322 160.036 160.429 160.054 160.537 160.06C161.24 160.119 161.898 160.435 162.385 160.947C162.871 161.459 163.154 162.131 163.18 162.837C163.182 162.947 163.198 163.056 163.227 163.162C163.311 163.463 163.49 163.728 163.738 163.919C163.985 164.11 164.287 164.215 164.599 164.22C164.911 164.225 165.216 164.129 165.469 163.946C165.722 163.764 165.909 163.504 166.002 163.206C166.046 163.097 166.076 162.983 166.091 162.866Z" fill="#47E6B1"/>
<path opacity="0.5" d="M372.724 156.439C375.333 156.439 377.448 154.326 377.448 151.72C377.448 149.113 375.333 147 372.724 147C370.115 147 368 149.113 368 151.72C368 154.326 370.115 156.439 372.724 156.439Z" fill="#47E6B1"/>
<g clip-path="url(#clip0)">
<path d="M148.539 490.637C148.539 490.637 169.217 392.12 195.409 346.651C221.602 301.182 262.269 175.108 444.926 186.82C627.583 198.532 640.679 261.224 670.318 330.806C699.957 400.387 744.76 390.053 761.991 426.566C779.223 463.08 770.952 472.036 770.952 472.036L148.539 490.637Z" fill="#F8F8FF"/>
<path d="M148.539 490.637C148.539 490.637 167.149 511.304 165.081 516.127C163.013 520.949 114.075 574.686 203.681 592.598C293.286 610.51 645.504 618.777 694.443 596.731C743.381 574.686 726.149 563.663 708.228 540.928C690.307 518.194 743.381 540.239 755.099 516.816C762.192 502.592 767.516 487.553 770.952 472.036L148.539 490.637Z" fill="#F5F5FC"/>
<path d="M769.67 445.739C769.67 445.739 699.268 376.605 495.932 419.319C292.597 462.032 219.534 410.721 189.206 410.721C158.878 410.721 157.327 490.809 157.327 490.809L770.869 472.153L772.517 466.938C772.813 465.348 772.901 463.727 772.779 462.115L772.517 458.946C772.434 457.994 772.302 457.047 772.124 456.108L769.67 445.739Z" fill="#E9EDFA"/>
<path d="M148.277 490.389C148.277 490.389 71.2092 451.554 148.277 430.548C148.277 430.548 182.051 343.33 243.183 419.092C243.183 419.092 299.234 413.36 300.51 450.92C300.51 450.92 312.613 459.187 331.086 461.109C349.558 463.031 350.833 478.298 347.008 482.755C343.182 487.213 329.817 488.48 329.817 488.48L148.277 490.389Z" fill="#BAC6F2"/>
<path d="M729.327 473.331L729.265 303.655C729.265 303.655 647.669 297.207 659.731 246.13C667.671 212.489 694.526 209.844 693.878 192.104C693.409 179.29 705.064 126.821 740.286 155.405C768.112 177.988 755.037 196.61 769.408 199.255C784.124 201.963 802.08 226.702 792.099 241.211C782.118 255.719 793.236 256.257 793.236 263.511C793.236 270.766 799.136 291.861 769.194 297.269C739.252 302.677 733.449 304.447 733.449 304.447L735.965 473.296L729.327 473.331Z" fill="#B1C1F2"/>
<path d="M709.8 473.999V388.613C709.8 388.613 681.67 385.362 685.827 359.596C688.584 342.628 697.82 341.291 697.6 332.342C697.441 325.88 701.46 299.411 713.598 313.83C723.192 325.218 718.684 334.615 723.633 335.952C728.706 337.33 734.896 349.799 731.457 357.116C728.017 364.432 731.85 364.694 731.85 368.366C731.85 372.038 733.917 382.668 723.578 385.41C713.239 388.152 712.963 388.166 712.963 388.166L713.129 473.73L709.8 473.999Z" fill="#B1C1F2"/>
<path d="M683.938 474.791L684.021 331.185C684.021 331.185 741.996 325.728 733.428 282.477C727.783 253.99 708.704 251.751 709.166 236.74C709.497 225.889 701.218 181.467 676.191 205.669C656.423 224.787 665.714 240.556 655.513 242.795C645.056 245.089 632.298 266.033 639.391 278.323C646.483 290.614 638.584 291.061 638.584 297.207C638.584 303.352 634.393 321.209 655.671 325.818C676.949 330.427 681.071 331.894 681.071 331.894L679.486 474.874L683.938 474.791Z" fill="#BAC6F2"/>
<path d="M331.224 313.961C340.31 313.961 347.676 306.599 347.676 297.517C347.676 288.435 340.31 281.072 331.224 281.072C322.137 281.072 314.771 288.435 314.771 297.517C314.771 306.599 322.137 313.961 331.224 313.961Z" fill="white"/>
<path d="M275.572 313.562C284.658 313.562 292.025 306.199 292.025 297.117C292.025 288.035 284.658 280.672 275.572 280.672C266.485 280.672 259.119 288.035 259.119 297.117C259.119 306.199 266.485 313.562 275.572 313.562Z" fill="white"/>
<path d="M304.011 318.563C316.25 318.563 326.171 308.647 326.171 296.414C326.171 284.182 316.25 274.265 304.011 274.265C291.772 274.265 281.851 284.182 281.851 296.414C281.851 308.647 291.772 318.563 304.011 318.563Z" fill="white"/>
<path d="M539.811 277.186C548.898 277.186 556.264 269.824 556.264 260.742C556.264 251.66 548.898 244.297 539.811 244.297C530.725 244.297 523.358 251.66 523.358 260.742C523.358 269.824 530.725 277.186 539.811 277.186Z" fill="white"/>
<path d="M568.244 282.195C580.483 282.195 590.404 272.279 590.404 260.046C590.404 247.813 580.483 237.897 568.244 237.897C556.005 237.897 546.084 247.813 546.084 260.046C546.084 272.279 556.005 282.195 568.244 282.195Z" fill="white"/>
</g>
<g clip-path="url(#clip1)">
<path d="M512.966 275.942C516.449 283.365 509.069 285.468 500.616 289.447C492.163 293.426 485.837 297.774 482.355 290.351C478.872 282.927 476.046 268.193 488.005 262.564C500.375 256.741 509.484 268.518 512.966 275.942Z" fill="#2F2E41"/>
<path d="M495.719 290.541C502.004 290.541 507.099 285.437 507.099 279.142C507.099 272.846 502.004 267.743 495.719 267.743C489.434 267.743 484.339 272.846 484.339 279.142C484.339 285.437 489.434 290.541 495.719 290.541Z" fill="#FFB8B8"/>
<path d="M552.097 329.695C551.703 329.18 551.309 328.674 550.911 328.182C550.396 327.541 549.879 326.921 549.358 326.321C543.46 319.503 537.187 315.21 530.279 314.75H530.27L530.168 314.741L516.402 328.182L511.722 332.749L511.824 332.999L514.349 339.297H558.593C556.599 335.983 554.431 332.778 552.097 329.695Z" fill="#2F2E41"/>
<path d="M483.345 283.731L487.418 281.814L486.851 275.927L489.575 280.799L491.522 279.882L491.191 276.448L492.78 279.29L507.247 272.48C505.888 269.584 503.436 267.347 500.431 266.261C497.425 265.175 494.112 265.33 491.221 266.691L489.124 267.678C486.233 269.039 483.999 271.495 482.915 274.506C481.831 277.516 481.986 280.835 483.345 283.731Z" fill="#2F2E41"/>
<path d="M577.626 490.645H340.014C337.988 490.642 336.044 489.835 334.611 488.399C333.178 486.963 332.372 485.017 332.37 482.987V339.968C332.371 338.48 332.962 337.054 334.012 336.002C335.062 334.951 336.485 334.359 337.97 334.357H579.573C581.084 334.359 582.532 334.961 583.6 336.031C584.668 337.101 585.269 338.551 585.271 340.065V482.987C585.269 485.017 584.462 486.963 583.029 488.399C581.596 489.835 579.653 490.642 577.626 490.645Z" fill="#F2F2F2"/>
<path d="M347.428 482.987H570.213C572.179 482.987 574.065 482.204 575.455 480.812C576.845 479.419 577.626 477.53 577.626 475.561V354.172C577.626 352.203 576.845 350.314 575.455 348.921C574.065 347.529 572.179 346.746 570.213 346.746H347.428C345.462 346.746 343.576 347.529 342.186 348.921C340.795 350.314 340.014 352.203 340.014 354.172V475.561C340.014 477.53 340.795 479.419 342.186 480.812C343.576 482.204 345.462 482.987 347.428 482.987Z" fill="white"/>
<path d="M585.165 339.53H332.262V335.631C332.265 333.594 333.075 331.641 334.513 330.201C335.951 328.761 337.901 327.951 339.935 327.95H577.492C579.525 327.951 581.475 328.761 582.914 330.201C584.352 331.641 585.162 333.594 585.165 335.631V339.53Z" fill="#6C63FF"/>
<path d="M346.206 335.739C347.302 335.739 348.191 334.849 348.191 333.751C348.191 332.653 347.302 331.763 346.206 331.763C345.11 331.763 344.222 332.653 344.222 333.751C344.222 334.849 345.11 335.739 346.206 335.739Z" fill="white"/>
<path d="M353.739 335.739C354.835 335.739 355.724 334.849 355.724 333.751C355.724 332.653 354.835 331.763 353.739 331.763C352.643 331.763 351.755 332.653 351.755 333.751C351.755 334.849 352.643 335.739 353.739 335.739Z" fill="white"/>
<path d="M361.272 335.739C362.369 335.739 363.257 334.849 363.257 333.751C363.257 332.653 362.369 331.763 361.272 331.763C360.176 331.763 359.288 332.653 359.288 333.751C359.288 334.849 360.176 335.739 361.272 335.739Z" fill="white"/>
<path d="M465.772 456.662H445.849C444.682 456.66 443.563 456.195 442.738 455.369C441.913 454.542 441.448 453.421 441.447 452.252V432.295C441.448 431.126 441.913 430.006 442.738 429.179C443.563 428.353 444.682 427.888 445.849 427.886H465.772C466.939 427.888 468.057 428.353 468.883 429.179C469.708 430.006 470.172 431.126 470.173 432.295V452.252C470.172 453.421 469.708 454.542 468.883 455.369C468.057 456.195 466.939 456.66 465.772 456.662ZM445.849 428.815C444.927 428.816 444.044 429.183 443.393 429.835C442.741 430.488 442.375 431.373 442.374 432.295V452.252C442.375 453.175 442.741 454.06 443.393 454.713C444.044 455.365 444.927 455.732 445.849 455.733H465.772C466.693 455.732 467.576 455.365 468.228 454.713C468.879 454.06 469.246 453.175 469.247 452.252V432.295C469.246 431.373 468.879 430.488 468.228 429.835C467.576 429.183 466.693 428.816 465.772 428.815H445.849Z" fill="#CCCCCC"/>
<path d="M461.833 451.092H449.787C449.418 451.092 449.065 450.945 448.805 450.684C448.544 450.423 448.397 450.069 448.397 449.7V434.848C448.397 434.479 448.544 434.125 448.805 433.864C449.065 433.603 449.418 433.456 449.787 433.456H458.516C458.832 433.456 459.14 433.564 459.387 433.763L462.704 436.433C462.867 436.563 462.998 436.729 463.088 436.916C463.177 437.104 463.224 437.31 463.223 437.519V449.7C463.223 450.069 463.076 450.423 462.816 450.684C462.555 450.945 462.202 451.092 461.833 451.092ZM449.787 434.384C449.664 434.384 449.546 434.433 449.46 434.52C449.373 434.607 449.324 434.725 449.324 434.848V449.7C449.324 449.823 449.373 449.941 449.46 450.028C449.546 450.115 449.664 450.164 449.787 450.164H461.833C461.956 450.164 462.074 450.115 462.161 450.028C462.248 449.941 462.297 449.823 462.297 449.7V437.519C462.297 437.449 462.281 437.381 462.252 437.318C462.222 437.255 462.178 437.2 462.124 437.157L458.806 434.486C458.723 434.42 458.621 434.384 458.516 434.384H449.787Z" fill="#CCCCCC"/>
<path d="M459.517 439.953H452.104C451.981 439.953 451.863 439.904 451.776 439.817C451.689 439.73 451.64 439.612 451.64 439.489C451.64 439.366 451.689 439.248 451.776 439.161C451.863 439.074 451.981 439.025 452.104 439.025H459.517C459.64 439.025 459.758 439.074 459.844 439.161C459.931 439.248 459.98 439.366 459.98 439.489C459.98 439.612 459.931 439.73 459.844 439.817C459.758 439.904 459.64 439.953 459.517 439.953Z" fill="#CCCCCC"/>
<path d="M459.517 442.738H452.104C451.981 442.738 451.863 442.689 451.776 442.602C451.689 442.515 451.64 442.397 451.64 442.274C451.64 442.151 451.689 442.033 451.776 441.946C451.863 441.859 451.981 441.81 452.104 441.81H459.517C459.64 441.81 459.758 441.859 459.844 441.946C459.931 442.033 459.98 442.151 459.98 442.274C459.98 442.397 459.931 442.515 459.844 442.602C459.758 442.689 459.64 442.738 459.517 442.738Z" fill="#CCCCCC"/>
<path d="M459.517 445.523H452.104C451.981 445.523 451.863 445.474 451.776 445.387C451.689 445.3 451.64 445.182 451.64 445.059C451.64 444.936 451.689 444.817 451.776 444.73C451.863 444.643 451.981 444.595 452.104 444.595H459.517C459.64 444.595 459.758 444.643 459.844 444.73C459.931 444.817 459.98 444.936 459.98 445.059C459.98 445.182 459.931 445.3 459.844 445.387C459.758 445.474 459.64 445.523 459.517 445.523Z" fill="#CCCCCC"/>
<path d="M513.031 456.662H493.108C491.941 456.66 490.822 456.195 489.997 455.369C489.172 454.542 488.708 453.421 488.706 452.252V432.295C488.708 431.126 489.172 430.006 489.997 429.179C490.822 428.353 491.941 427.888 493.108 427.886H513.031C514.198 427.888 515.317 428.353 516.142 429.179C516.967 430.006 517.431 431.126 517.433 432.295V452.252C517.431 453.421 516.967 454.542 516.142 455.369C515.317 456.195 514.198 456.66 513.031 456.662ZM493.108 428.815C492.187 428.816 491.303 429.183 490.652 429.835C490.001 430.488 489.634 431.373 489.633 432.295V452.252C489.634 453.175 490.001 454.06 490.652 454.713C491.303 455.365 492.187 455.732 493.108 455.733H513.031C513.952 455.732 514.836 455.365 515.487 454.713C516.139 454.06 516.505 453.175 516.506 452.252V432.295C516.505 431.373 516.139 430.488 515.487 429.835C514.836 429.183 513.952 428.816 513.031 428.815H493.108Z" fill="#CCCCCC"/>
<path d="M509.556 447.379H496.583C496.214 447.379 495.861 447.232 495.601 446.971C495.34 446.71 495.193 446.356 495.193 445.987V438.561C495.193 438.192 495.34 437.838 495.601 437.577C495.861 437.316 496.214 437.169 496.583 437.169H509.556C509.925 437.169 510.278 437.316 510.539 437.577C510.799 437.838 510.946 438.192 510.946 438.561V445.987C510.946 446.356 510.799 446.71 510.539 446.971C510.278 447.232 509.925 447.379 509.556 447.379ZM496.583 438.097C496.46 438.097 496.342 438.146 496.255 438.233C496.169 438.32 496.12 438.438 496.12 438.561V445.987C496.12 446.11 496.169 446.228 496.255 446.315C496.342 446.402 496.46 446.451 496.583 446.451H509.556C509.679 446.451 509.797 446.402 509.884 446.315C509.97 446.228 510.019 446.11 510.019 445.987V438.561C510.019 438.438 509.97 438.32 509.884 438.233C509.797 438.146 509.679 438.097 509.556 438.097H496.583Z" fill="#CCCCCC"/>
<path d="M503.07 443.498C502.809 443.499 502.554 443.426 502.333 443.288L495.411 438.955C495.307 438.889 495.233 438.785 495.205 438.665C495.178 438.546 495.199 438.42 495.264 438.315C495.329 438.211 495.433 438.137 495.552 438.109C495.672 438.081 495.798 438.102 495.902 438.167L502.824 442.501C502.898 442.547 502.983 442.571 503.07 442.571C503.156 442.571 503.241 442.547 503.315 442.501L510.237 438.167C510.341 438.102 510.467 438.081 510.587 438.109C510.706 438.137 510.81 438.211 510.875 438.315C510.94 438.42 510.961 438.546 510.934 438.665C510.906 438.785 510.832 438.889 510.728 438.955L503.807 443.288C503.585 443.426 503.33 443.499 503.07 443.498Z" fill="#CCCCCC"/>
<path d="M418.512 456.662H398.589C397.422 456.66 396.304 456.195 395.478 455.369C394.653 454.542 394.189 453.421 394.188 452.252V432.295C394.189 431.126 394.653 430.006 395.478 429.179C396.304 428.353 397.422 427.888 398.589 427.886H418.512C419.679 427.888 420.798 428.353 421.623 429.179C422.449 430.006 422.913 431.126 422.914 432.295V452.252C422.913 453.421 422.449 454.542 421.623 455.369C420.798 456.195 419.679 456.66 418.512 456.662ZM398.589 428.815C397.668 428.816 396.785 429.183 396.133 429.835C395.482 430.488 395.115 431.373 395.114 432.295V452.252C395.115 453.175 395.482 454.06 396.133 454.713C396.785 455.365 397.668 455.732 398.589 455.733H418.512C419.434 455.732 420.317 455.365 420.968 454.713C421.62 454.06 421.986 453.175 421.987 452.252V432.295C421.986 431.373 421.62 430.488 420.968 429.835C420.317 429.183 419.434 428.816 418.512 428.815H398.589Z" fill="#CCCCCC"/>
<path d="M415.037 447.379H402.064C401.696 447.379 401.342 447.232 401.082 446.971C400.821 446.71 400.675 446.356 400.674 445.987V438.561C400.675 438.192 400.821 437.838 401.082 437.577C401.342 437.316 401.696 437.169 402.064 437.169H415.037C415.406 437.169 415.759 437.316 416.02 437.577C416.28 437.838 416.427 438.192 416.427 438.561V445.987C416.427 446.356 416.28 446.71 416.02 446.971C415.759 447.232 415.406 447.379 415.037 447.379ZM402.064 438.097C401.941 438.097 401.824 438.146 401.737 438.233C401.65 438.32 401.601 438.438 401.601 438.561V445.987C401.601 446.11 401.65 446.228 401.737 446.315C401.824 446.402 401.941 446.451 402.064 446.451H415.037C415.16 446.451 415.278 446.402 415.365 446.315C415.452 446.228 415.501 446.11 415.501 445.987V438.561C415.501 438.438 415.452 438.32 415.365 438.233C415.278 438.146 415.16 438.097 415.037 438.097H402.064Z" fill="#CCCCCC"/>
<path d="M412.981 447.379H403.657C403.495 447.379 403.335 447.336 403.194 447.255C403.053 447.173 402.936 447.056 402.855 446.915C402.773 446.774 402.73 446.614 402.73 446.451C402.731 446.288 402.773 446.128 402.855 445.987L405.663 441.114C405.745 440.973 405.862 440.855 406.002 440.774C406.143 440.692 406.303 440.65 406.466 440.65C406.628 440.65 406.788 440.692 406.929 440.774C407.07 440.855 407.187 440.973 407.268 441.114L409.082 444.261L410.133 442.438C410.214 442.296 410.331 442.179 410.472 442.098C410.613 442.016 410.773 441.973 410.936 441.973C411.098 441.973 411.258 442.016 411.399 442.098C411.54 442.179 411.657 442.296 411.738 442.438L413.784 445.987C413.865 446.128 413.908 446.288 413.908 446.451C413.908 446.614 413.865 446.774 413.784 446.915C413.702 447.056 413.585 447.173 413.445 447.255C413.304 447.336 413.144 447.379 412.981 447.379H412.981ZM412.981 446.451L410.936 442.902L409.484 445.421C409.443 445.492 409.384 445.55 409.314 445.591C409.244 445.632 409.164 445.653 409.082 445.653C409.001 445.653 408.921 445.632 408.851 445.591C408.78 445.55 408.722 445.492 408.681 445.421L406.466 441.578L403.657 446.451H412.981Z" fill="#CCCCCC"/>
<path d="M413.647 440.882C414.159 440.882 414.574 440.466 414.574 439.953C414.574 439.441 414.159 439.025 413.647 439.025C413.136 439.025 412.721 439.441 412.721 439.953C412.721 440.466 413.136 440.882 413.647 440.882Z" fill="#CCCCCC"/>
<path d="M635.217 561.817L629.537 561.816L626.835 539.869L635.218 539.87L635.217 561.817Z" fill="#FFB8B8"/>
<path d="M636.666 567.332L618.35 567.332V567.099C618.35 566.162 618.534 565.233 618.893 564.367C619.251 563.5 619.776 562.713 620.438 562.05C621.1 561.387 621.886 560.861 622.751 560.502C623.616 560.143 624.543 559.958 625.479 559.958H625.48L636.666 559.959L636.666 567.332Z" fill="#2F2E41"/>
<path d="M658.384 561.817L652.703 561.816L650.001 539.869L658.384 539.87L658.384 561.817Z" fill="#FFB8B8"/>
<path d="M659.832 567.332L641.516 567.332V567.099C641.516 566.162 641.701 565.233 642.059 564.367C642.417 563.5 642.942 562.713 643.604 562.05C644.266 561.387 645.052 560.861 645.917 560.502C646.782 560.143 647.709 559.958 648.645 559.958H648.646L659.832 559.959L659.832 567.332Z" fill="#2F2E41"/>
<path d="M656.681 552.302L651.42 550.699C651.028 550.58 650.679 550.348 650.418 550.032C650.158 549.715 649.996 549.329 649.953 548.92L645.048 502.357C645.044 502.301 645.019 502.248 644.978 502.21C644.937 502.171 644.883 502.15 644.827 502.15C644.77 502.144 644.714 502.161 644.67 502.197C644.626 502.232 644.597 502.283 644.59 502.34L636.375 547.451C636.325 547.725 636.221 547.986 636.069 548.219C635.917 548.452 635.72 548.652 635.49 548.808C635.26 548.963 635.001 549.071 634.728 549.125C634.456 549.179 634.175 549.178 633.903 549.122L627.18 547.735C626.686 547.631 626.247 547.353 625.942 546.952C625.637 546.55 625.487 546.051 625.52 545.548L630.517 471.608L664.404 467.946L659.369 550.431C659.336 550.962 659.103 551.46 658.717 551.824C658.331 552.189 657.821 552.392 657.291 552.394C657.084 552.393 656.878 552.363 656.681 552.302Z" fill="#2F2E41"/>
<path d="M656.648 407.219C662.933 407.219 668.028 402.115 668.028 395.82C668.028 389.524 662.933 384.42 656.648 384.42C650.363 384.42 645.269 389.524 645.269 395.82C645.269 402.115 650.363 407.219 656.648 407.219Z" fill="#FFB8B8"/>
<path d="M630.465 472.043L637.812 425.7C638.203 423.236 639.113 420.884 640.482 418.8C641.851 416.715 643.647 414.947 645.752 413.612C647.856 412.278 650.22 411.407 652.686 411.058C655.152 410.71 657.664 410.892 660.055 411.591C664.235 412.802 667.814 415.531 670.093 419.244C672.372 422.956 673.187 427.387 672.38 431.67L664.693 473.056L630.465 472.043Z" fill="#6C63FF"/>
<path d="M659.79 480.334C660.358 479.959 660.838 479.462 661.194 478.881C661.55 478.299 661.775 477.647 661.852 476.969C661.929 476.291 661.857 475.604 661.641 474.957C661.424 474.31 661.069 473.719 660.599 473.224L668.196 458.488L659.641 459.403L653.739 473.256C652.962 474.101 652.521 475.202 652.5 476.35C652.479 477.499 652.88 478.615 653.626 479.488C654.372 480.36 655.411 480.928 656.547 481.084C657.683 481.24 658.837 480.974 659.79 480.335V480.334Z" fill="#FFB8B8"/>
<path d="M661.417 470.625C660.996 470.566 660.604 470.379 660.292 470.091L657.386 467.401C657.072 467.108 656.855 466.727 656.764 466.307C656.674 465.888 656.714 465.451 656.88 465.055L662.689 451.262L661.865 424.009C661.983 423.133 662.273 422.289 662.717 421.525C663.162 420.761 663.752 420.093 664.454 419.558C665.157 419.022 665.958 418.631 666.811 418.406C667.665 418.181 668.554 418.127 669.428 418.246C670.303 418.366 671.145 418.657 671.907 419.102C672.67 419.548 673.337 420.14 673.87 420.844C674.404 421.548 674.794 422.351 675.018 423.206C675.242 424.061 675.295 424.952 675.175 425.828L676.584 442.96C677.012 448.159 675.541 453.337 672.443 457.531L663.384 469.799C663.209 470.035 662.988 470.231 662.732 470.375C662.477 470.52 662.195 470.608 661.903 470.636C661.741 470.652 661.578 470.648 661.417 470.625Z" fill="#6C63FF"/>
<path d="M591.116 389.609C591.24 390.28 591.509 390.915 591.905 391.471C592.301 392.026 592.813 392.488 593.406 392.823C593.999 393.159 594.658 393.36 595.338 393.412C596.017 393.465 596.699 393.368 597.337 393.128L607.922 405.881L610.417 397.633L599.982 386.787C599.509 385.741 598.668 384.905 597.621 384.438C596.573 383.971 595.391 383.905 594.298 384.253C593.205 384.601 592.277 385.338 591.691 386.325C591.104 387.312 590.9 388.481 591.116 389.609Z" fill="#FFB8B8"/>
<path d="M599.407 394.895C599.626 394.531 599.95 394.242 600.337 394.066L603.943 392.434C604.334 392.258 604.769 392.207 605.19 392.287C605.611 392.367 605.998 392.575 606.297 392.882L616.711 403.618L642.086 413.484C642.846 413.934 643.509 414.531 644.038 415.238C644.567 415.946 644.952 416.751 645.17 417.608C645.388 418.465 645.436 419.356 645.31 420.231C645.184 421.106 644.887 421.948 644.437 422.708C643.986 423.469 643.39 424.132 642.683 424.661C641.975 425.191 641.171 425.575 640.316 425.793C639.46 426.011 638.57 426.057 637.697 425.93C636.823 425.803 635.983 425.505 635.225 425.052L618.926 419.672C613.98 418.04 609.793 414.664 607.145 410.171L599.4 397.032C599.251 396.779 599.157 396.498 599.124 396.206C599.091 395.915 599.119 395.619 599.207 395.34C599.256 395.184 599.323 395.035 599.407 394.895Z" fill="#6C63FF"/>
<path opacity="0.1" d="M665.879 435.346L665.415 450.198L656.88 465.055L664.007 448.498L665.879 435.346Z" fill="black"/>
<path d="M655.345 397.962C654.63 398.055 653.906 397.885 653.307 397.484C652.708 397.082 652.274 396.477 652.087 395.779C651.907 394.977 651.512 394.239 650.944 393.644C650.377 393.049 649.659 392.621 648.867 392.404C646.779 391.926 644.228 392.91 642.698 391.326C642.371 390.964 642.134 390.53 642.007 390.058C641.88 389.587 641.867 389.092 641.968 388.614C642.25 387.075 643.349 385.912 644.546 384.981C647.064 383.033 650.111 381.892 653.287 381.709C654.931 381.661 656.577 381.743 658.208 381.954C659.916 382.062 661.606 382.372 663.241 382.876C665.105 383.58 666.761 384.744 668.057 386.259C669.353 387.775 670.247 389.593 670.655 391.546C671.029 393.504 670.972 395.521 670.487 397.456C670.002 399.39 669.102 401.195 667.849 402.745C666.349 404.616 664.415 406.091 662.215 407.042C661.691 407.29 661.09 407.32 660.544 407.127C659.174 406.581 659.398 404.881 660.022 403.747C660.691 402.533 661.72 401.358 661.182 399.881C660.912 399.197 660.395 398.639 659.733 398.319C658.371 397.623 656.847 397.788 655.383 397.957L655.345 397.962Z" fill="#2F2E41"/>
<path d="M587.313 404.399H446.462C444.435 404.397 442.492 403.589 441.058 402.154C439.625 400.718 438.819 398.771 438.817 396.741V366.574C438.819 364.543 439.625 362.597 441.058 361.161C442.492 359.726 444.435 358.918 446.462 358.916H587.313C589.34 358.918 591.283 359.726 592.716 361.161C594.149 362.597 594.956 364.543 594.958 366.574V396.741C594.956 398.771 594.149 400.718 592.716 402.154C591.283 403.589 589.34 404.397 587.313 404.399Z" fill="white"/>
<path d="M587.313 404.631H446.462C444.373 404.629 442.371 403.797 440.895 402.318C439.418 400.839 438.587 398.833 438.585 396.741V366.574C438.587 364.482 439.418 362.476 440.895 360.997C442.371 359.518 444.373 358.686 446.462 358.684H587.313C589.401 358.686 591.403 359.518 592.88 360.997C594.356 362.476 595.187 364.482 595.189 366.574V396.741C595.187 398.833 594.356 400.839 592.88 402.318C591.403 403.797 589.401 404.629 587.313 404.631ZM446.462 359.612C444.619 359.614 442.852 360.348 441.549 361.653C440.247 362.958 439.514 364.728 439.512 366.574V396.741C439.514 398.587 440.247 400.357 441.549 401.662C442.852 402.967 444.619 403.701 446.462 403.703H587.313C589.155 403.701 590.922 402.967 592.225 401.662C593.528 400.357 594.261 398.587 594.263 396.741V366.574C594.261 364.728 593.528 362.958 592.225 361.653C590.922 360.348 589.155 359.614 587.313 359.612H446.462Z" fill="#3F3D56"/>
<path d="M570.17 396.973H463.605C461.578 396.971 459.635 396.163 458.201 394.728C456.768 393.292 455.962 391.346 455.96 389.315V373.535C455.962 371.505 456.768 369.559 458.201 368.123C459.635 366.687 461.578 365.88 463.605 365.878H570.17C572.197 365.88 574.14 366.687 575.573 368.123C577.006 369.559 577.812 371.505 577.815 373.535V389.315C577.812 391.346 577.006 393.292 575.573 394.728C574.14 396.163 572.197 396.971 570.17 396.973Z" fill="#F2F2F2"/>
<path d="M486.537 388.468C491.586 388.468 495.68 384.368 495.68 379.31C495.68 374.252 491.586 370.152 486.537 370.152C481.488 370.152 477.395 374.252 477.395 379.31C477.395 384.368 481.488 388.468 486.537 388.468Z" fill="#FF6584"/>
<path d="M563.547 396.049L550.643 385.208L537.961 374.553C537.626 374.272 537.203 374.118 536.766 374.119C536.329 374.12 535.907 374.275 535.573 374.558L522.932 385.261L519.845 387.876L515.189 383.964L501.04 372.078C500.706 371.797 500.283 371.643 499.846 371.644C499.409 371.645 498.987 371.8 498.653 372.082L484.55 384.023L470.226 396.152C470.153 396.214 470.101 396.296 470.077 396.388C470.052 396.48 470.057 396.577 470.09 396.667C470.122 396.756 470.182 396.833 470.26 396.888C470.338 396.942 470.431 396.971 470.526 396.971L499.894 396.914L509.19 396.896L509.1 396.973L536.81 396.92L563.251 396.869C563.346 396.869 563.438 396.839 563.516 396.785C563.594 396.73 563.653 396.652 563.685 396.563C563.718 396.474 563.722 396.376 563.697 396.284C563.673 396.192 563.62 396.11 563.547 396.049Z" fill="#3F3D56"/>
<path d="M558.875 322.223C558.505 321.62 558.017 321.1 557.439 320.693C556.861 320.286 556.207 320.001 555.516 319.856C555.263 319.802 555.006 319.77 554.747 319.758L519.446 288.143C518.753 287.429 517.828 286.986 516.838 286.894C516.642 286.872 516.446 286.865 516.249 286.876C515.435 286.913 514.649 287.187 513.987 287.664C513.326 288.141 512.817 288.802 512.525 289.564C512.232 290.326 512.167 291.157 512.338 291.956C512.509 292.754 512.909 293.485 513.488 294.06L527.003 305.862L549.196 325.239C549.215 325.604 549.269 325.967 549.359 326.321C549.624 327.347 550.195 328.268 550.995 328.962C551.795 329.655 552.787 330.089 553.839 330.205C554.798 330.318 555.77 330.157 556.642 329.741C557.334 329.417 557.947 328.947 558.44 328.363C558.491 328.302 558.537 328.247 558.583 328.182C559.231 327.336 559.606 326.313 559.659 325.248C559.711 324.183 559.437 323.128 558.875 322.223H558.875Z" fill="#FFB8B8"/>
<path d="M498.495 352.692L498.166 339.297L497.888 328.182L497.698 320.403L497.322 305.241C497.248 304.429 496.94 303.656 496.434 303.017C495.929 302.378 495.249 301.9 494.477 301.642C493.705 301.383 492.875 301.356 492.088 301.562C491.3 301.768 490.59 302.2 490.043 302.804C489.915 302.942 489.799 303.091 489.696 303.25C489.126 304.068 488.869 305.065 488.973 306.057L489.798 328.182L490.21 339.297L490.738 353.476C490.586 353.685 490.448 353.903 490.326 354.131C489.997 354.756 489.798 355.443 489.741 356.148C489.685 356.853 489.772 357.563 489.997 358.233C490.233 358.937 490.614 359.582 491.116 360.127C491.619 360.671 492.231 361.103 492.912 361.394C493.593 361.685 494.328 361.828 495.068 361.813C495.808 361.799 496.537 361.627 497.206 361.31C497.984 360.942 498.659 360.388 499.172 359.696C499.684 359.005 500.019 358.197 500.147 357.345C500.274 356.494 500.19 355.623 499.902 354.812C499.614 354 499.13 353.272 498.495 352.692H498.495Z" fill="#FFB8B8"/>
<path d="M530.279 314.75L527.003 305.863L521.703 291.466C521.32 290.418 520.707 289.47 519.909 288.693C519.111 287.915 518.148 287.327 517.092 286.973C517.009 286.945 516.921 286.917 516.838 286.894C515.815 286.583 514.737 286.498 513.678 286.643C512.619 286.789 511.604 287.163 510.703 287.739L492.851 299.082C491.216 300.118 490.048 301.751 489.592 303.634C489.136 305.518 489.429 307.505 490.409 309.176C492.642 313.043 495.075 316.791 497.698 320.403C499.778 323.239 503.651 323.541 504.323 328.182H517.486L530.812 316.198L530.279 314.75Z" fill="#CCCCCC"/>
<path d="M325.872 423.373C331.802 423.373 336.608 418.558 336.608 412.618C336.608 406.679 331.802 401.864 325.872 401.864C319.943 401.864 315.136 406.679 315.136 412.618C315.136 418.558 319.943 423.373 325.872 423.373Z" fill="#A0616A"/>
<path d="M352.229 405.216C352.335 405.3 352.438 405.389 352.537 405.484C353.03 405.949 353.42 406.514 353.68 407.141C353.94 407.767 354.065 408.442 354.047 409.12C354.029 409.799 353.868 410.466 353.574 411.078C353.28 411.689 352.861 412.232 352.344 412.67C352.223 412.772 352.097 412.867 351.967 412.955L352.693 437.527C352.714 438.332 352.475 439.121 352.012 439.779C351.55 440.437 350.887 440.928 350.124 441.179L350.08 441.188L330.162 443.313C329.621 443.371 329.073 443.32 328.551 443.165C328.029 443.009 327.543 442.752 327.121 442.407C326.699 442.062 326.349 441.637 326.092 441.157C325.835 440.676 325.675 440.149 325.622 439.606C325.57 439.063 325.625 438.515 325.785 437.993C325.945 437.472 326.206 436.987 326.554 436.568C326.902 436.148 327.329 435.802 327.812 435.548C328.294 435.295 328.822 435.14 329.364 435.092L343.562 433.839L346.018 412.559C345.857 412.417 345.707 412.263 345.568 412.1C344.798 411.187 344.394 410.02 344.435 408.826C344.476 407.632 344.958 406.496 345.788 405.638C346.618 404.78 347.737 404.261 348.928 404.183C350.118 404.105 351.295 404.473 352.229 405.216H352.229Z" fill="#A0616A"/>
<path d="M343.554 562.292H348.914L351.463 541.586H343.553L343.554 562.292Z" fill="#A0616A"/>
<path d="M342.188 560.539L352.741 560.539H352.742C353.625 560.539 354.5 560.713 355.316 561.052C356.132 561.39 356.873 561.887 357.498 562.512C358.122 563.138 358.617 563.88 358.955 564.698C359.293 565.515 359.467 566.391 359.467 567.276V567.495L342.188 567.496L342.188 560.539Z" fill="#2F2E41"/>
<path d="M290.289 554.87L294.894 557.616L307.66 541.132L300.864 537.079L290.289 554.87Z" fill="#A0616A"/>
<path d="M290.01 552.664L299.078 558.072L299.078 558.072C299.837 558.525 300.5 559.123 301.028 559.832C301.556 560.541 301.94 561.347 302.157 562.205C302.374 563.062 302.42 563.954 302.293 564.83C302.166 565.705 301.868 566.547 301.416 567.307L301.304 567.496L286.457 558.641L290.01 552.664Z" fill="#2F2E41"/>
<path d="M350.178 554.979H344.177C343.691 554.98 343.222 554.8 342.861 554.474C342.5 554.149 342.272 553.701 342.221 553.217L336.172 496.252C336.156 496.109 336.094 495.974 335.995 495.87C335.896 495.765 335.766 495.696 335.623 495.673C335.481 495.65 335.336 495.675 335.209 495.743C335.082 495.812 334.981 495.92 334.922 496.051L324.008 520.259L304.686 551.82C304.436 552.225 304.048 552.525 303.595 552.667C303.142 552.809 302.652 552.783 302.217 552.593L294.498 549.191C294.242 549.079 294.014 548.913 293.827 548.705C293.641 548.498 293.501 548.253 293.416 547.986C293.331 547.72 293.304 547.439 293.336 547.162C293.368 546.884 293.458 546.617 293.601 546.377L311.364 516.584L316.811 491.482C315.098 480.597 322.443 464.412 322.518 464.25L322.554 464.171L342.786 456.249L342.888 456.374C350.867 482.603 355.729 510.83 352.139 553.173C352.095 553.665 351.869 554.122 351.507 554.456C351.144 554.789 350.67 554.976 350.178 554.979Z" fill="#2F2E41"/>
<path d="M321.739 466.823L321.644 466.625C321.599 466.53 317.101 457.025 313.633 446.867C312.966 444.902 312.714 442.82 312.893 440.753C313.071 438.686 313.676 436.679 314.67 434.858C315.676 433.019 317.053 431.409 318.713 430.13C320.373 428.852 322.28 427.932 324.313 427.43C327.842 426.583 331.559 427.034 334.784 428.701C338.01 430.368 340.53 433.141 341.886 436.513C344.637 443.404 343.76 450.759 342.935 456.543L342.918 456.659L342.813 456.709L321.739 466.823Z" fill="#3F3D56"/>
<path d="M338.889 406.544H321.842V399.1C325.584 397.611 329.245 396.344 331.458 399.1C333.429 399.1 335.319 399.884 336.713 401.28C338.106 402.676 338.889 404.569 338.889 406.544V406.544Z" fill="#2F2E41"/>
<path d="M320.898 397.786C310.707 397.786 307.854 410.583 307.854 417.802C307.854 421.827 309.672 423.267 312.528 423.755L313.537 418.366L315.899 423.987C316.701 423.991 317.544 423.975 318.418 423.959L319.219 422.307L321.005 423.929C328.16 423.94 333.942 424.984 333.942 417.802C333.942 410.583 331.44 397.786 320.898 397.786Z" fill="#2F2E41"/>
<path d="M370.095 415.306H350.172C349.005 415.305 347.886 414.84 347.061 414.013C346.236 413.186 345.771 412.066 345.77 410.897V390.94C345.771 389.771 346.236 388.65 347.061 387.824C347.886 386.997 349.005 386.532 350.172 386.531H370.095C371.262 386.532 372.381 386.997 373.206 387.824C374.031 388.65 374.495 389.771 374.496 390.94V410.897C374.495 412.066 374.031 413.186 373.206 414.013C372.381 414.84 371.262 415.305 370.095 415.306Z" fill="white"/>
<path d="M370.095 415.306H350.172C349.005 415.305 347.886 414.84 347.061 414.013C346.236 413.186 345.771 412.066 345.77 410.897V390.94C345.771 389.771 346.236 388.65 347.061 387.824C347.886 386.997 349.005 386.532 350.172 386.531H370.095C371.262 386.532 372.381 386.997 373.206 387.824C374.031 388.65 374.495 389.771 374.496 390.94V410.897C374.495 412.066 374.031 413.186 373.206 414.013C372.381 414.84 371.262 415.305 370.095 415.306ZM350.172 387.459C349.25 387.46 348.367 387.827 347.716 388.48C347.064 389.132 346.698 390.017 346.697 390.94V410.897C346.698 411.82 347.064 412.704 347.716 413.357C348.367 414.01 349.25 414.377 350.172 414.378H370.095C371.016 414.377 371.899 414.01 372.551 413.357C373.202 412.704 373.569 411.82 373.57 410.897V390.94C373.569 390.017 373.202 389.132 372.551 388.48C371.899 387.827 371.016 387.46 370.095 387.459H350.172Z" fill="#3F3D56"/>
<path d="M366.62 407.184H353.647C353.278 407.183 352.925 407.037 352.664 406.776C352.404 406.515 352.257 406.161 352.257 405.791V396.045C352.257 395.676 352.404 395.322 352.664 395.061C352.925 394.8 353.278 394.653 353.647 394.653H357.299C357.536 394.652 357.77 394.712 357.977 394.828C358.185 394.944 358.359 395.112 358.483 395.315L359.501 396.973H366.62C366.988 396.974 367.342 397.121 367.602 397.382C367.863 397.643 368.009 397.997 368.01 398.366V405.791C368.009 406.161 367.863 406.515 367.602 406.776C367.342 407.037 366.988 407.183 366.62 407.184Z" fill="#6C63FF"/>
<path d="M366.198 412.108C366.263 412.227 366.322 412.349 366.377 412.475C366.652 413.095 366.792 413.767 366.789 414.446C366.786 415.124 366.64 415.795 366.36 416.413C366.081 417.031 365.674 417.583 365.166 418.033C364.659 418.483 364.062 418.82 363.416 419.023C363.265 419.069 363.112 419.108 362.958 419.138L354.108 442.068C353.816 442.817 353.29 443.452 352.609 443.879C351.927 444.305 351.127 444.5 350.326 444.434L350.282 444.426L331.102 438.642C330.58 438.485 330.095 438.226 329.674 437.879C329.253 437.533 328.905 437.107 328.649 436.625C328.394 436.143 328.236 435.616 328.185 435.073C328.134 434.529 328.192 433.982 328.353 433.461C328.515 432.94 328.778 432.456 329.128 432.038C329.477 431.619 329.906 431.274 330.389 431.023C330.872 430.771 331.4 430.618 331.943 430.572C332.486 430.526 333.032 430.588 333.551 430.755L347.122 435.12L357.628 416.461C357.535 416.268 357.456 416.068 357.391 415.863C357.035 414.723 357.115 413.49 357.616 412.406C358.116 411.321 359 410.461 360.098 409.993C361.195 409.525 362.427 409.482 363.555 409.873C364.682 410.264 365.624 411.06 366.198 412.108H366.198Z" fill="#A0616A"/>
</g>
<g clip-path="url(#clip2)">
<path d="M178.327 566.342C178.327 566.342 182.641 543.061 159.894 530.597C137.147 518.134 136.078 518.28 131.58 516.855C128.999 515.978 126.345 517.805 129.331 521.533C132.317 525.261 130.621 526.211 136.594 527.856C142.566 529.501 143.488 536.738 146.474 538.528C149.46 540.319 152.078 540.795 161.221 544.705C169.516 548.251 176.594 558.265 176.594 561.81C176.594 565.356 184.705 566.525 184.705 566.525L178.327 566.342Z" fill="url(#paint0_linear)"/>
<path d="M177.516 563.09C177.516 563.09 183.304 541.672 163.396 530.086C143.488 518.5 136.52 518.646 132.575 517.257C130.327 516.453 136.52 519.23 139.101 522.666C141.682 526.102 141.055 525.334 145.737 527.893C151.156 530.853 153.405 533.741 156.576 534.325C161.184 535.202 159.82 539.954 167.82 543.536C175.046 546.789 175.968 555.487 175.968 558.777C175.968 562.066 183.046 563.163 183.046 563.163L177.516 563.09Z" fill="url(#paint1_linear)"/>
<path d="M197.572 559.946L199.82 557.826C200.89 556.84 202.217 556.109 203.655 555.743C210.696 553.916 232.816 547.044 241.996 530.451C242.07 530.305 241.996 530.122 241.849 530.049H241.812C241.775 530.049 241.738 530.013 241.701 530.013C238.641 529.793 222.899 529.537 201.848 547.337C201.479 547.629 201.111 547.995 200.816 548.36C200.3 549.091 199.415 550.334 199.009 550.992C198.456 551.942 199.562 553.55 198.088 554.976C196.613 556.401 193.443 559.946 193.443 559.946L196.023 561.847L197.572 559.946Z" fill="url(#paint2_linear)"/>
<path d="M185.59 558.557C185.59 558.557 191.636 504.976 175.157 488.127C159.967 472.63 159.746 486.884 159.783 489.297C159.783 489.516 159.857 489.699 159.931 489.881C163.507 496.497 164.76 504.136 163.47 511.519C161.921 519.267 173.092 518.244 174.051 525.882C175.009 533.521 178.917 545.29 178.511 550.699C178.106 556.109 178.069 561.372 178.069 561.372L184.152 561.554L185.59 558.557Z" fill="url(#paint3_linear)"/>
<path d="M185.516 558.74C185.553 558.631 185.59 558.484 185.627 558.375C185.995 554.866 191.083 504.392 175.157 488.127C160.078 472.703 159.857 486.665 159.931 489.187C159.967 489.479 160.115 489.772 160.262 490.028C161.368 491.636 166.345 498.653 170.769 497.849C182.972 495.693 172.207 510.239 178.843 518.024C184.152 524.165 182.382 545.363 181.977 550.809C181.719 553.879 181.203 556.876 180.428 559.873C180.281 560.641 180.797 561.372 181.534 561.518C181.571 561.518 181.608 561.518 181.645 561.518C181.756 561.518 181.829 561.555 181.94 561.555H183.046C183.71 561.591 184.299 561.262 184.594 560.677L185.516 558.74Z" fill="url(#paint4_linear)"/>
<path d="M191.452 561.847C191.452 561.847 192.521 547.008 201.258 537.944C203.691 535.458 206.788 533.741 210.18 532.973C212.798 532.388 217.074 530.305 220.798 523.361C220.798 523.361 227.839 513.492 234.881 510.495C241.922 507.498 234.881 507.133 234.881 507.133C234.881 507.133 214.752 510.934 201.848 522.63C201.037 523.361 200.189 524.055 199.267 524.64C195.913 526.906 186.659 535.458 187.065 560.421L191.452 561.847Z" fill="url(#paint5_linear)"/>
<path d="M208.927 560.641C208.927 560.641 209.222 558.85 206.825 558.886C204.724 558.96 169.184 558.704 169.184 558.704C169.184 558.704 167.525 558.704 167.636 559.946C167.746 561.189 173.129 590.538 173.645 591.159C173.866 591.525 174.235 591.817 174.677 591.927C175.341 592.11 200.3 591.963 200.3 591.963C200.89 591.89 201.332 591.415 201.369 590.83C201.332 590.867 209 561.006 208.927 560.641Z" fill="url(#paint6_linear)"/>
</g>
<defs>
<linearGradient id="paint0_linear" x1="128.009" y1="541.547" x2="184.698" y2="541.547" gradientUnits="userSpaceOnUse">
<stop stop-color="#93FD93"/>
<stop offset="0.51" stop-color="#21C2C1"/>
<stop offset="1" stop-color="#84F599"/>
</linearGradient>
<linearGradient id="paint1_linear" x1="149.249" y1="523.834" x2="181.129" y2="563.259" gradientUnits="userSpaceOnUse">
<stop stop-color="#93FD93"/>
<stop offset="0.51" stop-color="#21C2C1"/>
<stop offset="1" stop-color="#84F599"/>
</linearGradient>
<linearGradient id="paint2_linear" x1="186.358" y1="568.121" x2="230.359" y2="533.78" gradientUnits="userSpaceOnUse">
<stop stop-color="#93FD93"/>
<stop offset="0.51" stop-color="#21C2C1"/>
<stop offset="1" stop-color="#84F599"/>
</linearGradient>
<linearGradient id="paint3_linear" x1="197.488" y1="550.847" x2="159.853" y2="502.79" gradientUnits="userSpaceOnUse">
<stop stop-color="#93FD93"/>
<stop offset="0.51" stop-color="#21C2C1"/>
<stop offset="1" stop-color="#84F599"/>
</linearGradient>
<linearGradient id="paint4_linear" x1="159.926" y1="521.267" x2="186.691" y2="521.267" gradientUnits="userSpaceOnUse">
<stop stop-color="#93FD93"/>
<stop offset="0.51" stop-color="#21C2C1"/>
<stop offset="1" stop-color="#84F599"/>
</linearGradient>
<linearGradient id="paint5_linear" x1="184.379" y1="564.609" x2="213.033" y2="522.81" gradientUnits="userSpaceOnUse">
<stop stop-color="#93FD93"/>
<stop offset="0.51" stop-color="#21C2C1"/>
<stop offset="1" stop-color="#84F599"/>
</linearGradient>
<linearGradient id="paint6_linear" x1="167.679" y1="575.359" x2="208.957" y2="575.359" gradientUnits="userSpaceOnUse">
<stop stop-color="#E5A4ED"/>
<stop offset="1" stop-color="#7A5BF5"/>
</linearGradient>
<clipPath id="clip0">
<rect width="681" height="463" fill="white" transform="translate(114 147)"/>
</clipPath>
<clipPath id="clip1">
<rect width="406" height="307" fill="white" transform="translate(279 261)"/>
</clipPath>
<clipPath id="clip2">
<rect width="114" height="111" fill="white" transform="translate(128 481)"/>
</clipPath>
</defs>
</svg>
