<svg width="399" height="335" viewBox="0 0 399 335" fill="none" xmlns="http://www.w3.org/2000/svg">
<g clip-path="url(#clip0)">
<path d="M376.931 107.165C376.931 121.108 373.65 132.586 367.959 142.418C366.081 145.656 363.948 148.738 361.582 151.635C340.66 177.393 301.762 191.49 266.605 214.326C162.829 281.731 151.588 173.721 156.275 107.165C158.165 80.3093 168.555 55.7095 185.062 36.874C188.529 32.9126 192.274 29.2068 196.268 25.7853C215.008 9.72101 239.219 0 266.605 0C313.589 0 353.713 28.5247 369.621 68.721C374.458 80.9532 376.938 93.9997 376.931 107.165V107.165Z" fill="#6C63FF"/>
<path d="M290.111 24.1519L185.062 36.874C188.529 32.9126 192.274 29.2068 196.268 25.7852L290.111 24.1519Z" fill="#D0CDE1"/>
<path d="M367.959 142.417C366.08 145.656 363.948 148.738 361.582 151.635L271.599 140.74L367.959 142.417Z" fill="#D0CDE1"/>
<path d="M373.292 79.7741L220.79 59.8643L369.621 68.721C371.05 72.3329 372.276 76.0231 373.292 79.7741V79.7741Z" fill="#D0CDE1"/>
<path d="M166.619 28.5454C166.619 28.819 166.611 29.0885 166.588 29.3542C166.469 31.0005 165.986 32.5994 165.175 34.0343C164.364 35.4692 163.246 36.704 161.901 37.6488C160.556 38.5935 159.019 39.2245 157.401 39.4956C155.783 39.7668 154.126 39.6713 152.55 39.2162C150.973 38.761 149.517 37.9577 148.288 36.8647C147.059 35.7717 146.088 34.4165 145.445 32.8979C144.802 31.3793 144.504 29.7354 144.572 28.0861C144.64 26.4368 145.073 24.8235 145.839 23.3638C146.076 22.9063 146.347 22.4677 146.65 22.0515C147.969 20.2103 149.817 18.8205 151.945 18.0696C154.073 17.3186 156.379 17.2427 158.551 17.852C160.724 18.4613 162.658 19.7265 164.094 21.477C165.529 23.2275 166.397 25.3791 166.58 27.6415C166.607 27.9388 166.619 28.2401 166.619 28.5454Z" fill="#6C63FF"/>
<path d="M166.619 28.5454C166.619 28.8189 166.611 29.0885 166.588 29.3541L150.077 27.356L166.58 27.6415C166.608 27.9388 166.619 28.2401 166.619 28.5454Z" fill="#D0CDE1"/>
<path d="M162.681 34.1393L147.406 35.9908C146.973 35.5043 146.583 34.9802 146.241 34.4248L162.681 34.1393Z" fill="#D0CDE1"/>
<path d="M158.348 21.8493L145.839 23.3638C146.076 22.9063 146.347 22.4676 146.65 22.0515L158.348 21.8493Z" fill="#D0CDE1"/>
<path d="M317.76 228.407C317.632 228.649 317.5 228.883 317.355 229.107C316.483 230.505 315.312 231.689 313.928 232.574C312.543 233.459 310.98 234.022 309.352 234.222C307.724 234.422 306.072 234.254 304.517 233.73C302.962 233.206 301.542 232.34 300.362 231.194C299.181 230.048 298.27 228.652 297.693 227.106C297.116 225.561 296.89 223.906 297.029 222.261C297.168 220.616 297.671 219.023 298.499 217.598C299.327 216.174 300.461 214.953 301.817 214.025C302.239 213.733 302.683 213.473 303.145 213.249C305.167 212.244 307.447 211.889 309.676 212.23C311.906 212.571 313.978 213.591 315.613 215.155C317.248 216.718 318.368 218.748 318.821 220.972C319.273 223.195 319.038 225.505 318.146 227.59C318.032 227.866 317.902 228.138 317.76 228.407Z" fill="#6C63FF"/>
<path d="M317.759 228.407C317.632 228.649 317.499 228.883 317.355 229.107L303.701 219.551L318.146 227.59C318.031 227.866 317.902 228.137 317.759 228.407Z" fill="#D0CDE1"/>
<path d="M311.675 231.49L297.321 225.918C297.164 225.284 297.064 224.637 297.02 223.985L311.675 231.49Z" fill="#D0CDE1"/>
<path d="M313.572 218.59L301.817 214.025C302.239 213.733 302.683 213.473 303.145 213.249L313.572 218.59Z" fill="#D0CDE1"/>
<path d="M395.868 37.0495C396.058 37.2453 396.239 37.4439 396.407 37.6506C397.463 38.9131 398.227 40.3969 398.642 41.994C399.057 43.591 399.112 45.2611 398.805 46.8826C398.498 48.5041 397.835 50.0361 396.865 51.3671C395.895 52.6982 394.642 53.7946 393.197 54.5767C391.753 55.3587 390.154 55.8067 388.516 55.8879C386.878 55.9691 385.242 55.6816 383.729 55.0462C382.215 54.4108 380.861 53.4435 379.766 52.2149C378.671 50.9863 377.862 49.5273 377.397 47.9441C377.25 47.4499 377.14 46.9453 377.068 46.4344C376.735 44.1894 377.094 41.8956 378.097 39.8624C379.099 37.8292 380.697 36.1545 382.675 35.064C384.653 33.9735 386.915 33.5198 389.157 33.7641C391.399 34.0084 393.513 34.9388 395.213 36.43C395.439 36.6235 395.657 36.8309 395.868 37.0495Z" fill="#6C63FF"/>
<path d="M395.868 37.0494C396.058 37.2453 396.239 37.4438 396.407 37.6506L383.201 47.8237L395.213 36.43C395.439 36.6235 395.657 36.8309 395.868 37.0494Z" fill="#D0CDE1"/>
<path d="M396.929 43.8223L387.278 55.8821C386.63 55.8385 385.988 55.7375 385.357 55.5803L396.929 43.8223Z" fill="#D0CDE1"/>
<path d="M385.302 38.0685L377.397 47.944C377.25 47.4499 377.14 46.9452 377.068 46.4343L385.302 38.0685Z" fill="#D0CDE1"/>
<path d="M188.97 241.619C188.97 241.619 213.172 242.634 213.172 248.724C213.172 254.814 185.945 248.724 185.945 248.724L188.97 241.619Z" fill="#A0616A"/>
<path d="M152.668 335L107.29 331.955L105.273 307.595L95.1895 328.91L50.8202 322.82C51.8286 284.249 67.9629 246.694 68.9713 241.619C69.9797 236.544 72.3898 215.574 72.3898 215.574C76.7964 206.165 99.8885 205.282 117.989 206.134C125.492 206.479 132.147 207.129 136.251 207.596C138.964 207.9 140.567 208.124 140.567 208.124C147.797 215.625 152.456 225.846 155.32 237.265C165.646 278.403 152.668 335 152.668 335Z" fill="#2F2E41"/>
<path d="M102.248 99.5178C116.171 99.5178 127.458 88.1569 127.458 74.1425C127.458 60.1282 116.171 48.7673 102.248 48.7673C88.3253 48.7673 77.0385 60.1282 77.0385 74.1425C77.0385 88.1569 88.3253 99.5178 102.248 99.5178Z" fill="#A0616A"/>
<path d="M85.1056 80.2325C85.1056 80.2325 78.0468 111.698 66.9545 120.833C55.8622 129.968 110.315 120.833 110.315 120.833C110.315 120.833 98.2147 100.533 107.29 91.3976C116.366 82.2626 85.1056 80.2325 85.1056 80.2325Z" fill="#A0616A"/>
<path d="M136.534 210.154L119.804 212.021L73.0049 217.259C73.0049 217.259 72.7831 216.66 72.3898 215.574C68.9915 206.246 52.6253 160.855 50.8202 147.223C48.8035 131.998 69.9797 113.728 69.9797 113.728C69.9797 113.728 90.1476 109.668 96.198 109.668C102.248 109.668 126.45 118.803 126.45 118.803L135.475 200.521L136.251 207.596L136.534 210.154Z" fill="#D0CDE1"/>
<path opacity="0.15" d="M155.32 237.265L121.408 217.259C121.408 217.259 120.813 215.31 119.804 212.021C119.3 210.377 118.685 208.388 117.989 206.134C114.077 193.487 107.512 172.619 102.248 157.373C94.1812 134.028 133.509 198.989 133.509 198.989L135.475 200.521L136.251 207.596C138.964 207.9 140.567 208.124 140.567 208.124C147.797 215.625 152.456 225.846 155.32 237.265Z" fill="black"/>
<path d="M110.316 120.833C110.316 120.833 100.232 134.028 108.299 157.373C116.366 180.718 127.458 217.259 127.458 217.259L185.945 251.769L194.012 241.619L139.559 198.989C139.559 198.989 137.542 121.848 127.458 118.803C117.374 115.758 110.316 120.833 110.316 120.833Z" fill="#D0CDE1"/>
<path d="M60.4 209.646C60.4 209.646 74.5175 239.082 80.5679 236.037C86.6182 232.991 65.442 202.541 65.442 202.541L60.4 209.646Z" fill="#A0616A"/>
<path d="M58.8874 128.953L5.4425 173.613C5.4425 173.613 -14.7254 187.824 22.5852 197.974C59.8958 208.124 62.9209 214.214 62.9209 214.214C62.9209 214.214 66.9545 201.019 71.9965 203.049L28.6355 181.734L63.9293 160.418L58.8874 128.953Z" fill="#D0CDE1"/>
<path d="M37.4073 94.9696C40.2123 93.5714 46.4064 90.7495 51.6824 87.3498C51.3124 76.2897 52.6655 66.2495 56.6263 60.9276C58.8495 55.8464 63.5182 50.7593 67.1746 46.7531C76.154 36.915 96.0096 31.4234 99.5311 36.3389C126.167 36.8682 128.971 57.8833 128.971 57.8833C128.832 66.6734 119.756 66.9516 111.805 66.6313C112.517 72.6321 110.62 78.8675 105.125 81.6327C94.6186 86.9206 91.4665 93.7948 96.7199 98.5539C101.973 103.313 111.43 116.004 98.8213 119.177C86.2131 122.349 84.6371 128.695 88.3145 131.339C91.992 133.983 79.909 126.58 79.909 126.58C79.909 126.58 77.8076 139.271 66.7755 136.098C65.7868 135.814 64.7987 135.085 63.8272 133.995C60.8477 137.291 58.1896 139.239 56.1863 139.25C44.7128 139.311 46.0887 126.52 46.0887 126.52C46.0887 126.52 32.4703 130.37 36.7197 128.822C40.9691 127.274 41.1512 120.735 29.8597 114.258C18.5683 107.781 31.0736 98.1268 37.4073 94.9696Z" fill="#2F2E41"/>
<path d="M178.18 128.126L177.997 128.102L178.443 129.809C178.865 132.191 179.477 134.534 180.274 136.817L193.361 186.892C193.779 188.49 194.651 189.931 195.871 191.037C197.09 192.144 198.604 192.868 200.227 193.12L226.915 197.276C228.641 197.545 230.407 197.268 231.969 196.483C233.532 195.698 234.813 194.444 235.638 192.894L261 145.211C261.793 143.89 262.517 142.528 263.17 141.132L264.031 139.513L263.897 139.495C266.585 133.093 267.769 126.153 267.355 119.215C266.941 112.277 264.941 105.529 261.51 99.4975C258.08 93.4656 253.312 88.3127 247.578 84.4403C241.844 80.5679 235.299 78.0808 228.453 77.1728C221.607 76.2648 214.645 76.9604 208.11 79.2055C201.575 81.4505 195.644 85.1843 190.778 90.1159C185.913 95.0474 182.244 101.043 180.059 107.636C177.873 114.23 177.23 121.241 178.18 128.126H178.18Z" fill="#3F3D56"/>
<path d="M228.553 200.548C228.083 200.548 227.613 200.511 227.149 200.439L199.252 196.095C197.48 195.819 195.827 195.028 194.495 193.82C193.163 192.612 192.211 191.039 191.755 189.293L178.076 136.951C177.24 134.555 176.597 132.095 176.155 129.595L175.809 127.305C174.878 119.989 175.649 112.556 178.062 105.593C180.474 98.6287 184.462 92.3246 189.71 87.1779C194.958 82.0312 201.322 78.1828 208.301 75.9365C215.28 73.6902 222.682 73.1075 229.923 74.2344L229.802 75.018C222.64 73.9071 215.319 74.4963 208.424 76.7387C201.528 78.9811 195.248 82.8146 190.086 87.9333C184.923 93.0521 181.02 99.3145 178.689 106.221C176.357 113.127 175.662 120.486 176.657 127.712L176.923 129.424C177.363 131.903 178 134.343 178.828 136.719L192.517 189.092C192.934 190.688 193.805 192.126 195.022 193.231C196.24 194.336 197.752 195.059 199.372 195.311L227.269 199.655C228.992 199.922 230.755 199.644 232.315 198.861C233.875 198.077 235.155 196.826 235.979 195.28L236.674 195.654C235.886 197.132 234.714 198.368 233.284 199.229C231.854 200.091 230.219 200.546 228.553 200.548V200.548Z" fill="#D0CDE1"/>
<path d="M235.629 139.508L218.655 186.158L219.612 186.511L236.586 139.86L235.629 139.508Z" fill="#D0CDE1"/>
<path d="M207.914 135.191L206.896 135.236L209.063 184.869L210.081 184.824L207.914 135.191Z" fill="#D0CDE1"/>
<path d="M226.194 224.277L190.448 218.711C190.182 218.668 189.944 218.521 189.786 218.302C189.627 218.083 189.562 217.809 189.603 217.542C189.644 217.274 189.789 217.033 190.005 216.873C190.222 216.712 190.493 216.644 190.76 216.684L226.506 222.25C226.639 222.27 226.766 222.316 226.881 222.386C226.997 222.456 227.097 222.548 227.176 222.656C227.256 222.765 227.314 222.889 227.346 223.02C227.378 223.151 227.384 223.288 227.363 223.421C227.342 223.555 227.296 223.683 227.226 223.799C227.156 223.914 227.064 224.014 226.956 224.094C226.847 224.173 226.724 224.231 226.593 224.262C226.463 224.294 226.327 224.299 226.194 224.277V224.277Z" fill="#3F3D56"/>
<path d="M227.111 216.637L191.365 211.07C191.232 211.05 191.104 211.004 190.989 210.934C190.874 210.865 190.774 210.773 190.694 210.664C190.615 210.555 190.557 210.432 190.525 210.3C190.493 210.169 190.487 210.033 190.508 209.899C190.528 209.765 190.575 209.637 190.645 209.522C190.715 209.406 190.807 209.306 190.915 209.226C191.024 209.147 191.147 209.09 191.278 209.058C191.408 209.027 191.544 209.022 191.676 209.043L227.423 214.609C227.556 214.629 227.683 214.675 227.798 214.745C227.913 214.815 228.014 214.907 228.093 215.016C228.173 215.125 228.23 215.248 228.262 215.379C228.294 215.511 228.3 215.647 228.28 215.781C228.259 215.914 228.213 216.043 228.143 216.158C228.073 216.273 227.981 216.374 227.872 216.453C227.764 216.533 227.641 216.59 227.51 216.621C227.379 216.653 227.244 216.658 227.111 216.637V216.637Z" fill="#3F3D56"/>
<path d="M228.028 208.996L192.281 203.429C192.015 203.386 191.777 203.239 191.619 203.02C191.46 202.801 191.395 202.528 191.436 202.26C191.477 201.992 191.622 201.752 191.839 201.591C192.055 201.43 192.326 201.362 192.593 201.402L228.339 206.969C228.605 207.012 228.843 207.159 229.001 207.378C229.16 207.597 229.226 207.87 229.184 208.138C229.143 208.406 228.998 208.646 228.782 208.807C228.565 208.968 228.294 209.036 228.028 208.996H228.028Z" fill="#3F3D56"/>
<path d="M207.21 228.724C214.301 229.828 220.66 226.745 221.414 221.838L195.737 217.84C194.983 222.747 200.12 227.619 207.21 228.724Z" fill="#3F3D56"/>
<path d="M220.059 129.679C218.534 129.442 217.272 128.229 216.58 127.415C216.354 127.149 216.133 126.872 215.911 126.595C215.106 125.585 214.345 124.632 213.286 124.135C210.947 123.037 208.192 124.571 205.807 126.216L205.23 125.37C207.853 123.561 210.911 121.889 213.717 123.205C214.991 123.803 215.863 124.896 216.706 125.952C216.92 126.221 217.135 126.49 217.354 126.748C218.074 127.594 219.508 128.964 221.046 128.648C221.693 128.458 222.296 128.137 222.816 127.704C223.213 127.407 223.632 127.141 224.069 126.909C224.957 126.48 225.95 126.326 226.925 126.464C227.9 126.603 228.812 127.029 229.547 127.688C229.809 127.938 230.057 128.202 230.29 128.479C230.748 129.005 231.181 129.501 231.744 129.682C232.577 129.95 233.457 129.471 234.39 128.964C235.352 128.442 236.346 127.902 237.474 128.035C237.51 128.039 237.547 128.044 237.584 128.05C239.591 128.363 240.516 130.597 241.04 132.264L240.068 132.573C239.356 130.306 238.49 129.179 237.354 129.054C236.547 128.958 235.734 129.4 234.874 129.867C233.796 130.453 232.679 131.059 231.435 130.659C230.602 130.392 230.054 129.764 229.524 129.156C229.315 128.907 229.093 128.669 228.859 128.445C228.274 127.929 227.552 127.596 226.782 127.486C226.011 127.377 225.226 127.495 224.521 127.828C224.131 128.036 223.758 128.275 223.404 128.542C222.772 129.061 222.038 129.439 221.25 129.653C220.858 129.733 220.455 129.742 220.059 129.679Z" fill="#D0CDE1"/>
</g>
<defs>
<clipPath id="clip0">
<rect width="399" height="335" fill="white"/>
</clipPath>
</defs>
</svg>
