<svg width="149" height="122" viewBox="0 0 149 122" fill="none" xmlns="http://www.w3.org/2000/svg">
<circle cx="75.1802" cy="55.3814" r="45.1013" stroke="#6C63FF" stroke-width="20"/>
<circle cx="75.1801" cy="55.3814" r="46.0069" fill="#BAC6F2"/>
<path d="M32.9955 12.7503C32.9955 12.7503 32.5949 14.3157 35.3948 18.7405C38.1948 23.1654 38.0003 23.7922 37.8388 25.0575C37.6773 26.3228 37.6869 27.0155 36.06 28.5692C36.06 28.5692 31.1859 30.1719 30.5345 31.1711C29.8832 32.1704 31.6109 35.8035 31.6109 35.8035C31.6109 35.8035 33.2707 40.2166 27.3106 41.9097C27.3106 41.9097 22.6469 41.9161 21.3537 42.9451C21.3537 42.9451 21.8542 41.1541 20.2986 38.5203C18.7429 35.8865 20.8862 33.3186 20.8862 33.3186C20.8862 33.3186 22.6118 32.3673 23.7074 32.2938C24.8029 32.2204 25.1504 31.7181 24.4459 30.4571C24.4459 30.4571 23.4268 29.925 22.0157 31.0647C20.6046 32.2044 19.5505 33.0164 18.3211 32.9206C17.0916 32.8249 15.3384 32.3055 14.1876 30.0271C13.0368 27.7488 12.4311 24.5275 11.5693 23.0568C10.7076 21.5861 10.2411 21.2637 10.2411 21.2637C10.2411 21.2637 11.3302 22.0916 15.0908 19.2811C18.8513 16.4707 20.8139 17.6732 20.8139 17.6732C20.8139 17.6732 23.8359 18.4862 24.3205 23.823C24.3205 23.823 25.1992 28.9087 26.9855 25.8279C26.9855 25.8279 26.3808 24.0933 25.1727 21.5393C23.9645 18.9853 27.198 16.5813 29.5654 15.7768C31.9329 14.9723 32.9955 12.7503 32.9955 12.7503Z" fill="#6C63FF"/>
<path d="M13.5341 22.3906L13.5234 22.364C14.2673 22.0533 17.6984 23.9145 20.442 25.531L20.4271 25.5555C16.5571 23.276 14.1089 22.1523 13.5341 22.3906Z" fill="#444053"/>
<path d="M20.3708 25.5204L20.4006 25.5044C22.5917 26.7974 25.2205 28.4383 27.1895 29.7707C27.3765 29.8973 27.571 30.0229 27.7697 30.141L27.7389 30.191C27.5402 30.0718 27.3447 29.9462 27.1566 29.8185C25.1897 28.4873 22.5609 26.8123 20.3708 25.5204Z" fill="#444053"/>
<path d="M27.6815 30.1591L27.7304 30.1208C31.6801 32.4949 37.2364 31.9299 37.2852 31.9299L36.6721 32.6269C36.6233 32.6301 31.6588 32.5492 27.6815 30.1591Z" fill="#444053"/>
<path d="M31.5121 16.327C31.5121 16.327 30.219 19.9334 31.2019 22.4747C32.1848 25.0159 30.1393 31.3126 30.1393 31.3126C30.1393 31.3126 29.4603 33.9614 28.3679 34.6233C28.3679 34.6233 26.7836 36.5931 25.8549 36.8187C24.9262 37.0443 22.7904 39.0428 22.8467 40.1484" stroke="#444053" stroke-miterlimit="10"/>
<path d="M33.2612 16.5813C33.2612 16.5813 32.3495 18.433 30.9926 18.417" stroke="#444053" stroke-miterlimit="10"/>
<path d="M35.0888 18.9884C35.0888 18.9884 34.5373 21.535 31.1211 22.2469" stroke="#444053" stroke-miterlimit="10"/>
<path d="M36.5117 22.7833C36.5117 22.7833 34.904 25.3629 31.4399 25.049" stroke="#444053" stroke-miterlimit="10"/>
<path d="M36.2109 27.6157C36.2109 27.6157 33.1857 29.6004 30.8979 28.5107" stroke="#444053" stroke-miterlimit="10"/>
<path d="M29.3743 16.5813C29.3743 16.5813 30.1648 18.2563 31.0394 17.7519" stroke="#444053" stroke-miterlimit="10"/>
<path d="M26.4797 19.1258C26.4797 19.1258 27.5423 21.3733 30.8672 20.9785" stroke="#444053" stroke-miterlimit="10"/>
<path d="M26.1588 22.5056C26.1588 22.5056 29.0831 24.2849 31.4548 23.8028" stroke="#444053" stroke-miterlimit="10"/>
<path d="M27.6985 26.1078C27.6985 26.1078 30.0128 27.9562 31.0988 27.5316" stroke="#444053" stroke-miterlimit="10"/>
<path d="M27.1566 27.4859C27.1566 27.4859 27.7825 29.428 27.1672 29.7952" stroke="#444053" stroke-miterlimit="10"/>
<path d="M25.1068 30.3985C25.1068 30.3985 26.3001 29.212 25.9675 28.9938" stroke="#444053" stroke-miterlimit="10"/>
<path d="M22.9147 20.5422C22.9147 20.5422 23.9592 25.5108 22.6023 26.8517" stroke="#444053" stroke-miterlimit="10"/>
<path d="M18.5475 32.364C18.5475 32.364 23.275 29.3237 23.6873 27.5274" stroke="#444053" stroke-miterlimit="10"/>
<path d="M15.8091 30.2208C15.8091 30.2208 20.256 28.1446 21.4621 26.1557" stroke="#444053" stroke-miterlimit="10"/>
<path d="M18.795 18.9502C18.795 18.9502 20.9468 22.545 19.6026 25.0607" stroke="#444053" stroke-width="0.75" stroke-miterlimit="10"/>
<path d="M14.3586 26.9559C14.3586 26.9559 17.6527 25.6204 18.3189 24.3338" stroke="#444053" stroke-width="0.75" stroke-miterlimit="10"/>
<path d="M15.0536 20.0463C15.0536 20.0463 16.1555 22.081 15.6423 22.9653" stroke="#444053" stroke-width="0.75" stroke-miterlimit="10"/>
<path d="M26.4701 32.0842C26.4701 32.0842 29.4454 31.6852 29.7641 32.4631" stroke="#444053" stroke-miterlimit="10"/>
<path d="M31.2274 38.1904C31.2274 38.1904 31.067 34.9319 29.2085 33.672" stroke="#444053" stroke-miterlimit="10"/>
<path d="M23.0687 33.3952C23.0687 33.3952 26.1917 33.7645 27.2957 35.8045" stroke="#444053" stroke-miterlimit="10"/>
<path d="M28.3063 40.5539C28.3063 40.5539 28.7887 38.167 26.5073 36.4792" stroke="#444053" stroke-miterlimit="10"/>
<path d="M20.8193 36.2791C20.8193 36.2791 23.4099 36.1461 24.7977 37.3795" stroke="#444053" stroke-miterlimit="10"/>
<path d="M24.3896 40.9977C24.3896 40.9977 24.1474 39.1035 23.4716 38.7448" stroke="#444053" stroke-miterlimit="10"/>
<path opacity="0.1" d="M64.5705 32.8632C58.7401 35.8014 52.3634 37.0826 46.1462 38.0702C39.9289 39.0577 33.6533 39.8186 27.5263 41.8831C23.5862 43.2112 19.4219 45.3619 17.4795 48.7034C15.6072 51.9119 16.299 55.3332 17.2893 58.315C18.0331 60.5572 18.9895 62.826 21.0254 64.1967C22.4408 65.148 24.278 65.5939 25.8209 66.4037C31.188 69.2185 32.0583 75.8206 31.1934 81.8938C30.7874 84.7426 30.0904 87.6286 30.0999 90.421C30.1095 93.2134 30.9139 95.9803 33.1262 97.6297C35.3194 99.2643 38.6124 99.5963 41.8395 99.3324C48.3968 98.8003 54.9902 96.0771 61.2701 93.1506C75.1752 86.673 88.4949 78.9503 101.784 71.2468C106.699 68.3959 111.637 65.5311 116.163 62.1545C118.676 60.2794 121.157 58.1256 122.317 55.5481C123.795 52.2769 122.668 48.713 119.688 47.2412C114.694 44.7723 106.344 48.0276 102.038 44.8032C99.6585 43.0282 99.3482 39.7803 99.736 36.7315C100.567 30.1804 104.001 22.96 101.38 17.4167C99.5798 13.6091 94.8428 11.3935 89.6701 11.9416C84.2508 12.5162 78.2451 16.0844 76.6299 20.8945C74.9701 25.8482 69.7188 30.2634 64.5705 32.8632Z" fill="#6C63FF"/>
<path opacity="0.1" d="M78.549 95.5077C84.424 95.5077 89.1866 94.3294 89.1866 92.876C89.1866 91.4225 84.424 90.2443 78.549 90.2443C72.674 90.2443 67.9114 91.4225 67.9114 92.876C67.9114 94.3294 72.674 95.5077 78.549 95.5077Z" fill="#6C63FF"/>
<path d="M124.204 26.3004H25.8772C25.1442 26.3004 24.55 26.8955 24.55 27.6296V82.2588C24.55 82.9929 25.1442 83.588 25.8772 83.588H124.204C124.937 83.588 125.532 82.9929 125.532 82.2588V27.6296C125.532 26.8955 124.937 26.3004 124.204 26.3004Z" fill="url(#paint0_linear)"/>
<path d="M124.056 27.1059H26.0376C25.3046 27.1059 24.7104 27.701 24.7104 28.4351V82.0682C24.7104 82.8023 25.3046 83.3974 26.0376 83.3974H124.056C124.789 83.3974 125.383 82.8023 125.383 82.0682V28.4351C125.383 27.701 124.789 27.1059 124.056 27.1059Z" fill="white"/>
<path d="M124.056 27.1059H26.0376C25.3046 27.1059 24.7104 27.701 24.7104 28.4351V82.0682C24.7104 82.8023 25.3046 83.3974 26.0376 83.3974H124.056C124.789 83.3974 125.383 82.8023 125.383 82.0682V28.4351C125.383 27.701 124.789 27.1059 124.056 27.1059Z" fill="white"/>
<path opacity="0.04" d="M124.056 27.1059H26.0376C25.3046 27.1059 24.7104 27.701 24.7104 28.4351V82.0682C24.7104 82.8023 25.3046 83.3974 26.0376 83.3974H124.056C124.789 83.3974 125.383 82.8023 125.383 82.0682V28.4351C125.383 27.701 124.789 27.1059 124.056 27.1059Z" fill="#5A5773"/>
<path d="M124.873 26.46H25.2227C25.0871 26.46 24.9571 26.514 24.8612 26.61C24.7654 26.706 24.7115 26.8361 24.7115 26.9719V29.1386H125.384V26.9719C125.384 26.8361 125.33 26.706 125.234 26.61C125.138 26.514 125.008 26.46 124.873 26.46V26.46Z" fill="#5A5773"/>
<path d="M26.721 28.4894C27.1024 28.4894 27.4116 28.1797 27.4116 27.7976C27.4116 27.4156 27.1024 27.1059 26.721 27.1059C26.3395 27.1059 26.0303 27.4156 26.0303 27.7976C26.0303 28.1797 26.3395 28.4894 26.721 28.4894Z" fill="white"/>
<path d="M28.5805 28.4894C28.9619 28.4894 29.2711 28.1797 29.2711 27.7976C29.2711 27.4156 28.9619 27.1059 28.5805 27.1059C28.199 27.1059 27.8898 27.4156 27.8898 27.7976C27.8898 28.1797 28.199 28.4894 28.5805 28.4894Z" fill="white"/>
<path d="M30.4401 28.4894C30.8215 28.4894 31.1308 28.1797 31.1308 27.7976C31.1308 27.4156 30.8215 27.1059 30.4401 27.1059C30.0586 27.1059 29.7494 27.4156 29.7494 27.7976C29.7494 28.1797 30.0586 28.4894 30.4401 28.4894Z" fill="white"/>
<path opacity="0.1" d="M114.312 41.5989H32.5322C31.9342 41.5989 31.4495 42.0844 31.4495 42.6833V72.8653C31.4495 73.4642 31.9342 73.9497 32.5322 73.9497H114.312C114.91 73.9497 115.394 73.4642 115.394 72.8653V42.6833C115.394 42.0844 114.91 41.5989 114.312 41.5989Z" fill="#6C63FF"/>
<path d="M116.331 40.5509L34.5784 38.4642C33.9806 38.4489 33.4836 38.9219 33.4684 39.5206L32.7005 69.6928C32.6853 70.2915 33.1575 70.7892 33.7554 70.8045L115.508 72.8912C116.106 72.9065 116.603 72.4335 116.618 71.8348L117.386 41.6626C117.401 41.0639 116.929 40.5662 116.331 40.5509Z" fill="white"/>
<path opacity="0.2" d="M46.0527 45.3012L104.529 46.79" stroke="#5A5773" stroke-miterlimit="10"/>
<path opacity="0.2" d="M45.9369 49.8761L104.414 51.3648" stroke="#5A5773" stroke-miterlimit="10"/>
<path opacity="0.2" d="M45.821 54.4499L104.298 55.9386" stroke="#5A5773" stroke-miterlimit="10"/>
<path opacity="0.2" d="M45.7042 59.0248L104.182 60.5136" stroke="#5A5773" stroke-miterlimit="10"/>
<path opacity="0.2" d="M51.0193 57.9179L50.8716 63.7336" stroke="#5A5773" stroke-miterlimit="10" stroke-dasharray="12 12"/>
<path opacity="0.2" d="M45.5884 63.5996L104.065 65.0873" stroke="#5A5773" stroke-miterlimit="10"/>
<path opacity="0.2" d="M57.4852 63.9018L57.7052 55.232" stroke="#5A5773" stroke-miterlimit="10" stroke-dasharray="12 12"/>
<path opacity="0.2" d="M96.169 54.5467C95.1266 54.6372 94.1086 54.0519 93.4849 53.4368C92.8388 52.7983 92.3702 52.0129 91.9176 51.2488C91.7741 51.0073 91.6253 50.7583 91.4755 50.5178C90.686 49.2642 89.8976 48.4213 88.9954 47.8648C88.6649 47.6609 88.3105 47.4986 87.9403 47.3816C87.9047 47.4661 87.8539 47.5433 87.7904 47.6094C87.654 47.7517 87.4667 47.834 87.2698 47.8382H87.2347C87.058 47.8334 86.8888 47.7658 86.7573 47.6474C86.6259 47.5291 86.5409 47.3677 86.5174 47.1922C86.1828 47.2081 85.8526 47.276 85.5388 47.3933C84.6111 47.7435 83.9066 48.4958 83.2659 49.2376C82.4902 50.1336 81.7421 51.0733 81.0451 52.0321C80.9034 52.2258 80.7617 52.4205 80.62 52.6163C79.8635 53.6741 79.0814 54.767 78.0698 55.6215C76.7118 56.7751 75.0786 57.2721 73.7004 56.9517C72.047 56.5676 70.8644 55.1043 70.0196 53.872C69.9133 53.7124 69.8071 53.5528 69.6923 53.39C68.9039 52.2194 68.0889 51.0094 66.886 50.3039C65.3017 49.3727 63.1138 49.5334 61.6793 50.6838C60.9801 51.2446 60.4552 52.0065 59.9462 52.7429C59.7719 52.9962 59.5913 53.258 59.4053 53.5091C58.449 54.7957 57.4852 55.4938 56.446 55.6449C56.0339 55.6907 55.618 55.6907 55.206 55.6449C54.9318 55.6258 54.6481 55.6045 54.3708 55.6119C53.6788 55.6415 53.0063 55.8498 52.4185 56.2166C51.8307 56.5834 51.3476 57.0962 51.0161 57.7052L50.8695 63.8306L96.8065 65.0011L97.0637 54.867C96.985 54.9099 96.8981 54.9357 96.8087 54.9427C96.7194 54.9497 96.6296 54.9377 96.5451 54.9076C96.4607 54.8774 96.3836 54.8298 96.3188 54.7678C96.254 54.7058 96.2029 54.6309 96.169 54.5478V54.5467Z" fill="#6C63FF"/>
<path opacity="0.2" d="M64.6407 49.6984L64.2762 64.0753" stroke="#5A5773" stroke-miterlimit="10" stroke-dasharray="12 12"/>
<path opacity="0.2" d="M71.047 55.199L70.8175 64.2413" stroke="#5A5773" stroke-miterlimit="10" stroke-dasharray="12 12"/>
<path opacity="0.2" d="M77.4184 56.2601L77.2123 64.4042" stroke="#5A5773" stroke-miterlimit="10" stroke-dasharray="12 12"/>
<path opacity="0.2" d="M83.6016 48.9715L83.2063 64.5563" stroke="#5A5773" stroke-miterlimit="10" stroke-dasharray="12 12"/>
<path opacity="0.2" d="M89.8943 48.4277L89.481 64.717" stroke="#5A5773" stroke-miterlimit="10" stroke-dasharray="12 12"/>
<path opacity="0.2" d="M96.8639 54.5521L96.6003 64.8979" stroke="#5A5773" stroke-miterlimit="10" stroke-dasharray="12 12"/>
<path d="M87.8764 46.6633C87.8059 46.5954 87.7226 46.5421 87.6315 46.5065C87.5403 46.4709 87.443 46.4537 87.3452 46.4558C87.1699 46.459 87.0015 46.5241 86.8695 46.6395C86.7375 46.755 86.6504 46.9134 86.6237 47.0868C86.6171 47.1291 86.6142 47.1718 86.6152 47.2145C86.6152 47.2433 86.6152 47.272 86.6215 47.2997C86.6441 47.4664 86.7224 47.6205 86.8436 47.737C86.9755 47.8686 87.1527 47.9448 87.3388 47.9499H87.3739C87.571 47.9462 87.7587 47.8643 87.8956 47.7221C87.9588 47.6559 88.0095 47.5787 88.0454 47.4944C88.0731 47.4282 88.091 47.3583 88.0985 47.2869C88.1012 47.2547 88.1012 47.2223 88.0985 47.1901C88.098 47.0919 88.0781 46.9949 88.04 46.9045C88.0019 46.8141 87.9463 46.7321 87.8764 46.6633ZM87.8393 47.4295C87.8155 47.4813 87.7828 47.5285 87.7426 47.5689C87.6746 47.6391 87.5887 47.6893 87.4942 47.7138C87.3997 47.7383 87.3002 47.7363 87.2068 47.7079C87.1134 47.6795 87.0295 47.6259 86.9645 47.553C86.8995 47.48 86.8559 47.3905 86.8383 47.2943C86.8324 47.2667 86.8292 47.2385 86.8287 47.2103C86.8276 47.1673 86.8319 47.1244 86.8415 47.0826C86.8676 46.9665 86.9318 46.8625 87.0239 46.7873C87.116 46.712 87.2306 46.6699 87.3494 46.6676H87.3739C87.5104 46.6711 87.6403 46.7271 87.7366 46.824C87.833 46.9209 87.8884 47.0512 87.8913 47.1879C87.8913 47.1986 87.8913 47.2103 87.8913 47.2209C87.8894 47.2934 87.8717 47.3646 87.8393 47.4295V47.4295Z" fill="#6C63FF"/>
<path d="M96.8702 55.0511C97.2224 55.0511 97.5078 54.7653 97.5078 54.4126C97.5078 54.06 97.2224 53.7741 96.8702 53.7741C96.5181 53.7741 96.2327 54.06 96.2327 54.4126C96.2327 54.7653 96.5181 55.0511 96.8702 55.0511Z" fill="#6C63FF"/>
<path d="M86.8287 47.2103C86.8292 47.2386 86.8324 47.2667 86.8383 47.2944C86.766 47.2944 86.6937 47.2944 86.6257 47.2997C86.2908 47.3157 85.9603 47.3836 85.646 47.5008C84.7184 47.851 84.0139 48.6033 83.3721 49.3451C82.5964 50.24 81.8483 51.1808 81.1502 52.1385C81.0089 52.3322 80.8697 52.528 80.7252 52.7238C79.9675 53.7816 79.1855 54.8734 78.1749 55.729C76.8159 56.8815 75.1816 57.3785 73.8023 57.0582C72.1511 56.6751 70.9684 55.2108 70.1183 53.9785C70.0121 53.8199 69.8994 53.6592 69.791 53.4964C69.0015 52.3258 68.1855 51.1158 66.9826 50.4103C65.3983 49.4791 63.2083 49.6398 61.7759 50.7902C61.0863 51.35 60.555 52.1119 60.046 52.8483C59.8707 53.1016 59.69 53.3644 59.5041 53.6145C58.5477 54.9011 57.5829 55.5992 56.5437 55.7503C56.1316 55.7955 55.7157 55.7955 55.3036 55.7503C55.0256 55.7249 54.7465 55.7139 54.4674 55.7173C53.7259 55.7482 53.0076 55.9846 52.3924 56.4002C51.7773 56.8158 51.2894 57.3943 50.9831 58.0713L50.7876 57.9861C51.1108 57.2727 51.6253 56.663 52.2738 56.2249C52.9223 55.7868 53.6794 55.5374 54.461 55.5045C54.7476 55.5003 55.0342 55.5116 55.3196 55.5385C55.7162 55.5816 56.1163 55.5816 56.5129 55.5385C57.4936 55.397 58.416 54.7255 59.333 53.4868C59.5168 53.2389 59.6964 52.9781 59.8707 52.7259C60.3881 51.981 60.9237 51.2031 61.6463 50.6221C62.4123 50.022 63.3394 49.6638 64.3093 49.5931C65.2793 49.5224 66.2484 49.7424 67.0931 50.2251C68.3385 50.9562 69.1684 52.1864 69.9717 53.3772C70.0779 53.5368 70.1842 53.6965 70.2979 53.8571C71.1214 55.0575 72.269 56.4825 73.8534 56.8496C75.1667 57.155 76.7319 56.6751 78.04 55.5651C79.0271 54.7276 79.8039 53.6496 80.553 52.5982C80.6922 52.4024 80.8335 52.2066 80.9781 52.0119C81.6804 51.0541 82.4317 50.1049 83.2095 49.2035C83.8694 48.4416 84.5909 47.6679 85.5695 47.3008C85.9084 47.1754 86.2648 47.1036 86.6257 47.088C86.6969 47.088 86.7703 47.0816 86.8383 47.088C86.8302 47.1282 86.827 47.1693 86.8287 47.2103V47.2103Z" fill="#6C63FF"/>
<path d="M96.9075 54.5126C95.6611 54.9787 94.3434 54.2828 93.5933 53.5442C92.9472 52.9057 92.4786 52.1193 92.0259 51.3552C91.8825 51.1147 91.7337 50.8646 91.5828 50.6252C90.7933 49.3705 90.0049 48.5277 89.1017 47.9712C88.771 47.7678 88.4166 47.6059 88.0465 47.4891C87.9785 47.4667 87.9094 47.4476 87.834 47.4295C87.8662 47.365 87.884 47.2941 87.8861 47.222C87.9562 47.2401 88.0253 47.2603 88.0986 47.2816C88.4891 47.4042 88.8628 47.5751 89.2111 47.7903C90.1441 48.3638 90.9538 49.2279 91.7613 50.5113C91.9133 50.754 92.0621 51.0041 92.2076 51.2477C92.6539 51.9991 93.1151 52.777 93.741 53.3921C94.4455 54.0859 95.6791 54.7446 96.832 54.3136L96.9075 54.5126Z" fill="#6C63FF"/>
<path opacity="0.5" d="M48.1468 44.3998L46.171 44.3494C46.1182 44.3481 46.0743 44.3898 46.073 44.4427L46.0535 45.2087C46.0522 45.2615 46.0939 45.3055 46.1467 45.3068L48.1224 45.3573C48.1752 45.3586 48.2191 45.3169 48.2205 45.264L48.24 44.498C48.2413 44.4451 48.1996 44.4012 48.1468 44.3998Z" fill="#6C63FF"/>
<path d="M48.0294 48.9735L46.0536 48.923C46.0008 48.9217 45.9569 48.9634 45.9556 49.0163L45.9361 49.7823C45.9347 49.8352 45.9764 49.8791 46.0292 49.8805L48.005 49.9309C48.0578 49.9322 48.1017 49.8905 48.1031 49.8376L48.1226 49.0716C48.1239 49.0188 48.0822 48.9748 48.0294 48.9735Z" fill="#6C63FF"/>
<path opacity="0.5" d="M47.9131 53.5492L45.9373 53.4988C45.8845 53.4974 45.8406 53.5392 45.8392 53.5921L45.8197 54.358C45.8184 54.4109 45.8601 54.4549 45.9129 54.4562L47.8887 54.5066C47.9415 54.508 47.9854 54.4662 47.9867 54.4133L48.0062 53.6474C48.0076 53.5945 47.9659 53.5505 47.9131 53.5492Z" fill="#6C63FF"/>
<path opacity="0.5" d="M47.7967 58.1228L45.8209 58.0724C45.7681 58.071 45.7243 58.1128 45.7229 58.1657L45.7034 58.9316C45.7021 58.9845 45.7438 59.0285 45.7966 59.0298L47.7724 59.0803C47.8252 59.0816 47.8691 59.0398 47.8704 58.9869L47.8899 58.221C47.8912 58.1681 47.8495 58.1242 47.7967 58.1228Z" fill="#6C63FF"/>
<path opacity="0.5" d="M47.6804 62.6975L45.7046 62.6471C45.6518 62.6457 45.6079 62.6875 45.6066 62.7404L45.5871 63.5063C45.5857 63.5592 45.6274 63.6032 45.6802 63.6045L47.656 63.6549C47.7088 63.6563 47.7527 63.6145 47.7541 63.5616L47.7736 62.7957C47.7749 62.7428 47.7332 62.6988 47.6804 62.6975Z" fill="#6C63FF"/>
<path opacity="0.5" d="M51.7005 64.716L49.7248 64.6656C49.672 64.6642 49.6281 64.706 49.6267 64.7589L49.6072 65.5248C49.6059 65.5777 49.6476 65.6217 49.7004 65.623L51.6762 65.6734C51.729 65.6748 51.7729 65.633 51.7742 65.5801L51.7937 64.8142C51.795 64.7613 51.7533 64.7173 51.7005 64.716Z" fill="#6C63FF"/>
<path opacity="0.5" d="M58.4458 64.8881L56.47 64.8376C56.4172 64.8363 56.3733 64.8781 56.372 64.9309L56.3525 65.6969C56.3511 65.7498 56.3928 65.7937 56.4456 65.7951L58.4214 65.8455C58.4742 65.8469 58.5181 65.8051 58.5194 65.7522L58.5389 64.9862C58.5403 64.9334 58.4986 64.8894 58.4458 64.8881Z" fill="#6C63FF"/>
<path d="M64.9969 65.3565L63.0204 65.2971C62.9676 65.2956 62.9235 65.3371 62.9219 65.39L62.899 66.1562C62.8974 66.2091 62.9389 66.2533 62.9918 66.2549L64.9682 66.3143C65.021 66.3159 65.0651 66.2743 65.0667 66.2214L65.0896 65.4552C65.0912 65.4023 65.0497 65.3581 64.9969 65.3565Z" fill="#6C63FF"/>
<path opacity="0.5" d="M71.7779 65.2282L69.8021 65.1777C69.7493 65.1764 69.7055 65.2181 69.7041 65.271L69.6846 66.037C69.6833 66.0899 69.725 66.1338 69.7778 66.1352L71.7536 66.1856C71.8064 66.1869 71.8503 66.1452 71.8516 66.0923L71.8711 65.3263C71.8725 65.2735 71.8307 65.2295 71.7779 65.2282Z" fill="#6C63FF"/>
<path opacity="0.5" d="M78.1717 65.3923L76.1959 65.3419C76.1431 65.3405 76.0993 65.3823 76.0979 65.4352L76.0784 66.2011C76.0771 66.254 76.1188 66.298 76.1716 66.2993L78.1474 66.3498C78.2002 66.3511 78.2441 66.3093 78.2454 66.2565L78.2649 65.4905C78.2663 65.4376 78.2245 65.3937 78.1717 65.3923Z" fill="#6C63FF"/>
<path d="M84.1654 65.5442L82.1896 65.4937C82.1368 65.4924 82.0929 65.5341 82.0916 65.587L82.0721 66.353C82.0707 66.4059 82.1124 66.4498 82.1652 66.4512L84.141 66.5016C84.1938 66.503 84.2377 66.4612 84.239 66.4083L84.2585 65.6423C84.2599 65.5895 84.2182 65.5455 84.1654 65.5442Z" fill="#6C63FF"/>
<path d="M90.4848 65.7054L88.5091 65.655C88.4563 65.6536 88.4124 65.6954 88.411 65.7483L88.3915 66.5142C88.3902 66.5671 88.4319 66.611 88.4847 66.6124L90.4605 66.6628C90.5133 66.6642 90.5571 66.6224 90.5585 66.5695L90.578 65.8036C90.5793 65.7507 90.5376 65.7067 90.4848 65.7054Z" fill="#6C63FF"/>
<path d="M97.2771 66.3272L95.4048 66.2709C95.3232 66.2685 95.2551 66.3327 95.2526 66.4144L95.2328 67.0763C95.2304 67.158 95.2945 67.2263 95.3761 67.2287L97.2484 67.285C97.33 67.2874 97.3981 67.2232 97.4005 67.1415L97.4204 66.4796C97.4228 66.3979 97.3587 66.3297 97.2771 66.3272Z" fill="#6C63FF"/>
<path d="M114.468 76.2931C114.711 76.2931 114.947 76.3776 115.135 76.5322C115.323 76.6868 115.452 76.902 115.5 77.141C115.547 77.3801 115.51 77.6282 115.396 77.8432C115.281 78.0582 115.095 78.2267 114.871 78.32C114.646 78.4132 114.396 78.4256 114.163 78.3548C113.93 78.2841 113.729 78.1347 113.593 77.932C113.458 77.7293 113.397 77.486 113.421 77.2434C113.445 77.0009 113.552 76.7741 113.724 76.6017C113.822 76.5037 113.938 76.4259 114.065 76.3729C114.193 76.32 114.33 76.2928 114.468 76.2931V76.2931ZM114.468 76.1292C114.227 76.1292 113.992 76.2007 113.792 76.3347C113.592 76.4687 113.436 76.6591 113.344 76.8819C113.252 77.1047 113.228 77.3498 113.275 77.5862C113.322 77.8226 113.438 78.0397 113.608 78.2101C113.779 78.3804 113.996 78.4963 114.232 78.543C114.468 78.5898 114.713 78.5654 114.935 78.4728C115.157 78.3803 115.347 78.2238 115.481 78.0231C115.614 77.8224 115.685 77.5867 115.685 77.3456C115.684 77.1857 115.653 77.0274 115.592 76.8798C115.53 76.7321 115.441 76.598 115.328 76.485C115.215 76.3721 115.081 76.2825 114.933 76.2215C114.786 76.1604 114.628 76.1291 114.468 76.1292V76.1292Z" fill="#6C63FF"/>
<path d="M114.142 77.7052L114.205 77.62C114.268 77.6812 114.351 77.7159 114.438 77.7169C114.544 77.7169 114.628 77.6626 114.628 77.5764C114.628 77.4902 114.551 77.421 114.336 77.421V77.3231C114.527 77.3231 114.6 77.2593 114.6 77.1763C114.6 77.0933 114.535 77.0539 114.44 77.0539C114.366 77.0562 114.294 77.0853 114.239 77.1359L114.171 77.0539C114.247 76.9869 114.344 76.9492 114.446 76.9475C114.61 76.9475 114.732 77.0273 114.732 77.1667C114.732 77.2646 114.661 77.3295 114.557 77.3646V77.37C114.611 77.3756 114.661 77.4001 114.698 77.4391C114.735 77.478 114.758 77.5289 114.761 77.5828C114.761 77.7339 114.619 77.8254 114.449 77.8254C114.392 77.8277 114.335 77.8182 114.283 77.7975C114.23 77.7768 114.182 77.7454 114.142 77.7052V77.7052Z" fill="#6C63FF"/>
<path d="M119.493 76.3644C119.736 76.3644 119.972 76.4488 120.16 76.6035C120.348 76.7581 120.477 76.9732 120.525 77.2123C120.572 77.4514 120.536 77.6995 120.421 77.9145C120.306 78.1294 120.12 78.2979 119.896 78.3912C119.671 78.4845 119.421 78.4968 119.188 78.4261C118.955 78.3553 118.754 78.2059 118.618 78.0033C118.483 77.8006 118.422 77.5573 118.446 77.3147C118.47 77.0721 118.577 76.8453 118.749 76.673C118.847 76.5749 118.962 76.4971 119.09 76.4441C119.218 76.3911 119.355 76.364 119.493 76.3644V76.3644ZM119.493 76.2005C119.252 76.2005 119.017 76.2719 118.817 76.4058C118.617 76.5397 118.461 76.73 118.369 76.9527C118.277 77.1753 118.253 77.4203 118.3 77.6567C118.347 77.893 118.462 78.1102 118.633 78.2806C118.803 78.451 119.02 78.567 119.256 78.614C119.492 78.661 119.736 78.6369 119.959 78.5447C120.181 78.4525 120.371 78.2963 120.505 78.0959C120.638 77.8955 120.71 77.66 120.71 77.419C120.71 77.2589 120.678 77.1004 120.617 76.9525C120.556 76.8046 120.467 76.6702 120.354 76.5571C120.241 76.4439 120.106 76.3541 119.959 76.293C119.811 76.2318 119.653 76.2003 119.493 76.2005V76.2005Z" fill="#5A5773"/>
<path d="M119.509 77.2912C119.509 77.239 119.509 77.1731 119.516 77.1209H119.509C119.479 77.1667 119.445 77.2124 119.415 77.2582L119.203 77.5359H119.778V77.6477H119.054V77.5583L119.485 76.99H119.644V77.8946H119.512L119.509 77.2912Z" fill="#5A5773"/>
<path d="M116.721 76.723C116.741 76.7025 116.769 76.6911 116.799 76.6911C116.828 76.6911 116.856 76.7025 116.877 76.723L117.425 77.2742C117.435 77.2842 117.444 77.2961 117.449 77.3092C117.455 77.3224 117.458 77.3366 117.458 77.3509C117.458 77.3652 117.455 77.3793 117.449 77.3925C117.444 77.4056 117.435 77.4176 117.425 77.4275L116.885 77.9702C116.875 77.9812 116.863 77.9899 116.85 77.9959C116.836 78.0019 116.821 78.005 116.807 78.005C116.792 78.005 116.777 78.0019 116.764 77.9959C116.75 77.9899 116.738 77.9812 116.728 77.9702C116.717 77.9602 116.709 77.9481 116.703 77.9347C116.697 77.9212 116.694 77.9067 116.694 77.892C116.694 77.8773 116.697 77.8628 116.703 77.8493C116.709 77.8358 116.717 77.8237 116.728 77.8138L117.191 77.3455L116.721 76.8794C116.71 76.8695 116.701 76.8573 116.695 76.8437C116.689 76.8302 116.686 76.8155 116.686 76.8007C116.686 76.7859 116.689 76.7712 116.695 76.7576C116.701 76.7441 116.71 76.7319 116.721 76.7219V76.723Z" fill="#5A5773"/>
<path d="M115.786 77.3455C115.785 77.5825 115.855 77.8143 115.986 78.0115C116.117 78.2087 116.304 78.3624 116.522 78.4533C116.741 78.5442 116.982 78.5681 117.214 78.522C117.446 78.4758 117.659 78.3618 117.826 78.1942C117.994 78.0266 118.107 77.8131 118.154 77.5807C118.2 77.3483 118.176 77.1074 118.085 76.8885C117.994 76.6697 117.841 76.4827 117.644 76.3513C117.447 76.22 117.215 76.15 116.979 76.1505C116.662 76.1508 116.359 76.2767 116.135 76.5008C115.912 76.7249 115.786 77.0287 115.786 77.3455V77.3455ZM115.969 77.3455C115.969 77.1108 116.05 76.8832 116.198 76.7015C116.347 76.5199 116.553 76.3954 116.783 76.3493C117.013 76.3032 117.252 76.3383 117.458 76.4488C117.665 76.5592 117.827 76.738 117.917 76.9548C118.007 77.1716 118.019 77.4129 117.951 77.6375C117.883 77.8622 117.74 78.0563 117.545 78.1867C117.35 78.3172 117.116 78.3759 116.883 78.353C116.65 78.33 116.432 78.2267 116.266 78.0607C116.172 77.9671 116.097 77.8557 116.046 77.7329C115.995 77.6102 115.969 77.4785 115.969 77.3455V77.3455Z" fill="#5A5773"/>
<path opacity="0.2" d="M51.626 31.9767H28.2999C28.0734 31.9767 27.8898 32.1606 27.8898 32.3875V34.104C27.8898 34.3309 28.0734 34.5148 28.2999 34.5148H51.626C51.8525 34.5148 52.0362 34.3309 52.0362 34.104V32.3875C52.0362 32.1606 51.8525 31.9767 51.626 31.9767Z" fill="#5A5773"/>
<path d="M85.3868 92.4312C85.2104 91.7927 85.0957 91.2287 85.0957 91.2287C85.0957 91.2287 85.1031 90.5263 84.7684 90.0102L84.762 89.8346L84.7121 88.5363C84.7924 88.2972 84.893 88.0655 85.0128 87.8436C85.2317 87.4264 84.9405 85.9408 84.9405 85.9408C84.9405 85.9408 83.9938 83.8668 84.1531 82.5216C84.3125 81.1765 82.1491 76.6527 82.1491 76.6527C82.1438 76.2088 82.1895 75.7657 82.2851 75.3321C82.3019 75.2409 82.3069 75.1479 82.3 75.0554C82.3 75.0437 82.3 75.0341 82.3 75.0214C82.3 75.0214 82.3 75.0288 82.3 75.032C82.2373 74.1519 81.4775 72.5259 81.4775 72.5259L81.4499 69.3727C81.4499 69.3727 81.8229 67.4977 81.0015 65.0331C80.7156 64.1732 80.5265 63.4836 80.4032 62.9494C80.3894 62.8898 80.3756 62.8313 80.3639 62.7759C81.8516 62.4897 82.979 62.2566 82.979 62.2566C82.979 62.2566 81.9748 58.6651 81.366 58.0532C80.7571 57.4413 80.213 55.4662 80.213 55.4662C80.213 55.4662 79.8103 52.9175 80.2725 52.1502C80.7348 51.3829 80.756 50.09 80.756 50.09C80.756 50.09 81.8463 49.2301 81.9727 48.863C82.0991 48.4958 82.301 47.67 82.2851 47.239C82.2692 46.8081 82.113 46.4292 82.1512 46.2004C82.1895 45.9716 81.7825 45.1256 81.9536 44.7106C81.9969 44.5832 82.0171 44.4492 82.0131 44.3147C82.0131 44.3147 82.0131 44.3062 82.0131 44.303C82.0131 44.2998 82.0131 44.303 82.0131 44.2977C82.0009 43.9411 81.9543 43.5865 81.8739 43.2388C81.5395 42.9766 81.1535 42.7883 80.7412 42.6865L80.7125 42.5907L80.6381 42.3343C80.5998 42.3109 80.5626 42.2907 80.5254 42.2726L80.5191 42.18L80.4946 41.8128L80.6381 40.9828C80.9271 39.5302 79.0027 39.3865 79.0027 39.3865C78.8784 39.1701 78.678 39.0077 78.4406 38.9311C78.0496 38.8097 78.4598 41.0977 78.6457 41.2371C78.7849 41.3435 79.2323 42.048 79.448 42.3949L79.482 42.4513C79.452 42.4815 79.424 42.5134 79.398 42.5471L79.4905 43.0441L79.5043 43.1196C79.3839 43.2823 79.2876 43.4615 79.2185 43.6517C79.2185 43.6517 79.584 44.0242 79.5309 44.4573C79.4777 44.8904 79.6754 45.4204 79.6849 45.4491C79.6637 45.4257 79.4065 45.1682 79.1632 45.2427C78.9199 45.3172 78.2387 45.5502 78.2387 45.5502C78.2387 45.5502 77.7276 45.6566 77.7786 45.7726C77.8296 45.8886 77.4514 46.3984 77.4514 46.3984L76.019 45.1394C76.0041 45.1011 75.9882 45.0628 75.9744 45.0224C75.9097 44.8373 75.8621 44.6468 75.832 44.453C75.9811 44.4107 76.1271 44.3577 76.2687 44.2945C76.412 44.2392 76.54 44.1501 76.6417 44.0348C76.7745 43.8635 76.7926 43.6379 76.8414 43.4293C76.9349 43.0228 77.1602 42.6546 77.31 42.2651C77.5676 41.6109 77.6354 40.8971 77.5056 40.2059C77.4753 39.9922 77.3948 39.7887 77.2707 39.6121C77.0327 39.3099 76.6194 39.1992 76.3144 38.963C76.0094 38.7267 75.8001 38.3553 75.4462 38.1819C75.1275 38.0265 74.7449 38.0606 74.3943 38.1329C73.7049 38.2718 73.0476 38.5386 72.4561 38.9194C72.2595 39.046 72.0438 39.1928 71.81 39.1599C71.6103 39.1311 71.4583 38.9779 71.3244 38.831C71.3244 38.8246 71.3244 38.8183 71.3298 38.8119L71.3138 38.7938C71.1801 39.1248 71.1206 39.4812 71.1396 39.8377C71.1396 39.8931 71.1438 39.9484 71.1523 40.0037C71.1523 40.0229 71.1523 40.0421 71.1576 40.0612C71.1587 40.0772 71.1587 40.0932 71.1576 40.1091V40.1091C71.1583 40.1338 71.1558 40.1585 71.1502 40.1825C71.1237 40.2547 71.082 40.3204 71.028 40.3751C70.9881 40.4245 70.9526 40.4772 70.9217 40.5326C70.9217 40.5135 70.9323 40.4943 70.9387 40.4762C70.8553 40.6083 70.8114 40.7616 70.8123 40.9179C70.809 41.0316 70.8506 41.1421 70.9281 41.2254C70.9999 41.2906 71.0778 41.3487 71.1608 41.3989C71.1391 41.5522 71.1313 41.7071 71.1374 41.8618C71.1568 42.3227 71.2951 42.7708 71.5386 43.1624C71.7822 43.554 72.1228 43.8758 72.5273 44.0965L72.5783 44.2136C72.7728 44.6723 72.9268 45.2097 72.8875 45.713C72.8875 45.7503 72.8801 45.7865 72.8748 45.8194C72.8578 45.8386 72.8418 45.8588 72.827 45.879C72.827 45.879 70.5456 45.9855 69.9898 45.5225C69.4341 45.0596 68.6796 46.7644 68.6796 46.7644C68.6796 46.7644 67.8678 46.9549 67.6989 46.8027C67.5299 46.6506 66.5757 46.823 66.5757 46.823C66.1702 46.4893 65.6532 46.3227 65.1295 46.3568C64.8012 46.1259 64.4416 45.9432 64.0616 45.8141V45.8141L64.0361 45.8056C63.8692 45.7519 63.6924 45.7363 63.5186 45.7598C63.5186 45.7598 62.3615 44.8745 62.0151 44.3881C61.6686 43.9018 60.0386 42.1129 60.0312 42.1055L60.0238 42.015L59.9961 41.7469C59.9501 41.7555 59.9036 41.7612 59.8569 41.7639C59.8477 41.7376 59.836 41.7068 59.8219 41.6713C59.722 41.4137 59.6016 41.1646 59.4616 40.9264C59.4616 40.9264 59.4489 40.5858 59.5445 40.5007C59.6402 40.4156 59.4521 39.1705 59.4521 39.1705C59.4521 39.1705 58.3502 36.8421 57.5118 38.6448C57.5118 38.6448 55.8435 39.8548 57.3322 41.1307C57.3322 41.1307 57.9166 41.3861 58.0059 41.6032C58.0643 41.7447 58.2747 42.1353 58.416 42.3971L58.4787 42.5141L58.4628 42.528L58.4926 42.7493L58.5042 42.8355C58.2397 43.0005 58.0622 43.1601 58.1111 43.2729C58.1984 43.4661 58.2612 43.6695 58.2981 43.8784C58.2981 43.8784 60.3808 46.2951 60.6794 47.3497C60.6794 47.3497 66.1305 50.3166 67.8923 50.4763L67.65 52.0725C67.65 52.0725 67.5926 53.0303 67.6287 53.3665C67.6649 53.7028 67.4906 55.2554 67.4906 55.2554C67.4906 55.2554 67.2781 57.5338 67.0294 57.8605C66.7808 58.1872 66.8828 59.5451 66.8828 59.5451C66.8464 60.1985 66.754 60.8476 66.6065 61.4851C66.3823 62.3556 66.6065 63.4134 66.6065 63.4134C66.6065 63.4134 65.7968 65.4875 67.87 64.0232C67.87 64.0232 68.9124 63.9167 70.1131 63.8305C70.1131 63.8699 70.1131 63.9093 70.1131 63.9508C70.1131 64.1062 70.1195 64.27 70.1248 64.451C70.1535 65.6215 70.2087 67.2295 70.3075 68.4448C70.4839 70.5933 71.3021 74.8298 71.3021 74.8298L71.3839 76.9699C71.3499 77.1726 71.3375 77.3785 71.3468 77.5839C71.3606 78.3387 71.5887 79.074 72.0045 79.7037L72.2234 81.1255C72.2234 81.1255 72.6484 82.0502 72.6718 82.6153C72.6723 82.6613 72.6688 82.7072 72.6612 82.7526C72.6495 82.825 72.6459 82.8985 72.6506 82.9718C72.6506 83.6209 73.1032 85.1565 73.1032 85.1565C73.1032 85.1565 73.1872 86.7187 73.422 86.8007C73.625 86.8709 73.1893 87.7116 73.0597 87.9542C73.0597 87.9393 73.0522 87.9244 73.049 87.9095L73.0225 87.9574C72.9787 88.0854 72.9589 88.2203 72.964 88.3554C72.9551 88.4627 72.9767 88.5704 73.0263 88.6659C73.076 88.7614 73.1516 88.8408 73.2445 88.895C73.6993 89.1504 73.9469 89.3675 73.5729 89.4728C73.4351 89.5012 73.2989 89.5367 73.1649 89.5792L73.1436 89.5281C73.095 89.552 73.0556 89.5912 73.0312 89.6396C73.0069 89.688 72.9989 89.743 73.0087 89.7963C73.0023 89.9102 73.0469 90.0762 73.168 90.321C73.574 91.1446 73.846 91.4522 73.846 91.4522L74.0245 91.4245C74.0005 91.4942 73.968 91.5607 73.9278 91.6224C73.8636 91.7233 73.7762 91.8073 73.6728 91.8672C73.5764 91.9301 73.4677 91.9718 73.354 91.9896C73.2272 91.9983 73.1037 92.0338 72.9916 92.0938C72.8795 92.1538 72.7814 92.2369 72.7037 92.3376C72.4827 92.6483 72.352 93.0655 72.827 93.4092L74.5207 93.9221C74.5207 93.9221 77.4099 94.186 77.2325 93.5454C77.055 92.9048 76.9413 92.3429 76.9413 92.3429C76.9374 91.9477 76.8425 91.5588 76.664 91.2063C76.6328 91.1488 76.5972 91.0936 76.5577 91.0414L76.6587 91.0254C76.6587 91.0254 76.8149 89.5899 77.0837 89.3079C77.1453 89.2419 77.1581 89.194 77.1421 89.1568C77.1676 89.078 77.0933 89.0354 76.9976 89.0131C76.9913 89.0322 76.9849 89.0503 76.9796 89.0706C76.8894 89.0549 76.7979 89.0485 76.7065 89.0514C76.7065 89.0514 76.5843 88.3065 76.8776 88.0234C76.9011 87.9915 76.9176 87.9551 76.9262 87.9164C76.9348 87.8778 76.9353 87.8377 76.9275 87.7989C76.9262 87.6964 76.9119 87.5945 76.885 87.4956C76.885 87.4956 76.8786 87.5073 76.8744 87.5137C76.6948 86.8411 76.1359 85.7823 76.1359 85.7823C76.1359 85.7823 76.087 85.1033 76.2634 84.8245C76.4398 84.5457 76.0976 81.1318 76.0976 81.1318C76.0976 81.1318 76.104 79.4749 75.8638 78.713C75.6237 77.951 76.0519 77.0263 76.0519 77.0263C76.0519 77.0263 76.0519 77.0082 76.0445 76.9773C76.0467 76.9736 76.0485 76.9697 76.0498 76.9656C76.0498 76.9656 76.036 76.8592 76.0126 76.7059C76.0126 76.7059 76.0126 76.7166 76.0126 76.7219C75.9489 76.2856 75.8288 75.496 75.7491 75.132C75.6354 74.6149 75.6566 72.1172 75.6566 72.1172L76.0371 71.036L76.8552 72.8451L77.7436 75.2619C77.7436 75.2619 78.158 75.7631 78.1867 76.2867C78.1867 76.3122 78.1867 76.3377 78.1867 76.3633C78.1867 76.4197 78.1867 76.4697 78.1867 76.5272C78.1848 76.8369 78.2816 77.1393 78.463 77.3902C78.463 77.3902 78.718 78.5374 79.0559 78.8194C79.3938 79.1014 79.4172 79.6707 79.4172 79.6707C79.4172 79.6707 79.8783 81.3319 80.077 81.6192C80.2439 81.8619 80.2789 82.544 80.2895 82.7526C80.2895 82.7909 80.2895 82.8132 80.2895 82.8132C80.2895 82.8132 80.3682 83.4102 80.3852 83.9146C80.3852 83.9764 80.3852 84.037 80.3852 84.0934C80.3852 84.0934 80.3852 84.0849 80.3852 84.0807C80.3901 84.218 80.3791 84.3555 80.3522 84.4904C80.3522 84.4967 80.3522 84.5053 80.3459 84.5138C80.3459 84.485 80.3459 84.4563 80.3459 84.4286C80.2764 84.7738 80.2497 85.1262 80.2662 85.4779C80.2789 86.0813 80.3979 86.7911 80.7783 87.1965C81.4372 87.8978 81.8314 87.7914 81.8314 87.7914C81.8314 87.7914 81.5625 88.7098 81.1938 88.9056C81.18 88.9129 81.1672 88.9218 81.1556 88.9322C81.1556 88.9152 81.1471 88.8971 81.1439 88.8801C81.1049 88.9271 81.0762 88.9818 81.0596 89.0407C81.0429 89.0995 81.0387 89.1611 81.0472 89.2217C81.0355 89.6218 81.3118 90.2592 81.5615 90.5476C81.6521 90.6303 81.7615 90.6895 81.8803 90.72C81.862 90.734 81.8428 90.7468 81.8229 90.7583C81.7822 90.783 81.7399 90.805 81.6964 90.8243C81.6369 90.8536 81.573 90.873 81.5073 90.8818C81.3806 90.8903 81.2572 90.9258 81.1453 90.9858C81.0333 91.0458 80.9354 91.1289 80.858 91.2298C80.637 91.5394 80.5053 91.9566 80.9802 92.3003L82.6751 92.8132C82.6751 92.8132 85.5643 93.0718 85.3868 92.4312Z" fill="url(#paint1_linear)"/>
<path d="M74.4463 93.9253L72.8067 93.4145C72.3466 93.0697 72.472 92.6526 72.6866 92.3429C72.7602 92.243 72.8543 92.1603 72.9627 92.1002C73.0711 92.0402 73.1911 92.0042 73.3146 91.9949C73.4239 91.9772 73.528 91.9358 73.6196 91.8736C73.7207 91.8133 73.8057 91.7293 73.8672 91.6288C73.9778 91.4366 74.0334 91.2175 74.0276 90.9956C74.0276 90.9956 75.7841 90.4061 76.2899 90.9084C76.3803 90.9992 76.4569 91.1028 76.5173 91.2159C76.6909 91.5691 76.7835 91.9567 76.7883 92.3503C76.7883 92.3503 76.8998 92.9122 77.072 93.5528C77.2441 94.1935 74.4463 93.9253 74.4463 93.9253Z" fill="#2D293D"/>
<path d="M82.3382 92.8218L80.6976 92.3067C80.2375 91.9619 80.3639 91.5448 80.5775 91.2351C80.6509 91.1352 80.745 91.0524 80.8534 90.9925C80.9619 90.9326 81.082 90.897 81.2055 90.8882C81.2692 90.8794 81.331 90.8599 81.3883 90.8307C81.4308 90.8119 81.472 90.7903 81.5115 90.7658C81.9546 90.4987 81.9185 89.8878 81.9185 89.8878C81.9185 89.8878 83.675 89.2983 84.1818 89.8006C84.2494 89.8686 84.3093 89.9439 84.3603 90.0251C84.6855 90.5412 84.6791 91.2457 84.6791 91.2457C84.6791 91.2457 84.7918 91.8087 84.9628 92.4482C85.1339 93.0878 82.3382 92.8218 82.3382 92.8218Z" fill="#2D293D"/>
<path opacity="0.1" d="M76.2899 90.9041C76.3803 90.9949 76.4569 91.0986 76.5173 91.2117V91.2117L73.8672 91.6235C73.9778 91.4312 74.0333 91.2121 74.0276 90.9903C74.0276 90.9903 75.7841 90.4018 76.2899 90.9041Z" fill="black"/>
<path opacity="0.1" d="M84.3571 90.0251L84.3762 90.5242C83.9894 91.2234 81.9801 91.151 81.385 90.8307C81.4276 90.8119 81.4687 90.7902 81.5083 90.7658C81.9514 90.4987 81.9152 89.8878 81.9152 89.8878C81.9152 89.8878 83.6717 89.2983 84.1786 89.8006C84.2462 89.8686 84.3061 89.9439 84.3571 90.0251V90.0251Z" fill="black"/>
<path d="M84.5908 87.8617C84.4748 88.0836 84.3778 88.315 84.3007 88.5534L84.3698 90.3433C83.9448 91.1084 81.5826 90.9499 81.25 90.5561C80.9174 90.1624 80.5381 89.1089 80.893 88.9131C81.2479 88.7172 81.5072 87.801 81.5072 87.801C81.5072 87.801 81.1257 87.9074 80.4871 87.2051C79.8485 86.5027 79.9675 84.8873 80.0621 84.4978C80.1566 84.1083 79.9962 82.8207 79.9962 82.8207C79.9962 82.8207 79.9845 81.914 79.7922 81.6267C79.5998 81.3393 79.1546 79.6771 79.1546 79.6771C79.1546 79.6771 79.1333 79.1099 78.805 78.8258C78.4767 78.5416 78.2291 77.3955 78.2291 77.3955C78.0328 77.1138 77.9397 76.7729 77.9656 76.4303C78.0112 75.861 77.5352 75.2661 77.5352 75.2661L76.6724 72.8494L75.8776 71.0403L75.511 72.1215C75.511 72.1215 75.494 74.618 75.6045 75.1352C75.715 75.6524 75.9041 77.0305 75.9041 77.0305C75.9041 77.0305 75.4855 77.9542 75.7192 78.7162C75.953 79.4781 75.9477 81.1361 75.9477 81.1361C75.9477 81.1361 76.2835 84.55 76.1124 84.8288C75.9413 85.1076 75.9913 85.7865 75.9913 85.7865C75.9913 85.7865 76.9954 87.7446 76.7117 88.0277C76.428 88.3107 76.547 89.0546 76.547 89.0546C76.547 89.0546 77.1845 89.0301 76.9189 89.3132C76.6532 89.5963 76.5098 91.0308 76.5098 91.0308L73.7864 91.4564C73.7864 91.4564 73.5228 91.1489 73.1286 90.3241C72.7344 89.4994 73.1679 89.5739 73.5282 89.4728C73.8884 89.3717 73.6504 89.1536 73.2094 88.895C72.7684 88.6364 72.9969 88.0181 72.9969 88.0181C72.9969 88.0181 73.61 86.8826 73.3805 86.8007C73.1509 86.7187 73.0681 85.1565 73.0681 85.1565C73.0681 85.1565 72.5442 83.3155 72.643 82.8154C72.7418 82.3152 72.218 81.1297 72.218 81.1297L72.0055 79.708C71.1278 78.3277 71.3934 77.0263 71.3934 77.0263L71.3084 74.8277C71.3084 74.8277 70.5115 70.5923 70.3383 68.4427C70.232 67.0656 70.1714 65.1842 70.1459 64.0093C70.131 63.3495 70.1257 62.9132 70.1257 62.9132L79.8612 61.517C79.8612 61.517 79.8687 61.9693 80.0939 62.9643C80.214 63.4964 80.3978 64.1881 80.6762 65.049C81.4732 67.5136 81.1151 69.3887 81.1151 69.3887L81.1459 72.5419C81.1459 72.5419 82.0863 74.6159 81.9333 75.3481C81.8429 75.7819 81.8005 76.2245 81.8068 76.6676C81.8068 76.6676 83.9065 81.1936 83.7546 82.5387C83.6026 83.8838 84.5196 85.9579 84.5196 85.9579C84.5196 85.9579 84.8012 87.4445 84.5908 87.8617Z" fill="#575988"/>
<path opacity="0.05" d="M78.549 76.2718L81.5093 75.7599C81.5093 75.7599 79.8942 77.5477 78.549 76.2718Z" fill="black"/>
<path opacity="0.1" d="M80.9675 72.8654C80.9675 72.8654 81.1098 73.9146 80.4797 74.336C80.4797 74.336 81.6273 74.1104 80.9675 72.8654Z" fill="black"/>
<path opacity="0.1" d="M80.6561 69.5185C80.6561 69.5185 78.2472 71.665 77.3366 71.5298C76.4259 71.3947 80.6561 69.5185 80.6561 69.5185Z" fill="black"/>
<path opacity="0.1" d="M74.9 77.3764C74.9 77.3764 73.0256 77.8777 72.998 78.6407C72.9703 79.4037 74.9 77.3764 74.9 77.3764Z" fill="black"/>
<path opacity="0.05" d="M75.6768 86.8091C75.6768 86.8091 73.0267 87.4104 73.7971 87.7211C74.5674 88.0319 75.8234 88.2532 75.8234 88.2532C75.8234 88.2532 76.6842 88.2681 75.6768 86.8091Z" fill="black"/>
<g opacity="0.05">
<path opacity="0.05" d="M73.2785 88.2809C73.2101 88.2412 73.1514 88.1866 73.1067 88.1213C73.062 88.0559 73.0325 87.9814 73.0203 87.9032L72.9948 87.9521C72.9948 87.9521 72.7684 88.5736 73.2073 88.829C73.2583 88.8577 73.305 88.8864 73.3507 88.9152C73.4283 88.8971 73.5144 88.8833 73.5951 88.8588C73.9585 88.7545 73.7194 88.5363 73.2785 88.2809Z" fill="black"/>
<path opacity="0.05" d="M76.7064 87.9681C76.7776 87.8968 76.7681 87.7233 76.7149 87.5009C76.6012 87.6818 76.5821 87.9553 76.5885 88.1628C76.613 88.09 76.6532 88.0235 76.7064 87.9681Z" fill="black"/>
<path opacity="0.05" d="M75.8669 76.707C75.7788 76.9786 75.7287 77.2612 75.7181 77.5466C75.7618 77.3476 75.8237 77.1531 75.903 76.9656C75.903 76.9656 75.8892 76.8687 75.8669 76.707Z" fill="black"/>
<path opacity="0.05" d="M81.9333 75.2853C81.9484 75.2032 81.9537 75.1196 81.9493 75.0363C81.9216 75.2076 81.9046 75.3651 81.8929 75.5034C81.9046 75.43 81.9185 75.3598 81.9333 75.2853Z" fill="black"/>
<path opacity="0.05" d="M76.1124 84.7681C76.1464 84.7117 76.1603 84.5233 76.1603 84.2626C76.0847 84.4667 76.0486 84.6834 76.054 84.9011C76.0681 84.8546 76.0877 84.8099 76.1124 84.7681V84.7681Z" fill="black"/>
<path opacity="0.05" d="M76.8371 89.0195C76.6702 89.5367 76.5789 90.4231 76.5789 90.4231L73.8554 90.8488C73.8554 90.8488 73.5919 90.5412 73.1998 89.7144C73.1658 89.642 73.1371 89.5771 73.1148 89.5175C72.9544 89.5994 72.8959 89.7718 73.1307 90.2624C73.525 91.0871 73.7874 91.3947 73.7874 91.3947L76.5109 90.969C76.5109 90.969 76.6596 89.5335 76.921 89.2504C77.0475 89.1142 76.9593 89.0514 76.8371 89.0195Z" fill="black"/>
<path opacity="0.05" d="M73.0659 85.0895C73.0659 85.0895 73.1488 86.6527 73.3783 86.7347C73.4846 86.4708 73.5494 86.2228 73.4463 86.1866C73.2168 86.1047 73.1339 84.5414 73.1339 84.5414C73.1339 84.5414 72.6101 82.7015 72.7089 82.2003C72.8077 81.699 72.2839 80.5146 72.2839 80.5146L72.0713 79.0939C71.2032 77.7201 71.4699 76.4165 71.4699 76.4165L71.3849 74.219C71.3849 74.219 70.588 69.9836 70.4148 67.8339C70.3085 66.458 70.2479 64.5755 70.2224 63.4006C70.2224 63.1878 70.2139 63.0005 70.2107 62.8419L70.1332 62.8526C70.1332 62.8526 70.1332 63.2889 70.1523 63.9487C70.1789 65.1192 70.2341 67.005 70.3457 68.3809C70.5189 70.5306 71.3158 74.766 71.3158 74.766L71.3934 76.9624C71.3934 76.9624 71.1267 78.266 71.9948 79.6399L72.2074 81.0616C72.2074 81.0616 72.7291 82.2439 72.6324 82.7462C72.5357 83.2485 73.0659 85.0895 73.0659 85.0895Z" fill="black"/>
<path opacity="0.05" d="M81.3191 89.9453C81.0839 89.6323 80.9216 89.2705 80.8441 88.8864C80.5742 89.1493 80.9334 90.1166 81.249 90.4933C81.5816 90.8892 83.9437 91.0478 84.3677 90.2805L84.3507 89.8484C83.7631 90.4816 81.6326 90.3199 81.3191 89.9453Z" fill="black"/>
<path opacity="0.05" d="M84.6589 87.253C84.5429 87.4749 84.4458 87.7063 84.3688 87.9447L84.3805 88.2639C84.4272 88.1458 84.4952 87.9883 84.593 87.801C84.6578 87.6201 84.6842 87.4276 84.6706 87.2359C84.6642 87.2423 84.6621 87.2476 84.6589 87.253Z" fill="black"/>
<path opacity="0.05" d="M81.3733 87.7372C81.4524 87.5594 81.5199 87.3767 81.5752 87.1902C81.5752 87.1902 81.1938 87.2966 80.5552 86.5942C80.0908 86.0834 80.0239 85.0884 80.0653 84.435C79.9665 84.8245 79.8475 86.4399 80.4903 87.1412C80.9037 87.5999 81.2108 87.7138 81.3733 87.7372Z" fill="black"/>
<path opacity="0.05" d="M80.0005 82.7579C80.0569 83.2027 80.0892 83.6503 80.0972 84.0987C80.1055 84.027 80.1183 83.956 80.1355 83.8859C80.2343 83.4964 80.0696 82.2098 80.0696 82.2098C80.0696 82.2098 80.0579 81.3021 79.8655 81.0147C79.6732 80.7274 79.228 79.0652 79.228 79.0652C79.228 79.0652 79.2067 78.499 78.8784 78.2138C78.55 77.9286 78.3003 76.7868 78.3003 76.7868C78.1034 76.5054 78.0103 76.1642 78.0368 75.8216C78.0825 75.2523 77.6118 74.6585 77.6118 74.6585L76.7415 72.2375L75.9467 70.4284L75.5801 71.5138C75.5801 71.5138 75.5801 71.6479 75.5801 71.8586L75.8776 70.9807L76.6724 72.7898L77.5363 75.2076C77.5363 75.2076 78.0124 75.8024 77.9614 76.3707C77.9352 76.7136 78.0283 77.055 78.2249 77.337C78.2249 77.337 78.4735 78.4841 78.8008 78.7672C79.1281 79.0503 79.1515 79.6185 79.1515 79.6185C79.1515 79.6185 79.5999 81.2808 79.789 81.5681C79.9782 81.8554 80.0005 82.7579 80.0005 82.7579Z" fill="black"/>
</g>
<path d="M80.298 40.9966L80.1599 41.8309L80.1843 42.198L80.2013 42.4694L79.262 42.6035L79.1483 42.4119C78.9358 42.065 78.5054 41.3595 78.3705 41.2531C78.1898 41.1137 77.7903 38.8257 78.1697 38.947C78.401 39.0268 78.5947 39.1894 78.7137 39.4035C78.7137 39.4035 80.5764 39.5451 80.298 40.9966Z" fill="#FFCDD3"/>
<path opacity="0.1" d="M80.2013 42.4694L79.262 42.6035L79.1483 42.4119C79.2698 42.262 79.4395 42.1589 79.6283 42.1201C79.8172 42.0813 80.0137 42.1092 80.1843 42.1991L80.2013 42.4694Z" fill="black"/>
<path d="M80.4574 42.9089L79.2237 43.2452L79.1897 43.0611L79.1005 42.5641C79.1005 42.5641 79.568 41.8873 80.2991 42.3513L80.3713 42.6035L80.4574 42.9089Z" fill="#DCE6F2"/>
<path d="M60.2214 41.8607L58.9207 42.627C58.9207 42.627 58.8655 42.5205 58.79 42.3801C58.654 42.1193 58.45 41.7267 58.3926 41.5862C58.3055 41.3734 57.7402 41.1116 57.7402 41.1116C56.2983 39.8346 57.9113 38.6267 57.9113 38.6267C58.7199 36.8251 59.79 39.1588 59.79 39.1588C59.79 39.1588 59.9727 40.4007 59.8803 40.489C59.7878 40.5774 59.8006 40.9147 59.8006 40.9147C59.9374 41.1529 60.0543 41.4021 60.1502 41.6596C60.1969 41.7841 60.2214 41.8607 60.2214 41.8607Z" fill="#FFCDD3"/>
<path opacity="0.1" d="M60.2213 41.8607L58.9207 42.6269C58.9207 42.6269 58.8655 42.5205 58.79 42.38C58.9717 42.2161 59.6157 41.65 59.8356 41.6659C59.9416 41.676 60.0484 41.676 60.1544 41.6659C60.1969 41.7841 60.2213 41.8607 60.2213 41.8607Z" fill="black"/>
<path d="M60.3722 42.2587L58.9079 43.0526L58.8654 42.7334L58.8357 42.512C58.8357 42.512 59.673 41.7362 59.9291 41.7543C60.0592 41.7677 60.1905 41.7623 60.3191 41.7384L60.3467 42.0076L60.3722 42.2587Z" fill="#DCE6F2"/>
<path d="M76.8892 46.6314C76.8892 46.6314 70.4074 47.6179 71.6081 47.1752C72.4443 46.8666 72.761 46.3143 72.8078 45.713C72.846 45.2097 72.7015 44.6723 72.5081 44.2136C72.3384 43.8081 72.128 43.4209 71.8801 43.0579C71.8801 43.0579 76.7521 40.124 75.8563 42.6535C75.7168 43.0363 75.6369 43.4383 75.6194 43.8454C75.6041 44.2496 75.6628 44.6532 75.7926 45.0362C76.004 45.6592 76.3835 46.2113 76.8892 46.6314V46.6314Z" fill="#FFCDD3"/>
<path opacity="0.1" d="M75.8563 42.6536C75.7168 43.0363 75.6369 43.4383 75.6194 43.8454C75.1657 44.2583 74.6503 44.252 73.9904 44.2775C73.4825 44.2966 72.9278 44.4414 72.5113 44.2126C72.3416 43.807 72.1312 43.4198 71.8833 43.0569C71.8833 43.0569 76.7521 40.124 75.8563 42.6536Z" fill="black"/>
<path d="M73.8013 44.4562C75.2896 44.4562 76.4961 43.248 76.4961 41.7575C76.4961 40.267 75.2896 39.0588 73.8013 39.0588C72.313 39.0588 71.1066 40.267 71.1066 41.7575C71.1066 43.248 72.313 44.4562 73.8013 44.4562Z" fill="#FFCDD3"/>
<path opacity="0.1" d="M76.8892 46.6314C76.8892 46.6314 70.4074 47.6179 71.6081 47.1752C72.4443 46.8665 72.761 46.3142 72.8078 45.713C73.1191 45.349 73.7641 45.0745 74.1732 44.9191C74.5503 44.7762 74.9622 44.7535 75.3527 44.8542C75.5064 44.8936 75.6535 44.9552 75.7894 45.0372C76.0019 45.6602 76.3825 46.212 76.8892 46.6314V46.6314Z" fill="black"/>
<path opacity="0.1" d="M80.4574 42.9089L79.2237 43.2452L79.1897 43.0611C79.3159 42.8725 79.497 42.7275 79.7085 42.6458C79.9199 42.5641 80.1514 42.5497 80.3713 42.6046L80.4574 42.9089Z" fill="black"/>
<path opacity="0.1" d="M60.3722 42.2587L58.908 43.0526L58.8655 42.7333C59.3872 42.397 60.2702 42.0384 60.3467 42.0075L60.3722 42.2587Z" fill="black"/>
<path opacity="0.1" d="M80.0961 62.9633C77.5905 63.4592 74.0213 64.1168 73.4453 63.9647C72.9672 63.8391 71.4593 63.9125 70.1513 64.0083C70.1364 63.3485 70.1311 62.9122 70.1311 62.9122L79.8666 61.516C79.8666 61.516 79.8708 61.9683 80.0961 62.9633Z" fill="black"/>
<path d="M82.589 62.2736C82.589 62.2736 74.34 64.021 73.4379 63.7837C72.5358 63.5464 67.973 64.0168 67.973 64.0168C65.9668 65.4779 66.7489 63.4059 66.7489 63.4059C66.7489 63.4059 66.5268 62.3481 66.7425 61.4777C66.8844 60.8398 66.9733 60.1913 67.0081 59.5387C67.0081 59.5387 66.9104 58.1808 67.1473 57.8541C67.3843 57.5274 67.5904 55.2501 67.5904 55.2501C67.5904 55.2501 67.7573 53.6996 67.7222 53.3612C67.6871 53.0228 67.7403 52.0672 67.7403 52.0672L67.973 50.4709C66.2728 50.3092 60.9875 47.3359 60.9875 47.3359C60.6974 46.2802 58.6785 43.8624 58.6785 43.8624C58.6429 43.6539 58.5819 43.4505 58.4968 43.2569C58.3469 42.8994 60.3552 42.0959 60.3552 42.0959C60.3552 42.0959 61.9427 43.8954 62.2785 44.3817C62.6143 44.8681 63.7364 45.7545 63.7364 45.7545C63.9046 45.7319 64.0758 45.7479 64.2369 45.8013C64.246 45.803 64.2549 45.8055 64.2635 45.8088C64.6331 45.9392 64.982 46.1224 65.2995 46.3526C66.1113 46.276 66.6989 46.8208 66.6989 46.8208C66.6989 46.8208 67.6213 46.6495 67.786 46.8017C67.9507 46.9538 68.7359 46.7655 68.7359 46.7655C68.7359 46.7655 69.4638 45.0575 70.0025 45.5247C70.5413 45.9918 72.7493 45.8843 72.7493 45.8843C73.0288 45.481 73.7333 45.1724 74.1753 45.0107C74.5524 44.8678 74.9644 44.8451 75.3548 44.9458C75.5241 44.989 75.6848 45.0609 75.8298 45.1586L77.2197 46.4207C77.2197 46.4207 77.5852 45.9078 77.5385 45.796C77.4917 45.6843 77.9837 45.5747 77.9837 45.5747C77.9837 45.5747 78.6319 45.3448 78.8784 45.2682C79.1249 45.1916 79.3629 45.4512 79.3831 45.4746C79.3746 45.4459 79.1834 44.9042 79.2333 44.4828C79.2832 44.0614 78.9305 43.6773 78.9305 43.6773C79.6477 41.6979 81.4977 43.2612 81.4977 43.2612C81.4977 43.2612 81.7421 44.3179 81.5763 44.7329C81.4106 45.1479 81.8058 45.995 81.7697 46.2228C81.7336 46.4505 81.8834 46.8315 81.9004 47.2614C81.9174 47.6913 81.7198 48.5065 81.5944 48.8779C81.469 49.2493 80.4255 50.1027 80.4255 50.1027C80.4255 50.1027 80.4075 51.3968 79.9612 52.1619C79.5149 52.927 79.907 55.4779 79.907 55.4779C79.907 55.4779 80.4383 57.454 81.0259 58.067C81.6135 58.6799 82.589 62.2736 82.589 62.2736Z" fill="#656691"/>
<path opacity="0.1" d="M69.9111 47.8307C69.9111 47.8307 69.6338 47.0921 69.4043 47.0336C69.1761 46.9589 68.9531 46.8689 68.7369 46.7644L68.8719 46.4792C68.8719 46.4792 69.7315 46.6803 69.876 46.924C70.0206 47.1677 69.9111 47.8307 69.9111 47.8307Z" fill="black"/>
<path opacity="0.1" d="M65.3006 46.3515C65.2634 46.5803 63.2583 46.8613 63.2583 46.8613L64.237 45.7971L64.2625 45.8056C64.633 45.9365 64.9826 46.1204 65.3006 46.3515V46.3515Z" fill="black"/>
<path d="M59.3543 43.6475C59.4541 43.6475 59.535 43.5665 59.535 43.4666C59.535 43.3667 59.4541 43.2857 59.3543 43.2857C59.2546 43.2857 59.1737 43.3667 59.1737 43.4666C59.1737 43.5665 59.2546 43.6475 59.3543 43.6475Z" fill="#575988"/>
<path d="M59.5997 44.0008C59.6995 44.0008 59.7803 43.9198 59.7803 43.8199C59.7803 43.7199 59.6995 43.6389 59.5997 43.6389C59.4999 43.6389 59.4191 43.7199 59.4191 43.8199C59.4191 43.9198 59.4999 44.0008 59.5997 44.0008Z" fill="#575988"/>
<path d="M59.8388 44.3264C59.9386 44.3264 60.0195 44.2454 60.0195 44.1455C60.0195 44.0456 59.9386 43.9646 59.8388 43.9646C59.7391 43.9646 59.6582 44.0456 59.6582 44.1455C59.6582 44.2454 59.7391 44.3264 59.8388 44.3264Z" fill="#575988"/>
<path d="M60.0907 44.6797C60.1904 44.6797 60.2713 44.5987 60.2713 44.4988C60.2713 44.3989 60.1904 44.3179 60.0907 44.3179C59.9909 44.3179 59.91 44.3989 59.91 44.4988C59.91 44.5987 59.9909 44.6797 60.0907 44.6797Z" fill="#575988"/>
<path d="M81.4174 43.8058C81.4992 43.8058 81.5655 43.7394 81.5655 43.6575C81.5655 43.5755 81.4992 43.5091 81.4174 43.5091C81.3356 43.5091 81.2693 43.5755 81.2693 43.6575C81.2693 43.7394 81.3356 43.8058 81.4174 43.8058Z" fill="#575988"/>
<path d="M81.4524 44.1389C81.5342 44.1389 81.6005 44.0725 81.6005 43.9906C81.6005 43.9086 81.5342 43.8422 81.4524 43.8422C81.3706 43.8422 81.3043 43.9086 81.3043 43.9906C81.3043 44.0725 81.3706 44.1389 81.4524 44.1389Z" fill="#575988"/>
<path d="M81.4854 44.472C81.5672 44.472 81.6335 44.4056 81.6335 44.3237C81.6335 44.2417 81.5672 44.1753 81.4854 44.1753C81.4036 44.1753 81.3373 44.2417 81.3373 44.3237C81.3373 44.4056 81.4036 44.472 81.4854 44.472Z" fill="#575988"/>
<path opacity="0.1" d="M70.1588 53.971C70.1364 53.9444 75.4845 60.1985 79.2971 56.3185C79.3013 56.3185 73.0777 57.4093 70.1588 53.971Z" fill="black"/>
<path opacity="0.1" d="M67.3556 57.437C67.3556 57.437 70.4105 57.4029 70.7633 58.2691L70.7984 59.1843C70.7136 59.2363 70.6169 59.2656 70.5176 59.2695C70.4183 59.2734 70.3196 59.2518 70.231 59.2067C69.9122 59.0513 68.0357 58.184 67.4023 58.6608L67.3556 57.437Z" fill="black"/>
<path d="M67.4141 57.4349C67.4141 57.4349 70.3362 57.4019 70.673 58.2288L70.707 59.1003C70.6258 59.1497 70.5333 59.1776 70.4383 59.1813C70.3433 59.1851 70.2489 59.1645 70.1641 59.1216C69.8633 58.9747 68.0644 58.1468 67.4587 58.6023L67.4141 57.4349Z" fill="#656691"/>
<path opacity="0.1" d="M68.7678 50.7412C69.1078 51.4516 69.5316 52.1186 70.0302 52.728C70.5731 53.4029 71.2224 53.9845 71.9525 54.4499C71.9525 54.4499 68.8358 51.1541 68.7678 50.7412Z" fill="black"/>
<path opacity="0.1" d="M67.6329 47.2231C67.6329 47.2231 68.2269 49.4046 69.5679 50.1016L67.6329 47.2231Z" fill="black"/>
<path opacity="0.1" d="M66.8616 47.4752C66.8467 47.4348 66.4758 49.2333 68.6573 50.1357C68.6573 50.1367 67.735 49.8622 66.8616 47.4752Z" fill="black"/>
<path opacity="0.1" d="M80.1313 45.4852C80.0972 45.4852 81.2162 46.1408 81.5243 46.4526C81.5243 46.4526 80.7741 45.4203 80.1313 45.4852Z" fill="black"/>
<path d="M73.168 44.2307C73.2116 44.3679 73.2647 44.518 73.3922 44.5861C73.4726 44.6221 73.5604 44.6381 73.6483 44.6329C74.4707 44.6531 75.3261 44.6563 76.0731 44.3137C76.2131 44.2578 76.3372 44.1683 76.4344 44.0529C76.563 43.8827 76.58 43.6571 76.6268 43.4485C76.7171 43.042 76.9307 42.6738 77.0794 42.2843C77.3298 41.6256 77.3945 40.9107 77.2664 40.2177C77.2374 40.0046 77.1592 39.8013 77.038 39.6238C76.8085 39.3206 76.4068 39.2099 76.1093 38.9736C75.8117 38.7374 75.612 38.3649 75.2688 38.1915C74.9595 38.035 74.5898 38.0691 74.2508 38.1404C73.5831 38.2812 72.9487 38.5488 72.3817 38.9289C72.1915 39.0556 71.9832 39.2024 71.7569 39.1684C71.5582 39.1397 71.4094 38.979 71.2766 38.8289C71.1307 39.2048 71.0771 39.6103 71.1204 40.0112C71.1305 40.07 71.1305 40.1301 71.1204 40.1889C71.095 40.2604 71.0548 40.3257 71.0024 40.3805C70.809 40.6242 70.6964 41.0009 70.9057 41.2318C70.9971 41.3318 71.1331 41.3829 71.2245 41.4851C71.3839 41.6692 71.3435 41.9437 71.3488 42.1864C71.3433 42.2708 71.3678 42.3545 71.4179 42.4226C71.4633 42.4616 71.5179 42.4882 71.5765 42.5C71.6351 42.5117 71.6958 42.5082 71.7526 42.4897C71.8659 42.4503 71.9858 42.4341 72.1054 42.4418C72.2344 42.4781 72.3469 42.5578 72.4242 42.6674C72.8184 43.1303 72.9874 43.6549 73.168 44.2307Z" fill="#2D293D"/>
<g opacity="0.1">
<path opacity="0.1" d="M76.5162 43.8391C76.4194 43.9541 76.2957 44.0433 76.156 44.0987C75.4122 44.4446 74.5536 44.4414 73.7301 44.418C73.6423 44.4225 73.5546 44.4065 73.474 44.3711C73.3476 44.303 73.2934 44.1519 73.2498 44.0146C73.0692 43.44 72.9002 42.9143 72.506 42.446C72.4283 42.3371 72.3158 42.2579 72.1872 42.2215C72.0677 42.2139 71.9478 42.2298 71.8344 42.2683C71.7775 42.287 71.7167 42.2907 71.658 42.2791C71.5992 42.2676 71.5443 42.2412 71.4986 42.2024C71.449 42.1336 71.4246 42.0498 71.4296 41.965C71.4243 41.7224 71.4646 41.4479 71.3063 41.2648C71.2171 41.1584 71.081 41.1116 70.9875 41.0105C70.9283 40.9355 70.8903 40.8459 70.8776 40.7512C70.8649 40.6564 70.8779 40.56 70.9153 40.472C70.7803 40.7061 70.7293 41.0041 70.9047 41.1956C70.995 41.2957 71.1321 41.3468 71.2234 41.45C71.3828 41.633 71.3424 41.9076 71.3478 42.1502C71.3422 42.2347 71.3667 42.3183 71.4168 42.3865C71.4622 42.4254 71.5168 42.4521 71.5754 42.4638C71.634 42.4756 71.6947 42.472 71.7515 42.4535C71.8649 42.4147 71.9847 42.3984 72.1043 42.4056C72.2333 42.4419 72.3459 42.5216 72.4231 42.6312C72.8216 43.0995 72.9895 43.6241 73.1669 44.1998C73.2105 44.3371 73.2636 44.4871 73.3911 44.5563C73.4716 44.5918 73.5594 44.6078 73.6472 44.6031C74.4697 44.6223 75.3251 44.6255 76.0721 44.2839C76.2118 44.2281 76.3358 44.1389 76.4334 44.0242C76.4809 43.9561 76.5168 43.8806 76.5396 43.8007C76.5332 43.8135 76.5258 43.8242 76.5162 43.8391Z" fill="black"/>
<path opacity="0.1" d="M71.1277 40.1113C71.1627 40.0707 71.1887 40.0232 71.2042 39.9718C71.2148 39.9134 71.2148 39.8536 71.2042 39.7952C71.1684 39.4659 71.1984 39.1327 71.2924 38.8151L71.2764 38.797C71.1306 39.1729 71.077 39.5784 71.1202 39.9793C71.1269 40.0229 71.1294 40.0671 71.1277 40.1113Z" fill="black"/>
</g>
<path opacity="0.1" d="M72.7505 45.8833C72.7505 45.8833 76.1306 46.2025 76.4143 45.6822Z" fill="black"/>
<path opacity="0.1" d="M79.2355 44.237C79.2355 44.237 81.1046 44.1678 81.5424 44.8531Z" fill="black"/>
<path d="M120.104 79.7931C120.104 79.7931 120.734 80.6178 119.813 81.864C118.891 83.1101 118.133 84.1615 118.44 84.9384C118.44 84.9384 119.83 82.6249 120.96 82.5919C122.091 82.5589 121.348 81.1829 120.104 79.7931Z" fill="#6C63FF"/>
<path opacity="0.1" d="M120.104 79.7931C120.159 79.8725 120.203 79.9596 120.232 80.0517C121.337 81.35 121.924 82.5621 120.864 82.5919C119.875 82.6206 118.69 84.3903 118.406 84.8362C118.415 84.8722 118.427 84.9078 118.44 84.9426C118.44 84.9426 119.83 82.6291 120.96 82.5961C122.091 82.5631 121.348 81.1829 120.104 79.7931Z" fill="black"/>
<path d="M121.276 80.8434C121.276 81.134 121.243 81.3691 121.203 81.3691C121.162 81.3691 121.13 81.134 121.13 80.8434C121.13 80.5529 121.171 80.6902 121.211 80.6902C121.252 80.6902 121.276 80.5529 121.276 80.8434Z" fill="#FFD037"/>
<path d="M121.678 81.1903C121.423 81.3286 121.2 81.4127 121.181 81.3776C121.162 81.3425 121.354 81.2009 121.606 81.0583C121.859 80.9157 121.76 81.02 121.781 81.0583C121.801 81.0967 121.932 81.0509 121.678 81.1903Z" fill="#FFD037"/>
<path d="M116.776 79.7931C116.776 79.7931 116.146 80.6178 117.066 81.864C117.986 83.1101 118.747 84.1615 118.44 84.9384C118.44 84.9384 117.05 82.6249 115.919 82.5919C114.789 82.5589 115.532 81.1829 116.776 79.7931Z" fill="#6C63FF"/>
<path opacity="0.1" d="M116.776 79.7931C116.72 79.8725 116.677 79.9596 116.647 80.0517C115.543 81.35 114.956 82.5621 116.016 82.5919C117.004 82.6206 118.189 84.3903 118.474 84.8362C118.464 84.8722 118.453 84.9078 118.44 84.9426C118.44 84.9426 117.05 82.6291 115.919 82.5961C114.789 82.5631 115.532 81.1829 116.776 79.7931Z" fill="black"/>
<path d="M115.604 80.8434C115.604 81.134 115.637 81.3691 115.677 81.3691C115.717 81.3691 115.749 81.134 115.749 80.8434C115.749 80.5529 115.709 80.6902 115.669 80.6902C115.628 80.6902 115.604 80.5529 115.604 80.8434Z" fill="#FFD037"/>
<path d="M115.202 81.1903C115.457 81.3286 115.679 81.4127 115.698 81.3776C115.717 81.3425 115.526 81.2009 115.273 81.0583C115.02 80.9157 115.118 81.02 115.099 81.0583C115.08 81.0967 114.947 81.0509 115.202 81.1903Z" fill="#FFD037"/>
<path opacity="0.1" d="M118.439 91.25C122.077 91.25 125.027 90.7969 125.027 90.238C125.027 89.6791 122.077 89.226 118.439 89.226C114.8 89.226 111.851 89.6791 111.851 90.238C111.851 90.7969 114.8 91.25 118.439 91.25Z" fill="#6C63FF"/>
<path d="M121.831 83.8253L121.799 84.0828L121.755 84.4468L121.737 84.5989L121.692 84.9629L121.673 85.1151L121.629 85.4779L121.125 89.6176C121.079 89.9868 120.477 90.2752 119.75 90.2752H117.13C116.402 90.2752 115.8 89.9868 115.756 89.6176L115.25 85.4779L115.206 85.1151L115.188 84.9629L115.143 84.5989L115.125 84.4468L115.08 84.0828L115.049 83.8253C115.024 83.6125 115.35 83.4401 115.761 83.4401H121.123C121.53 83.4401 121.857 83.6157 121.831 83.8253Z" fill="#65617D"/>
<path d="M121.799 84.0829L121.754 84.4468H115.124L115.08 84.0829H121.799Z" fill="#9D9CB5"/>
<path d="M121.736 84.5978L121.692 84.9628H115.187L115.143 84.5978H121.736Z" fill="#9D9CB5"/>
<path d="M121.672 85.114L121.629 85.4779H115.25L115.205 85.114H121.672Z" fill="#9D9CB5"/>
<defs>
<linearGradient id="paint0_linear" x1="75.0403" y1="83.588" x2="75.0403" y2="26.3004" gradientUnits="userSpaceOnUse">
<stop stop-color="#808080" stop-opacity="0.25"/>
<stop offset="0.54" stop-color="#808080" stop-opacity="0.12"/>
<stop offset="1" stop-color="#808080" stop-opacity="0.1"/>
</linearGradient>
<linearGradient id="paint1_linear" x1="19857.3" y1="44972.8" x2="18710.7" y2="15170.6" gradientUnits="userSpaceOnUse">
<stop stop-color="#808080" stop-opacity="0.25"/>
<stop offset="0.54" stop-color="#808080" stop-opacity="0.12"/>
<stop offset="1" stop-color="#808080" stop-opacity="0.1"/>
</linearGradient>
</defs>
</svg>
