<svg width="446" height="313" viewBox="0 0 446 313" fill="none" xmlns="http://www.w3.org/2000/svg">
<g clip-path="url(#clip0)">
<path d="M232.398 175.079H201.593V176.071H206.397V185.494H207.391V176.071H226.103V185.494H227.097V176.071H232.398V175.079Z" fill="#3F3D56"/>
<path d="M243.825 150.777H235.875V158.712H239.561V185.45H240.555V158.712H243.825V150.777Z" fill="#3F3D56"/>
<path d="M232.458 172.111H201.654V173.103H232.458V172.111Z" fill="#3F3D56"/>
<path d="M232.458 169.631H201.654V170.623H232.458V169.631Z" fill="#3F3D56"/>
<path d="M232.458 167.151H201.654V168.143H232.458V167.151Z" fill="#3F3D56"/>
<path d="M311.396 188.353H310.402C310.402 141.315 272.066 103.047 224.945 103.047C177.824 103.047 139.488 141.315 139.488 188.353H138.494C138.494 140.768 177.276 102.055 224.945 102.055C272.615 102.055 311.396 140.768 311.396 188.353Z" fill="#3F3D56"/>
<path d="M81.2342 162.18C126.099 162.18 162.468 125.875 162.468 81.0898C162.468 36.3052 126.099 0 81.2342 0C36.3698 0 0 36.3052 0 81.0898C0 125.875 36.3698 162.18 81.2342 162.18Z" fill="#6C63FF"/>
<path opacity="0.2" d="M141.661 26.9282C149.238 44.6214 150.266 64.4277 144.561 82.8078C138.856 101.188 126.789 116.944 110.518 127.261C94.2462 137.578 74.8298 141.783 55.7382 139.125C36.6465 136.467 19.1237 127.119 6.30103 112.751C10.9298 123.561 17.8576 133.237 26.6045 141.109C35.3514 148.981 45.7082 154.86 56.9573 158.34C68.2065 161.819 80.079 162.816 91.7523 161.261C103.426 159.705 114.621 155.635 124.562 149.332C134.503 143.029 142.952 134.644 149.325 124.758C155.697 114.872 159.84 103.721 161.467 92.0773C163.093 80.434 162.164 68.577 158.744 57.3276C155.325 46.0782 149.496 35.7055 141.661 26.9282Z" fill="black"/>
<path d="M81.4573 81.09H81.6803L85.6974 310.993H77.2172L81.4573 81.09Z" fill="#3F3D56"/>
<path d="M96.2486 206.317L94.3772 202.768L80.9489 209.826L82.8203 213.374L96.2486 206.317Z" fill="#3F3D56"/>
<path d="M380.251 181.125C416.563 181.125 446 151.74 446 115.493C446 79.2453 416.563 49.861 380.251 49.861C343.939 49.861 314.503 79.2453 314.503 115.493C314.503 151.74 343.939 181.125 380.251 181.125Z" fill="#6C63FF"/>
<path opacity="0.2" d="M429.159 71.6559C435.292 85.9763 436.124 102.007 431.507 116.883C426.889 131.76 417.123 144.512 403.953 152.862C390.783 161.212 375.068 164.616 359.616 162.465C344.164 160.313 329.981 152.747 319.603 141.119C323.349 149.868 328.956 157.699 336.036 164.07C343.115 170.442 351.498 175.2 360.603 178.017C369.707 180.833 379.317 181.64 388.765 180.381C398.213 179.122 407.274 175.828 415.32 170.726C423.366 165.625 430.204 158.838 435.362 150.836C440.52 142.835 443.873 133.809 445.189 124.386C446.506 114.962 445.754 105.365 442.986 96.2603C440.218 87.1554 435.5 78.76 429.159 71.6559Z" fill="black"/>
<path d="M380.432 115.493H380.613L383.864 301.57H377L380.432 115.493Z" fill="#3F3D56"/>
<path d="M392.404 216.848L390.889 213.976L380.021 219.688L381.535 222.56L392.404 216.848Z" fill="#3F3D56"/>
<path d="M186.234 172.009C191.95 172.009 196.584 167.383 196.584 161.677C196.584 155.971 191.95 151.345 186.234 151.345C180.517 151.345 175.883 155.971 175.883 161.677C175.883 167.383 180.517 172.009 186.234 172.009Z" fill="#FF6584"/>
<path opacity="0.2" d="M193.933 154.776C194.898 157.031 195.029 159.554 194.302 161.896C193.575 164.238 192.038 166.246 189.965 167.56C187.891 168.875 185.418 169.41 182.985 169.072C180.552 168.733 178.32 167.542 176.686 165.711C177.276 167.089 178.158 168.321 179.273 169.324C180.387 170.327 181.707 171.077 183.14 171.52C184.574 171.963 186.086 172.09 187.574 171.892C189.061 171.694 190.487 171.175 191.754 170.372C193.021 169.569 194.097 168.501 194.909 167.241C195.721 165.981 196.249 164.561 196.456 163.077C196.663 161.594 196.545 160.083 196.109 158.65C195.674 157.216 194.931 155.895 193.933 154.776Z" fill="black"/>
<path d="M186.262 161.677H186.29L186.802 190.97H185.722L186.262 161.677Z" fill="#3F3D56"/>
<path d="M188.147 177.633L187.908 177.181L186.197 178.08L186.436 178.532L188.147 177.633Z" fill="#3F3D56"/>
<path d="M281.876 154.828C296.51 154.828 308.374 142.985 308.374 128.377C308.374 113.769 296.51 101.926 281.876 101.926C267.242 101.926 255.378 113.769 255.378 128.377C255.378 142.985 267.242 154.828 281.876 154.828Z" fill="#FF6584"/>
<path opacity="0.2" d="M301.587 110.71C304.059 116.481 304.394 122.942 302.533 128.937C300.672 134.933 296.736 140.072 291.428 143.437C286.121 146.803 279.787 148.174 273.56 147.307C267.332 146.44 261.616 143.391 257.434 138.705C258.944 142.231 261.203 145.387 264.057 147.955C266.91 150.522 270.288 152.44 273.957 153.575C277.627 154.71 281.499 155.035 285.307 154.528C289.115 154.021 292.767 152.693 296.009 150.637C299.252 148.581 302.008 145.846 304.087 142.621C306.165 139.396 307.517 135.759 308.047 131.961C308.578 128.163 308.275 124.295 307.159 120.626C306.044 116.956 304.142 113.573 301.587 110.71Z" fill="black"/>
<path d="M281.949 128.377H282.022L283.332 203.369H280.566L281.949 128.377Z" fill="#3F3D56"/>
<path d="M286.774 169.225L286.163 168.067L281.783 170.369L282.394 171.527L286.774 169.225Z" fill="#3F3D56"/>
<path d="M99.4449 299.548C99.4449 299.548 99.788 292.371 106.822 293.206L99.4449 299.548Z" fill="#3F3D56"/>
<path d="M97.4575 292.719C99.4017 292.719 100.978 291.145 100.978 289.205C100.978 287.264 99.4017 285.691 97.4575 285.691C95.5133 285.691 93.9373 287.264 93.9373 289.205C93.9373 291.145 95.5133 292.719 97.4575 292.719Z" fill="#6C63FF"/>
<path d="M97.8784 295.122H96.8848V302.066H97.8784V295.122Z" fill="#3F3D56"/>
<path d="M124.287 283.181C124.287 283.181 124.63 276.005 131.664 276.839L124.287 283.181Z" fill="#3F3D56"/>
<path d="M122.3 276.352C124.244 276.352 125.82 274.779 125.82 272.838C125.82 270.897 124.244 269.324 122.3 269.324C120.356 269.324 118.78 270.897 118.78 272.838C118.78 274.779 120.356 276.352 122.3 276.352Z" fill="#6C63FF"/>
<path d="M122.721 278.755H121.727V285.699H122.721V278.755Z" fill="#3F3D56"/>
<path d="M199.171 227.656C199.171 227.656 199.444 221.956 205.03 222.618L199.171 227.656Z" fill="#3F3D56"/>
<path d="M197.593 222.231C199.137 222.231 200.389 220.982 200.389 219.44C200.389 217.899 199.137 216.649 197.593 216.649C196.049 216.649 194.797 217.899 194.797 219.44C194.797 220.982 196.049 222.231 197.593 222.231Z" fill="#6C63FF"/>
<path d="M197.927 224.14H197.138V229.655H197.927V224.14Z" fill="#3F3D56"/>
<path d="M308.477 209.801C308.477 209.801 308.75 204.101 314.336 204.764L308.477 209.801Z" fill="#3F3D56"/>
<path d="M306.899 204.377C308.443 204.377 309.695 203.127 309.695 201.586C309.695 200.044 308.443 198.795 306.899 198.795C305.354 198.795 304.103 200.044 304.103 201.586C304.103 203.127 305.354 204.377 306.899 204.377Z" fill="#6C63FF"/>
<path d="M307.233 206.286H306.444V211.8H307.233V206.286Z" fill="#3F3D56"/>
<path d="M204.14 242.534C204.14 242.534 204.412 236.835 209.999 237.497L204.14 242.534Z" fill="#3F3D56"/>
<path d="M202.561 237.11C204.105 237.11 205.357 235.861 205.357 234.319C205.357 232.778 204.105 231.528 202.561 231.528C201.017 231.528 199.765 232.778 199.765 234.319C199.765 235.861 201.017 237.11 202.561 237.11Z" fill="#6C63FF"/>
<path d="M202.896 239.019H202.106V244.534H202.896V239.019Z" fill="#3F3D56"/>
<path d="M192.215 253.446C192.215 253.446 192.488 247.746 198.074 248.408L192.215 253.446Z" fill="#3F3D56"/>
<path d="M190.637 248.021C192.181 248.021 193.433 246.772 193.433 245.23C193.433 243.689 192.181 242.439 190.637 242.439C189.093 242.439 187.841 243.689 187.841 245.23C187.841 246.772 189.093 248.021 190.637 248.021Z" fill="#6C63FF"/>
<path d="M190.971 249.93H190.182V255.445H190.971V249.93Z" fill="#3F3D56"/>
<path d="M325.37 219.224C325.37 219.224 325.642 213.524 331.229 214.187L325.37 219.224Z" fill="#3F3D56"/>
<path d="M323.791 213.8C325.336 213.8 326.587 212.55 326.587 211.009C326.587 209.468 325.336 208.218 323.791 208.218C322.247 208.218 320.995 209.468 320.995 211.009C320.995 212.55 322.247 213.8 323.791 213.8Z" fill="#6C63FF"/>
<path d="M324.126 215.709H323.336V221.224H324.126V215.709Z" fill="#3F3D56"/>
<path d="M164.392 231.623C164.392 231.623 164.665 225.923 170.251 226.586L164.392 231.623Z" fill="#3F3D56"/>
<path d="M162.814 226.199C164.358 226.199 165.61 224.95 165.61 223.408C165.61 221.867 164.358 220.617 162.814 220.617C161.269 220.617 160.018 221.867 160.018 223.408C160.018 224.95 161.269 226.199 162.814 226.199Z" fill="#6C63FF"/>
<path d="M163.148 228.108H162.359V233.623H163.148V228.108Z" fill="#3F3D56"/>
<path d="M293.572 203.353C293.572 203.353 293.844 197.654 299.431 198.316L293.572 203.353Z" fill="#3F3D56"/>
<path d="M291.993 197.929C293.537 197.929 294.789 196.68 294.789 195.138C294.789 193.597 293.537 192.347 291.993 192.347C290.449 192.347 289.197 193.597 289.197 195.138C289.197 196.68 290.449 197.929 291.993 197.929Z" fill="#6C63FF"/>
<path d="M292.328 199.838H291.538V205.353H292.328V199.838Z" fill="#3F3D56"/>
<path d="M56.2195 301.036C56.2195 301.036 56.5626 293.859 63.5962 294.694L56.2195 301.036Z" fill="#3F3D56"/>
<path d="M54.2321 294.207C56.1763 294.207 57.7523 292.633 57.7523 290.693C57.7523 288.752 56.1763 287.179 54.2321 287.179C52.2879 287.179 50.7118 288.752 50.7118 290.693C50.7118 292.633 52.2879 294.207 54.2321 294.207Z" fill="#6C63FF"/>
<path d="M54.653 296.61H53.6593V303.553H54.653V296.61Z" fill="#3F3D56"/>
<path d="M398.546 299.052C398.546 299.052 398.889 291.876 405.922 292.71L398.546 299.052Z" fill="#3F3D56"/>
<path d="M396.558 292.223C398.502 292.223 400.079 290.649 400.079 288.709C400.079 286.768 398.502 285.195 396.558 285.195C394.614 285.195 393.038 286.768 393.038 288.709C393.038 290.649 394.614 292.223 396.558 292.223Z" fill="#6C63FF"/>
<path d="M396.979 294.626H395.985V301.57H396.979V294.626Z" fill="#3F3D56"/>
<path d="M369.729 282.189C369.729 282.189 370.072 275.013 377.105 275.847L369.729 282.189Z" fill="#3F3D56"/>
<path d="M367.741 275.36C369.685 275.36 371.261 273.787 371.261 271.846C371.261 269.905 369.685 268.332 367.741 268.332C365.797 268.332 364.221 269.905 364.221 271.846C364.221 273.787 365.797 275.36 367.741 275.36Z" fill="#6C63FF"/>
<path d="M368.162 277.763H367.168V284.707H368.162V277.763Z" fill="#3F3D56"/>
<path d="M365.754 307.483C365.754 307.483 366.097 300.307 373.131 301.141L365.754 307.483Z" fill="#3F3D56"/>
<path d="M363.767 300.654C365.711 300.654 367.287 299.081 367.287 297.14C367.287 295.199 365.711 293.626 363.767 293.626C361.822 293.626 360.246 295.199 360.246 297.14C360.246 299.081 361.822 300.654 363.767 300.654Z" fill="#6C63FF"/>
<path d="M364.187 303.057H363.194V310.001H364.187V303.057Z" fill="#3F3D56"/>
<path d="M61.9388 312.839C61.9388 312.839 218.445 271.675 216.954 229.518C214.222 217.863 195.342 214.887 195.342 214.887C195.342 214.887 150.626 208.935 174.971 194.552C199.316 180.169 265.894 183.641 265.894 183.641C265.894 183.641 197.329 194.552 227.637 200.504C251.982 201.992 283.283 208.439 283.283 208.439C283.283 208.439 346.879 221.83 355.823 254.564C364.766 287.297 357.313 312.591 357.313 312.591L61.9388 312.839Z" fill="#E6E6E6"/>
<path d="M232.401 313L231.815 312.182C232.643 311.591 233.458 311.004 234.261 310.419L234.854 311.232C234.048 311.818 233.23 312.407 232.401 313Z" fill="white"/>
<path d="M239.706 307.636L239.098 306.835C240.725 305.605 242.328 304.367 243.861 303.157L244.486 303.945C242.947 305.16 241.338 306.402 239.706 307.636ZM249.183 300.148L248.54 299.374C250.115 298.068 251.654 296.756 253.117 295.474L253.781 296.229C252.312 297.517 250.765 298.836 249.183 300.148ZM258.261 292.172L257.572 291.439C259.075 290.032 260.524 288.623 261.879 287.252L262.596 287.957C261.232 289.338 259.773 290.756 258.261 292.172ZM266.749 283.558L266 282.887C267.38 281.352 268.686 279.814 269.881 278.317L270.668 278.943C269.461 280.455 268.143 282.008 266.749 283.558ZM274.277 274.076L273.445 273.51C274.616 271.797 275.672 270.088 276.584 268.429L277.467 268.913C276.539 270.6 275.466 272.337 274.277 274.076ZM280.067 263.415L279.13 263.048C279.86 261.208 280.432 259.31 280.839 257.374L281.826 257.576C281.407 259.569 280.819 261.522 280.067 263.415V263.415ZM281.411 251.506C281.381 249.552 281.109 247.61 280.601 245.723L281.574 245.461C282.103 247.428 282.387 249.453 282.418 251.489L281.411 251.506ZM278.399 240.297C277.443 238.573 276.32 236.947 275.048 235.44L275.82 234.796C277.134 236.352 278.294 238.033 279.282 239.814L278.399 240.297ZM270.887 231.199C269.391 229.883 267.823 228.65 266.192 227.506L266.773 226.685C268.435 227.851 270.031 229.106 271.555 230.447L270.887 231.199ZM261.146 224.271C259.499 223.305 257.722 222.34 255.866 221.405L256.319 220.508C258.195 221.453 259.991 222.427 261.656 223.404L261.146 224.271ZM250.424 218.836C248.671 218.059 246.804 217.276 244.875 216.51L245.248 215.577C247.189 216.347 249.068 217.135 250.833 217.917L250.424 218.836ZM239.229 214.374C237.435 213.725 235.517 213.058 233.529 212.393L233.849 211.44C235.845 212.108 237.77 212.777 239.572 213.429L239.229 214.374ZM227.785 210.531C226.03 209.978 224.141 209.397 222.01 208.752L222.302 207.79C224.437 208.436 226.33 209.019 228.088 209.572L227.785 210.531ZM216.216 207.016C214.179 206.408 212.237 205.827 210.419 205.268L210.715 204.307C212.531 204.866 214.47 205.446 216.504 206.054L216.216 207.016ZM204.644 203.404C202.707 202.766 200.813 202.005 198.973 201.126L199.426 200.227C201.226 201.087 203.079 201.831 204.974 202.454L204.644 203.404ZM197.041 196.816L196.323 196.111C197.241 195.18 199.056 194.269 201.874 193.326L202.194 194.279C199.567 195.158 197.833 196.012 197.041 196.816L197.041 196.816ZM207.954 192.641L207.711 191.666C209.452 191.233 211.436 190.78 213.607 190.319L213.816 191.303C211.656 191.76 209.684 192.211 207.954 192.641V192.641ZM219.72 190.119L219.531 189.132C221.386 188.778 223.384 188.411 225.47 188.042L225.646 189.032C223.564 189.4 221.571 189.766 219.72 190.119V190.119ZM231.586 188.011L231.42 187.019C233.317 186.702 235.302 186.377 237.376 186.045L237.535 187.038C235.464 187.369 233.48 187.694 231.586 188.011Z" fill="white"/>
<path d="M243.607 186.084L243.453 185.09C244.432 184.939 245.428 184.786 246.441 184.632L246.592 185.626C245.58 185.78 244.584 185.932 243.607 186.084Z" fill="white"/>
<path d="M265.892 83.9881L270.466 80.3364C266.912 79.9451 265.452 81.8795 264.855 83.4106C262.079 82.26 259.057 83.7679 259.057 83.7679L268.208 87.0843C267.747 85.8534 266.943 84.7793 265.892 83.9881Z" fill="#3F3D56"/>
<path d="M180.931 112.258L185.505 108.606C181.952 108.215 180.492 110.149 179.894 111.68C177.119 110.53 174.097 112.038 174.097 112.038L183.248 115.354C182.786 114.123 181.983 113.049 180.931 112.258Z" fill="#3F3D56"/>
<path d="M203.289 53.7344L207.863 50.0827C204.31 49.6914 202.85 51.6258 202.253 53.1569C199.477 52.0063 196.455 53.5142 196.455 53.5142L205.606 56.8306C205.144 55.5996 204.341 54.5256 203.289 53.7344Z" fill="#3F3D56"/>
<path d="M253.011 216.325C253.011 216.325 249.049 216.325 248.609 218.742C248.169 221.159 247.509 247.522 247.949 250.818C248.389 254.113 248.389 253.454 248.389 253.454C248.389 253.454 247.511 259.717 249.491 259.991C251.47 260.265 251.47 252.795 251.47 252.795L253.011 225.992V216.325Z" fill="#9E616A"/>
<path d="M270.178 216.325C270.178 216.325 274.139 216.325 274.58 218.742C275.02 221.159 275.68 247.522 275.24 250.818C274.8 254.113 274.8 253.454 274.8 253.454C274.8 253.454 275.677 259.717 273.698 259.991C271.718 260.265 271.718 252.795 271.718 252.795L270.178 225.992V216.325Z" fill="#9E616A"/>
<path d="M252.35 308.159H250.59C250.07 308.159 249.554 308.261 249.074 308.46C248.593 308.659 248.156 308.95 247.789 309.317C247.421 309.684 247.129 310.12 246.93 310.6C246.731 311.08 246.628 311.594 246.628 312.113V312.114H257.413V307.061H252.35V308.159Z" fill="#2F2E41"/>
<path d="M269.297 308.159H271.058C272.109 308.159 273.116 308.576 273.859 309.317C274.602 310.059 275.02 311.065 275.02 312.113V312.114H264.235V307.061H269.297V308.159Z" fill="#2F2E41"/>
<path d="M259.834 211.272C262.994 211.272 265.556 208.715 265.556 205.56C265.556 202.405 262.994 199.848 259.834 199.848C256.673 199.848 254.111 202.405 254.111 205.56C254.111 208.715 256.673 211.272 259.834 211.272Z" fill="#9E616A"/>
<path d="M258.513 208.636C258.513 208.636 257.853 215.886 256.972 216.545C256.092 217.204 266.216 216.106 266.216 216.106C266.216 216.106 262.695 210.833 263.355 209.075C264.015 207.318 258.513 208.636 258.513 208.636Z" fill="#9E616A"/>
<path d="M271.498 216.325C271.498 216.325 259.393 211.272 251.47 216.325C251.47 216.325 249.489 221.378 251.03 224.234C252.571 227.09 254.992 233.901 252.571 238.515C250.15 243.128 252.791 241.151 252.791 241.151C252.791 241.151 249.709 253.454 249.269 263.121C248.829 272.788 250.59 307.5 251.91 307.72C253.231 307.939 257.413 308.379 257.853 307.72C258.293 307.061 261.374 261.144 261.374 261.144C261.374 261.144 262.695 308.159 264.015 308.159C265.336 308.159 268.857 308.159 269.517 307.061C270.178 305.962 275.68 263.56 273.699 254.772C271.718 245.985 270.398 241.591 270.398 241.591C270.398 241.591 272.819 240.053 272.159 239.174C271.498 238.295 268.197 228.848 269.738 227.31C271.278 225.772 271.498 216.325 271.498 216.325Z" fill="#2F2E41"/>
<path d="M263.465 211.345C268.57 211.345 272.709 207.213 272.709 202.117C272.709 197.021 268.57 192.89 263.465 192.89C258.36 192.89 254.221 197.021 254.221 202.117C254.221 207.213 258.36 211.345 263.465 211.345Z" fill="#2F2E41"/>
<path d="M269.237 197.498C267.679 197.133 266.322 196.183 265.448 194.845C264.573 193.508 264.248 191.885 264.539 190.315C264.512 190.409 264.487 190.505 264.464 190.601C264.087 192.206 264.364 193.894 265.234 195.294C266.104 196.695 267.495 197.694 269.102 198.071C270.709 198.447 272.401 198.172 273.804 197.305C275.208 196.437 276.209 195.049 276.588 193.445C276.611 193.348 276.63 193.252 276.648 193.155C276.209 194.691 275.193 195.999 273.814 196.807C272.434 197.616 270.795 197.863 269.237 197.498Z" fill="#2F2E41"/>
<path d="M269.613 198.7C272.112 198.7 274.137 196.679 274.137 194.185C274.137 191.691 272.112 189.669 269.613 189.669C267.115 189.669 265.09 191.691 265.09 194.185C265.09 196.679 267.115 198.7 269.613 198.7Z" fill="#2F2E41"/>
</g>
<defs>
<clipPath id="clip0">
<rect width="446" height="313" fill="white"/>
</clipPath>
</defs>
</svg>
