<svg width="138" height="51" viewBox="0 0 138 51" fill="none" xmlns="http://www.w3.org/2000/svg">
<path d="M59.573 28.977C59.947 28.977 60.253 28.9487 60.491 28.892C60.7403 28.824 60.9387 28.739 61.086 28.637C61.2333 28.5237 61.3353 28.3933 61.392 28.246C61.4487 28.0987 61.477 27.9343 61.477 27.753C61.477 27.3677 61.2957 27.0503 60.933 26.801C60.5703 26.5403 59.947 26.2627 59.063 25.968C58.6777 25.832 58.2923 25.679 57.907 25.509C57.5217 25.3277 57.176 25.1067 56.87 24.846C56.564 24.574 56.3147 24.251 56.122 23.877C55.9293 23.4917 55.833 23.027 55.833 22.483C55.833 21.939 55.935 21.4517 56.139 21.021C56.343 20.579 56.632 20.205 57.006 19.899C57.38 19.593 57.8333 19.3607 58.366 19.202C58.8987 19.032 59.4993 18.947 60.168 18.947C60.9613 18.947 61.647 19.032 62.225 19.202C62.803 19.372 63.279 19.559 63.653 19.763L62.888 21.854C62.5593 21.684 62.191 21.5367 61.783 21.412C61.3863 21.276 60.9047 21.208 60.338 21.208C59.7033 21.208 59.2443 21.2987 58.961 21.48C58.689 21.65 58.553 21.9163 58.553 22.279C58.553 22.4943 58.604 22.6757 58.706 22.823C58.808 22.9703 58.9497 23.1063 59.131 23.231C59.3237 23.3443 59.539 23.452 59.777 23.554C60.0263 23.6447 60.2983 23.741 60.593 23.843C61.205 24.0697 61.7377 24.2963 62.191 24.523C62.6443 24.7383 63.0183 24.9933 63.313 25.288C63.619 25.5827 63.8457 25.9283 63.993 26.325C64.1403 26.7217 64.214 27.2033 64.214 27.77C64.214 28.8693 63.8287 29.725 63.058 30.337C62.2873 30.9377 61.1257 31.238 59.573 31.238C59.0517 31.238 58.5813 31.204 58.162 31.136C57.7427 31.0793 57.3687 31.0057 57.04 30.915C56.7227 30.8243 56.445 30.728 56.207 30.626C55.9803 30.524 55.7877 30.4277 55.629 30.337L56.377 28.229C56.7283 28.4217 57.159 28.5973 57.669 28.756C58.1903 28.9033 58.825 28.977 59.573 28.977ZM74.4485 26.512C74.4485 27.2147 74.3465 27.8607 74.1425 28.45C73.9385 29.028 73.6439 29.5267 73.2585 29.946C72.8732 30.354 72.4085 30.6713 71.8645 30.898C71.3319 31.1247 70.7312 31.238 70.0625 31.238C69.4052 31.238 68.8045 31.1247 68.2605 30.898C67.7279 30.6713 67.2689 30.354 66.8835 29.946C66.4982 29.5267 66.1979 29.028 65.9825 28.45C65.7672 27.8607 65.6595 27.2147 65.6595 26.512C65.6595 25.8093 65.7672 25.169 65.9825 24.591C66.2092 24.013 66.5152 23.52 66.9005 23.112C67.2972 22.704 67.7619 22.3867 68.2945 22.16C68.8385 21.9333 69.4279 21.82 70.0625 21.82C70.7085 21.82 71.2979 21.9333 71.8305 22.16C72.3745 22.3867 72.8392 22.704 73.2245 23.112C73.6099 23.52 73.9102 24.013 74.1255 24.591C74.3409 25.169 74.4485 25.8093 74.4485 26.512ZM71.8645 26.512C71.8645 25.73 71.7059 25.118 71.3885 24.676C71.0825 24.2227 70.6405 23.996 70.0625 23.996C69.4845 23.996 69.0369 24.2227 68.7195 24.676C68.4022 25.118 68.2435 25.73 68.2435 26.512C68.2435 27.294 68.4022 27.9173 68.7195 28.382C69.0369 28.8353 69.4845 29.062 70.0625 29.062C70.6405 29.062 71.0825 28.8353 71.3885 28.382C71.7059 27.9173 71.8645 27.294 71.8645 26.512ZM80.2867 17.808C80.7627 17.808 81.199 17.859 81.5957 17.961C81.9924 18.0517 82.2984 18.1423 82.5137 18.233L82.0207 20.256C81.794 20.154 81.5447 20.0803 81.2727 20.035C81.012 19.9783 80.7684 19.95 80.5417 19.95C80.2357 19.95 79.975 19.9953 79.7597 20.086C79.5557 20.1653 79.3914 20.2787 79.2667 20.426C79.1534 20.5733 79.0684 20.749 79.0117 20.953C78.9664 21.157 78.9437 21.378 78.9437 21.616V22.058H82.0717V24.166H78.9437V31H76.4107V21.582C76.4107 20.426 76.7337 19.508 77.3797 18.828C78.037 18.148 79.006 17.808 80.2867 17.808ZM83.4976 19.831L86.0306 19.423V22.058H89.0736V24.166H86.0306V27.311C86.0306 27.8437 86.1212 28.2687 86.3026 28.586C86.4952 28.9033 86.8749 29.062 87.4416 29.062C87.7136 29.062 87.9912 29.0393 88.2746 28.994C88.5692 28.9373 88.8356 28.8637 89.0736 28.773L89.4306 30.745C89.1246 30.8697 88.7846 30.9773 88.4106 31.068C88.0366 31.1587 87.5776 31.204 87.0336 31.204C86.3422 31.204 85.7699 31.1133 85.3166 30.932C84.8632 30.7393 84.5006 30.4787 84.2286 30.15C83.9566 29.81 83.7639 29.402 83.6506 28.926C83.5486 28.45 83.4976 27.923 83.4976 27.345V19.831ZM98.6033 28.977C98.9773 28.977 99.2833 28.9487 99.5213 28.892C99.7706 28.824 99.9689 28.739 100.116 28.637C100.264 28.5237 100.366 28.3933 100.422 28.246C100.479 28.0987 100.507 27.9343 100.507 27.753C100.507 27.3677 100.326 27.0503 99.9633 26.801C99.6006 26.5403 98.9773 26.2627 98.0933 25.968C97.7079 25.832 97.3226 25.679 96.9373 25.509C96.5519 25.3277 96.2063 25.1067 95.9003 24.846C95.5943 24.574 95.3449 24.251 95.1523 23.877C94.9596 23.4917 94.8633 23.027 94.8633 22.483C94.8633 21.939 94.9653 21.4517 95.1693 21.021C95.3733 20.579 95.6623 20.205 96.0363 19.899C96.4103 19.593 96.8636 19.3607 97.3963 19.202C97.9289 19.032 98.5296 18.947 99.1983 18.947C99.9916 18.947 100.677 19.032 101.255 19.202C101.833 19.372 102.309 19.559 102.683 19.763L101.918 21.854C101.59 21.684 101.221 21.5367 100.813 21.412C100.417 21.276 99.9349 21.208 99.3683 21.208C98.7336 21.208 98.2746 21.2987 97.9913 21.48C97.7193 21.65 97.5833 21.9163 97.5833 22.279C97.5833 22.4943 97.6343 22.6757 97.7363 22.823C97.8383 22.9703 97.9799 23.1063 98.1613 23.231C98.3539 23.3443 98.5693 23.452 98.8073 23.554C99.0566 23.6447 99.3286 23.741 99.6233 23.843C100.235 24.0697 100.768 24.2963 101.221 24.523C101.675 24.7383 102.049 24.9933 102.343 25.288C102.649 25.5827 102.876 25.9283 103.023 26.325C103.171 26.7217 103.244 27.2033 103.244 27.77C103.244 28.8693 102.859 29.725 102.088 30.337C101.318 30.9377 100.156 31.238 98.6033 31.238C98.0819 31.238 97.6116 31.204 97.1923 31.136C96.7729 31.0793 96.3989 31.0057 96.0703 30.915C95.7529 30.8243 95.4753 30.728 95.2373 30.626C95.0106 30.524 94.8179 30.4277 94.6593 30.337L95.4073 28.229C95.7586 28.4217 96.1893 28.5973 96.6993 28.756C97.2206 28.9033 97.8553 28.977 98.6033 28.977ZM107.648 25.288C107.897 25.016 108.152 24.7327 108.413 24.438C108.685 24.1433 108.945 23.8543 109.195 23.571C109.444 23.2763 109.676 22.9987 109.892 22.738C110.118 22.4773 110.311 22.2507 110.47 22.058H113.479C112.878 22.7493 112.289 23.4123 111.711 24.047C111.144 24.6703 110.521 25.3163 109.841 25.985C110.181 26.291 110.532 26.6593 110.895 27.09C111.257 27.5093 111.609 27.9457 111.949 28.399C112.289 28.8523 112.6 29.3057 112.884 29.759C113.167 30.2123 113.405 30.626 113.598 31H110.691C110.509 30.7053 110.3 30.3823 110.062 30.031C109.835 29.6683 109.591 29.3113 109.331 28.96C109.07 28.5973 108.792 28.2517 108.498 27.923C108.214 27.5943 107.931 27.3167 107.648 27.09V31H105.115V18.216L107.648 17.808V25.288ZM117.493 31H114.96V22.058H117.493V31ZM117.731 19.474C117.731 19.9387 117.578 20.307 117.272 20.579C116.977 20.8397 116.626 20.97 116.218 20.97C115.81 20.97 115.453 20.8397 115.147 20.579C114.852 20.307 114.705 19.9387 114.705 19.474C114.705 19.0093 114.852 18.6467 115.147 18.386C115.453 18.114 115.81 17.978 116.218 17.978C116.626 17.978 116.977 18.114 117.272 18.386C117.578 18.6467 117.731 19.0093 117.731 19.474ZM123.444 31.17C122.707 31.1587 122.106 31.0793 121.642 30.932C121.188 30.7847 120.826 30.5807 120.554 30.32C120.293 30.048 120.112 29.725 120.01 29.351C119.919 28.9657 119.874 28.535 119.874 28.059V18.216L122.407 17.808V27.549C122.407 27.7757 122.424 27.9797 122.458 28.161C122.492 28.3423 122.554 28.4953 122.645 28.62C122.747 28.7447 122.888 28.8467 123.07 28.926C123.251 29.0053 123.495 29.0563 123.801 29.079L123.444 31.17ZM128.823 31.17C128.086 31.1587 127.485 31.0793 127.021 30.932C126.567 30.7847 126.205 30.5807 125.933 30.32C125.672 30.048 125.491 29.725 125.389 29.351C125.298 28.9657 125.253 28.535 125.253 28.059V18.216L127.786 17.808V27.549C127.786 27.7757 127.803 27.9797 127.837 28.161C127.871 28.3423 127.933 28.4953 128.024 28.62C128.126 28.7447 128.267 28.8467 128.449 28.926C128.63 29.0053 128.874 29.0563 129.18 29.079L128.823 31.17ZM133.198 29.181C133.663 29.181 133.992 29.1357 134.184 29.045C134.377 28.9543 134.473 28.7787 134.473 28.518C134.473 28.314 134.349 28.1383 134.099 27.991C133.85 27.8323 133.47 27.6567 132.96 27.464C132.564 27.3167 132.201 27.1637 131.872 27.005C131.555 26.8463 131.283 26.6593 131.056 26.444C130.83 26.2173 130.654 25.951 130.529 25.645C130.405 25.339 130.342 24.9707 130.342 24.54C130.342 23.7013 130.654 23.0383 131.277 22.551C131.901 22.0637 132.756 21.82 133.844 21.82C134.388 21.82 134.91 21.871 135.408 21.973C135.907 22.0637 136.304 22.1657 136.598 22.279L136.156 24.251C135.862 24.149 135.539 24.0583 135.187 23.979C134.847 23.8997 134.462 23.86 134.031 23.86C133.238 23.86 132.841 24.081 132.841 24.523C132.841 24.625 132.858 24.7157 132.892 24.795C132.926 24.8743 132.994 24.9537 133.096 25.033C133.198 25.101 133.334 25.1803 133.504 25.271C133.686 25.3503 133.912 25.441 134.184 25.543C134.74 25.747 135.199 25.951 135.561 26.155C135.924 26.3477 136.207 26.563 136.411 26.801C136.627 27.0277 136.774 27.2827 136.853 27.566C136.944 27.8493 136.989 28.178 136.989 28.552C136.989 29.436 136.655 30.1047 135.986 30.558C135.329 31.0113 134.394 31.238 133.181 31.238C132.388 31.238 131.725 31.17 131.192 31.034C130.671 30.898 130.308 30.7847 130.104 30.694L130.529 28.637C130.96 28.807 131.402 28.943 131.855 29.045C132.309 29.1357 132.756 29.181 133.198 29.181Z" fill="white"/>
<g clip-path="url(#clip0)">
<path d="M17.2636 5.89844C17.2636 5.89844 8.93844 10.7231 11.0874 46.2025H30.9601C30.9601 46.2025 32.3032 15.8326 23.7094 5.89844H17.2636Z" fill="#F9F9F9"/>
<path d="M15.3255 46.1558V48.3951H14.5858V50.1663H12.8324V51.0001H29.2182V50.0103H27.3012V48.5774H26.4554V46.1558H15.3255Z" fill="#F9F9F9"/>
<path d="M20.7525 31.2823C24.3692 31.2823 27.3011 28.233 27.3011 24.4715C27.3011 20.71 24.3692 17.6606 20.7525 17.6606C17.1357 17.6606 14.2038 20.71 14.2038 24.4715C14.2038 28.233 17.1357 31.2823 20.7525 31.2823Z" fill="url(#paint0_linear)"/>
<path d="M20.7525 30.2631C23.7497 30.2631 26.1794 27.7361 26.1794 24.6188C26.1794 21.5016 23.7497 18.9746 20.7525 18.9746C17.7552 18.9746 15.3255 21.5016 15.3255 24.6188C15.3255 27.7361 17.7552 30.2631 20.7525 30.2631Z" fill="white"/>
<path d="M20.807 28.6806C22.964 28.6806 24.7125 26.862 24.7125 24.6187C24.7125 22.3754 22.964 20.5569 20.807 20.5569C18.6501 20.5569 16.9016 22.3754 16.9016 24.6187C16.9016 26.862 18.6501 28.6806 20.807 28.6806Z" fill="url(#paint1_linear)"/>
<path d="M12.2889 43.0465H2.14533C1.88461 43.0473 1.62684 42.9891 1.38987 42.8761C1.15289 42.763 0.942359 42.5978 0.772853 42.3917C0.0383445 41.4925 -0.771713 39.754 1.44021 37.7417C4.67834 34.7951 11.8031 31.2822 11.8031 31.2822L12.2889 43.0465Z" fill="url(#paint2_linear)"/>
<path d="M29.2182 42.2586H39.005C39.2586 42.2582 39.5089 42.1993 39.7379 42.086C39.9669 41.9728 40.1689 41.8081 40.3292 41.6038C41.0385 40.7045 41.8192 38.9661 39.6849 36.9537C36.5601 34.0072 29.6862 30.4954 29.6862 30.4954L29.2182 42.2586Z" fill="url(#paint3_linear)"/>
<path d="M21.316 37.553H20.6686C20.1493 37.553 19.7284 37.9908 19.7284 38.5308V47.5592C19.7284 48.0992 20.1493 48.537 20.6686 48.537H21.316C21.8352 48.537 22.2562 48.0992 22.2562 47.5592V38.5308C22.2562 37.9908 21.8352 37.553 21.316 37.553Z" fill="url(#paint4_linear)"/>
<path d="M15.5721 7.93491H24.9622C24.9967 7.93337 25.0303 7.92242 25.0594 7.90317C25.0886 7.88391 25.1124 7.85703 25.1285 7.82521C25.1445 7.79338 25.1522 7.75773 25.1509 7.72183C25.1495 7.68593 25.1391 7.65102 25.1207 7.62062L20.7189 0.0906082C20.7034 0.0618296 20.681 0.037714 20.6539 0.0206098C20.6268 0.00350563 20.5959 -0.00600519 20.5642 -0.00699419C20.5325 -0.00798319 20.5011 -0.000416518 20.473 0.0149665C20.4449 0.0303495 20.4212 0.0530242 20.4041 0.0807852L15.4157 7.6108C15.3949 7.64117 15.3825 7.67686 15.3797 7.71404C15.377 7.75122 15.384 7.78847 15.4001 7.8218C15.4162 7.85512 15.4407 7.88327 15.471 7.9032C15.5013 7.92313 15.5362 7.93409 15.5721 7.93491Z" fill="url(#paint5_linear)"/>
<path d="M23.8553 24.1702C23.8553 24.1702 24.4849 25.9468 21.572 27.7715L23.8553 24.1702Z" fill="url(#paint6_linear)"/>
</g>
<defs>
<linearGradient id="paint0_linear" x1="14.2048" y1="24.4715" x2="27.3011" y2="24.4715" gradientUnits="userSpaceOnUse">
<stop stop-color="#E5A4ED"/>
<stop offset="1" stop-color="#7A5BF5"/>
</linearGradient>
<linearGradient id="paint1_linear" x1="1274.94" y1="1853.18" x2="1856.46" y2="1853.18" gradientUnits="userSpaceOnUse">
<stop stop-color="#E5A4ED"/>
<stop offset="1" stop-color="#7A5BF5"/>
</linearGradient>
<linearGradient id="paint2_linear" x1="1846.63" y1="6155.77" x2="3285.67" y2="6155.77" gradientUnits="userSpaceOnUse">
<stop stop-color="#E5A4ED"/>
<stop offset="1" stop-color="#7A5BF5"/>
</linearGradient>
<linearGradient id="paint3_linear" x1="2071" y1="6069.48" x2="726.19" y2="6069.48" gradientUnits="userSpaceOnUse">
<stop stop-color="#E5A4ED"/>
<stop offset="1" stop-color="#7A5BF5"/>
</linearGradient>
<linearGradient id="paint4_linear" x1="555.867" y1="4369.97" x2="494.973" y2="4369.97" gradientUnits="userSpaceOnUse">
<stop stop-color="#E5A4ED"/>
<stop offset="1" stop-color="#7A5BF5"/>
</linearGradient>
<linearGradient id="paint5_linear" x1="2916.55" y1="1718.72" x2="3826.01" y2="1718.72" gradientUnits="userSpaceOnUse">
<stop stop-color="#E5A4ED"/>
<stop offset="1" stop-color="#7A5BF5"/>
</linearGradient>
<linearGradient id="paint6_linear" x1="25.8178" y1="25.1205" x2="20.5837" y2="26.4426" gradientUnits="userSpaceOnUse">
<stop stop-color="white" stop-opacity="0"/>
<stop offset="1" stop-color="white"/>
</linearGradient>
<clipPath id="clip0">
<rect width="41.0758" height="51" fill="white"/>
</clipPath>
</defs>
</svg>
